<?xml version="1.0" standalone="no"?>
<!DOCTYPE svg PUBLIC "-//W3C//DTD SVG 1.1//EN" "http://www.w3.org/Graphics/SVG/1.1/DTD/svg11.dtd" >
<svg xmlns="http://www.w3.org/2000/svg" xmlns:xlink="http://www.w3.org/1999/xlink" version="1.1">
<metadata>
Created by FontForge 20190801 at Thu Sep  7 02:02:57 2017
 By Unknown
Copyright (C)2017 Commercial Type.
</metadata>
<defs>
<font id="DrukWideCyWeb-Super" horiz-adv-x="706" >
  <font-face 
    font-family="Druk Wide Cy Web Super"
    font-weight="900"
    font-stretch="normal"
    units-per-em="1000"
    panose-1="0 0 0 0 0 0 0 0 0 0"
    ascent="800"
    descent="-200"
    x-height="538"
    cap-height="744"
    bbox="-121 -331 2928 1210"
    underline-thickness="84"
    underline-position="-20"
    unicode-range="U+000D-FB04"
  />
<missing-glyph horiz-adv-x="296" 
 />
    <glyph glyph-name="f_f" unicode="ff" horiz-adv-x="1115" 
d="M123 0v340h-112v198h112v32q0 89 51 131.5t165 42.5h255v-166h-79q-17 0 -22 -7t-5 -22v-11h140v32q0 89 51 131.5t165 42.5h255v-166h-79q-17 0 -22 -7t-5 -22v-11h106v-198h-106v-340h-365v340h-140v-340h-365z" />
    <glyph glyph-name="f_i" unicode="fi" horiz-adv-x="1018" 
d="M590 578h-75q-17 0 -22 -7t-5 -22v-11h102v-198h-102v-340h-365v340h-112v198h112v32q0 89 51 131.5t165 42.5h251v-166zM991 569h-364v175h364v-175zM991 0h-364v538h364v-538z" />
    <glyph glyph-name="f_l" unicode="fl" horiz-adv-x="1018" 
d="M590 578h-75q-17 0 -22 -7t-5 -22v-11h102v-198h-102v-340h-365v340h-112v198h112v32q0 89 51 131.5t165 42.5h251v-166zM991 0h-364v744h364v-744z" />
    <glyph glyph-name="emdash.alt" unicode="&#x2014;&#x2014;" horiz-adv-x="2952" 
d="M2928 215h-2904v163h2904v-163z" />
    <glyph glyph-name=".notdef" horiz-adv-x="296" 
 />
    <glyph glyph-name=".null" horiz-adv-x="0" 
 />
    <glyph glyph-name="nonmarkingreturn" unicode="&#xd;" horiz-adv-x="296" 
 />
    <glyph glyph-name="NULL" horiz-adv-x="0" 
 />
    <glyph glyph-name="NULL" horiz-adv-x="0" 
 />
    <glyph glyph-name="space" unicode=" " horiz-adv-x="296" 
 />
    <glyph glyph-name="exclam" unicode="!" horiz-adv-x="497" 
d="M496 744l-134 -478h-227l-134 478h495zM428 0h-359v232h359v-232z" />
    <glyph glyph-name="quotedbl" unicode="&#x22;" horiz-adv-x="650" 
d="M624 453h-282v291h282v-291zM308 454h-282v290h282v-290z" />
    <glyph glyph-name="numbersign" unicode="#" horiz-adv-x="944" 
d="M556 451h-135l-35 -122h135zM479 181h-135l-52 -181h-209l51 181h-131l42 148h131l35 122h-131l42 148h131l41 145h211l-42 -145h135l42 145h211l-42 -145h132l-43 -148h-132l-35 -122h132l-43 -148h-132l-52 -181h-209z" />
    <glyph glyph-name="dollar" unicode="$" horiz-adv-x="1121" 
d="M407 536q0 -17 18 -28t74 -17v90q-30 -2 -48 -5.5t-28 -9t-13 -12.5t-3 -16v-2zM694 232q0 9 -2.5 16.5t-11.5 14t-26.5 11.5t-48.5 8v-107q28 2 45.5 7.5t27.5 12.5t13 15.5t3 17.5v4zM499 -75v62q-113 0 -194 13t-136 33.5t-87.5 47.5t-50 55.5t-22.5 56.5t-5 52v10
h403q1 -12 4 -24.5t12 -23t27 -19t49 -12.5v112l-128 5q-109 4 -178 24.5t-108.5 51.5t-54 70.5t-14.5 82.5v9q0 52 23.5 93t79 69.5t148.5 44t232 15.5v57h106v-57q146 -1 239.5 -19.5t147 -49.5t74 -72.5t20.5 -88.5v-7h-393q-1 9 -4.5 18.5t-12.5 18t-26 15.5t-45 11v-94
l128 -4q105 -3 177.5 -18t118 -42.5t65.5 -67.5t20 -94v-14q0 -50 -19 -96t-74 -82t-155 -57.5t-261 -22.5v-62h-106z" />
    <glyph glyph-name="percent" unicode="%" horiz-adv-x="1528" 
d="M338 322q-105 0 -169 21t-98.5 52.5t-46 68.5t-11.5 69v13q0 32 11.5 68t46.5 66.5t99.5 50.5t169.5 20h16q105 0 169.5 -20t99.5 -50.5t46.5 -66.5t11.5 -68v-13q0 -32 -11.5 -69t-46 -68.5t-98.5 -52.5t-169 -21h-20zM1308 744l-843 -744h-247l842 744h248zM348 470
q44 0 62.5 20.5t18.5 46.5v3q0 13 -4.5 25t-14 21t-25 14.5t-37.5 5.5t-37.5 -5.5t-25 -14.5t-14 -21t-4.5 -25v-3q0 -26 18.5 -46.5t62.5 -20.5zM1170 -8q-105 0 -169 21t-98.5 52.5t-46 68.5t-11.5 69v13q0 32 11.5 68t46.5 66.5t99.5 50.5t169.5 20h16q105 0 169.5 -20
t99.5 -50.5t46.5 -66.5t11.5 -68v-13q0 -32 -11.5 -69t-46 -68.5t-98.5 -52.5t-169 -21h-20zM1180 140q44 0 62.5 20.5t18.5 46.5v3q0 13 -4.5 25t-14 21t-25 14.5t-37.5 5.5t-37.5 -5.5t-25 -14.5t-14 -21t-4.5 -25v-3q0 -26 18.5 -46.5t62.5 -20.5z" />
    <glyph glyph-name="ampersand" unicode="&#x26;" horiz-adv-x="1237" 
d="M491 578q0 -11 4 -20.5t14 -20t26 -23t40 -29.5q45 16 70 34.5t25 47.5q0 23 -21.5 38t-71.5 15q-48 0 -67 -12t-19 -30zM558 152q39 0 71 3l-239 160q-5 -8 -9.5 -20.5t-4.5 -29.5v-3q0 -21 9 -40.5t30 -35t56 -25t87 -9.5zM1156 -11q-54 -1 -100 1t-86 8t-74.5 15
t-67.5 23q-21 -8 -51 -17t-71 -16.5t-96 -12.5t-125 -5q-131 0 -222.5 16.5t-148.5 44.5t-83 65.5t-26 79.5v8q0 79 68 127t200 69q-30 24 -50 46t-32 43.5t-17 42.5t-5 44v8q0 35 18 67.5t62.5 57.5t118.5 40t185 15h60q105 0 172.5 -14.5t106.5 -37.5t54 -51.5t15 -56.5
v-5q0 -32 -14.5 -58.5t-47.5 -49t-86.5 -40.5t-131.5 -32l181 -119q24 42 31.5 83.5t7.5 72.5h294q0 -77 -31 -136t-79 -106q34 -3 72.5 -3.5t84.5 -0.5z" />
    <glyph glyph-name="quotesingle" unicode="'" horiz-adv-x="335" 
d="M309 453h-283v291h283v-291z" />
    <glyph glyph-name="parenleft" unicode="(" horiz-adv-x="409" 
d="M12 345q0 72 17.5 137t50 123.5t78.5 109t103 93.5h161q-61 -90 -101.5 -204t-40.5 -259q0 -73 11 -138.5t30.5 -124t45.5 -111.5t55 -102h-161q-56 45 -102 97t-78.5 111.5t-50.5 126.5t-18 141z" />
    <glyph glyph-name="parenright" unicode=")" horiz-adv-x="409" 
d="M-13 -131q29 49 55 102t45.5 111.5t30.5 124t11 138.5q0 145 -40.5 259t-101.5 204h161q57 -43 103 -93.5t78.5 -109t50 -123.5t17.5 -137q0 -74 -18 -141t-50.5 -126.5t-78.5 -111.5t-102 -97h-161v0z" />
    <glyph glyph-name="asterisk" unicode="*" horiz-adv-x="506" 
d="M419 718l82 -158l-146 -28l146 -30l-82 -159l-102 80l35 -115h-197l37 115l-104 -80l-83 159l147 30l-147 28l83 158l100 -89l-33 115h197l-32 -115z" />
    <glyph glyph-name="plus" unicode="+" horiz-adv-x="632" 
d="M422 222v-176h-213v176h-195v174h195v175h213v-175h196v-174h-196z" />
    <glyph glyph-name="comma" unicode="," horiz-adv-x="407" 
d="M119 -135q8 13 16.5 30t16 35.5t12.5 36.5t6 33h-146v232h359v-186q0 -24 -8 -50.5t-19.5 -50.5t-25 -45t-25.5 -35h-186z" />
    <glyph glyph-name="hyphen" unicode="-" horiz-adv-x="395" 
d="M371 404v-214h-347v214h347z" />
    <glyph glyph-name="period" unicode="." horiz-adv-x="407" 
d="M383 0h-359v232h359v-232z" />
    <glyph glyph-name="slash" unicode="/" horiz-adv-x="531" 
d="M223 -131h-262l322 939h264z" />
    <glyph glyph-name="zero" unicode="0" horiz-adv-x="1200" 
d="M1185 357q0 -36 -7.5 -78t-29 -83t-60 -79.5t-101 -67.5t-151.5 -46.5t-212 -17.5h-47q-123 0 -212.5 17.5t-152 46.5t-101 67.5t-60 79.5t-29 83t-7.5 78v30q0 36 7.5 78t29 83.5t60 79.5t101 67t152 46.5t212.5 17.5h47q123 0 212 -17.5t151.5 -46.5t101 -67t60 -79.5
t29 -83.5t7.5 -78v-30zM794 382q0 24 -9 49t-31.5 45.5t-60 33.5t-93.5 13q-57 0 -94.5 -13t-59.5 -33.5t-31 -45.5t-9 -49v-12q0 -24 9 -50t31.5 -47t60 -35t93.5 -14q57 0 94 14t59.5 35t31.5 47t9 50v12z" />
    <glyph glyph-name="one" unicode="1" horiz-adv-x="620" 
d="M15 399v184q106 3 169.5 44.5t92.5 116.5h311v-744h-380v399h-193z" />
    <glyph glyph-name="two" unicode="2" horiz-adv-x="1087" 
d="M16 0v92q0 21 2 49.5t15 61t40.5 68t79.5 70t132 66t197 56.5q45 10 87 18q30 6 48 11t27.5 9.5t12.5 9.5t3 12v1q0 8 -4.5 14.5t-17 11.5t-35 8t-59.5 3q-52 0 -80 -10.5t-40.5 -24.5t-14.5 -28t-2 -21h-381v5q0 27 5 58.5t22 62t49 59t85.5 50t132 34.5t189.5 13h48
q106 0 184.5 -8.5t134 -23.5t91 -36.5t55.5 -47.5t27.5 -56.5t7.5 -62.5v-8q0 -53 -24.5 -89t-77 -61.5t-135.5 -43t-201 -34.5q-23 -3 -40.5 -6.5t-34.5 -5.5q-61 -10 -100.5 -18t-62.5 -16t-32 -16.5t-9 -17.5h396v73h330v-281h-1050z" />
    <glyph glyph-name="three" unicode="3" horiz-adv-x="1136" 
d="M528 -15q-116 0 -200 14t-142.5 37t-94 53t-55 61.5t-26 63t-6.5 57.5v9h386q0 -6 3.5 -19t19.5 -26.5t48 -24t90 -10.5q51 0 83 4t49.5 11t23.5 16t6 19v2q0 20 -16.5 29.5t-52.5 9.5h-223v188h224q32 0 46.5 9t14.5 23v1q0 9 -3.5 17t-19 13.5t-46.5 9t-85 3.5
q-57 0 -88.5 -8.5t-47 -19.5t-19 -21.5t-3.5 -15.5h-382v11q0 22 6 50t24 56.5t52.5 56t91.5 48.5t140.5 34t199.5 13h47q121 0 207 -8t144 -22.5t92 -33t52 -40t23 -44t5 -44.5v-4q0 -26 -12.5 -47t-33.5 -37t-49.5 -26t-60.5 -15q36 -5 70 -17.5t60.5 -34t42.5 -54
t16 -76.5v-6q0 -28 -8 -59t-29.5 -60.5t-59.5 -56t-99 -46.5t-148 -31.5t-206 -11.5h-51z" />
    <glyph glyph-name="four" unicode="4" horiz-adv-x="1128" 
d="M526 749h427v-401h164v-229h-164v-119h-383v119h-558v200zM570 546l-237 -198h237v198z" />
    <glyph glyph-name="five" unicode="5" horiz-adv-x="1069" 
d="M519 -15q-123 0 -207.5 13.5t-140 35.5t-86 49.5t-44.5 56t-17 54t-3 44.5v6h389q1 -3 5.5 -11.5t18 -17.5t39.5 -16t71 -7q68 0 95 21t27 51v2q0 28 -27 49t-95 21q-44 0 -70 -8t-40 -17.5t-18.5 -18.5t-5.5 -12h-378v464h974v-195h-592v-98q7 5 25 15t49 20t77 17.5
t108 7.5h8q116 0 189.5 -19.5t115 -52.5t57 -76.5t15.5 -92.5v-6q0 -32 -7 -65t-26.5 -64t-54 -58.5t-89 -47.5t-131.5 -32t-181 -12h-50z" />
    <glyph glyph-name="six" unicode="6" horiz-adv-x="1136" 
d="M541 -15q-120 0 -205.5 19t-144 50t-93.5 71t-53.5 81.5t-24 81.5t-5.5 72v24q0 30 5.5 70t23.5 81.5t53 81.5t94 71.5t146.5 51t211.5 19.5h47q105 0 183 -11.5t133 -30.5t90 -44t55 -52t27.5 -54.5t7.5 -50.5v-5h-380q-3 4 -10 12t-21 16.5t-37 14.5t-57 6
q-52 0 -86.5 -13t-55 -33t-29 -44.5t-8.5 -46.5v-7q7 5 26.5 16t55.5 22.5t91.5 20t133.5 8.5h12q116 0 193 -15.5t123 -44t65 -68.5t19 -89v-9q0 -30 -6.5 -62.5t-26 -62.5t-56 -57t-96 -47t-146.5 -31.5t-208 -11.5h-47zM426 247q0 -13 6 -24t23.5 -19t48 -12.5t78.5 -4.5
q47 0 77 4.5t47 12.5t23 19t6 24v1q0 12 -6 22.5t-23 19t-47 13t-77 4.5q-48 0 -78.5 -4.5t-48 -13t-23.5 -19t-6 -22.5v-1z" />
    <glyph glyph-name="seven" unicode="7" horiz-adv-x="1049" 
d="M329 0v78q0 32 6 62.5t24 63t50.5 68.5t84.5 79q33 27 70 54.5t68 51.5t51 41.5t20 24.5h-329v-127h-351v348h1009v-185q-23 -27 -68.5 -80t-97.5 -126q-35 -50 -58.5 -94t-37.5 -86.5t-20 -84.5t-6 -88h-415z" />
    <glyph glyph-name="eight" unicode="8" horiz-adv-x="1117" 
d="M1093 555q0 -63 -50.5 -105t-141.5 -56q95 -14 152 -59t57 -114v-7q0 -26 -5.5 -53t-24 -52.5t-54 -48t-94.5 -39t-145.5 -26.5t-207.5 -10h-41q-122 0 -208.5 10t-145.5 26.5t-94 39t-53.5 48t-24 52.5t-5.5 53v7q0 35 15.5 64t43 51t66 36.5t84.5 21.5
q-90 14 -141.5 56t-51.5 105v6q0 23 6 46.5t24 45.5t52.5 41t92 33.5t140.5 23t200 8.5h43q117 0 200 -8.5t140 -23t91 -33.5t52 -41t23.5 -45.5t5.5 -46.5v-6zM696 526q0 9 -5 17t-20 13.5t-42 8.5t-71 3q-45 0 -72.5 -3t-41.5 -8.5t-18.5 -13.5t-4.5 -17v-3q0 -10 5 -18
t19.5 -14t41.5 -9t71 -3q43 0 70 3t42 9t20.5 14t5.5 18v3zM716 244q0 10 -7 19t-25 16t-48.5 10.5t-77.5 3.5t-77.5 -3.5t-48 -10.5t-24 -16t-6.5 -19v-3q0 -11 7 -20t24.5 -16t47.5 -11t77 -4t77.5 4t48.5 11t25 16t7 20v3z" />
    <glyph glyph-name="nine" unicode="9" horiz-adv-x="1137" 
d="M711 497q0 13 -6 24t-23.5 19t-48 12.5t-78.5 4.5q-46 0 -75.5 -4.5t-47 -12.5t-24 -19t-6.5 -24v-1q0 -12 6.5 -22.5t24 -19t47 -13t75.5 -4.5q48 0 78.5 4.5t48 13t23.5 19t6 22.5v1zM543 -15q-106 0 -184.5 11.5t-134 31t-90.5 44.5t-54.5 52t-27 54t-7.5 50v5h376
q3 -5 10 -13t22 -16t39 -14t60 -6q52 0 86 13.5t54.5 34t28.5 45t8 46.5v5q-7 -5 -25.5 -16.5t-53.5 -23t-88 -20t-129 -8.5h-12q-113 0 -191.5 17.5t-127.5 49t-71 75t-22 96.5v9q0 48 19 93t75 80.5t158 57t268 21.5h48q124 0 213 -18.5t149.5 -48.5t96.5 -68t55 -78.5
t25 -79.5t6 -70v-24q0 -31 -5 -71.5t-22.5 -83.5t-52 -84.5t-93.5 -74.5t-147 -53t-212 -20h-47z" />
    <glyph glyph-name="colon" unicode=":" horiz-adv-x="409" 
d="M384 283h-359v232h359v-232zM384 0h-359v232h359v-232z" />
    <glyph glyph-name="semicolon" unicode=";" horiz-adv-x="409" 
d="M384 283h-359v232h359v-232zM120 -135q8 13 16.5 30t16 35.5t12.5 36.5t6 33h-146v232h359v-186q0 -24 -8 -50.5t-19.5 -50.5t-25 -45t-25.5 -35h-186z" />
    <glyph glyph-name="less" unicode="&#x3c;" horiz-adv-x="553" 
d="M14 207v193l524 153v-181l-321 -70l321 -68v-181z" />
    <glyph glyph-name="equal" unicode="=" horiz-adv-x="595" 
d="M579 489v-163h-563v163h563zM579 292v-163h-563v163h563z" />
    <glyph glyph-name="greater" unicode="&#x3e;" horiz-adv-x="533" 
d="M15 234l309 68l-309 70v181l504 -153v-193l-504 -154v181z" />
    <glyph glyph-name="question" unicode="?" horiz-adv-x="1014" 
d="M284 265v50q0 26 2.5 49.5t16.5 43t43.5 34.5t82.5 26l133 26q42 8 59 16.5t17 21.5v1q0 7 -3.5 12.5t-15.5 9.5t-35 6t-62 2q-53 0 -83.5 -6.5t-45.5 -16.5t-18.5 -22.5t-4.5 -25.5h-365v12q0 22 3 49.5t17.5 55.5t44 54.5t83.5 47.5t135.5 33.5t199.5 12.5h48
q104 0 179.5 -9t128.5 -25t85 -37t50 -46t24 -51.5t6 -53.5v-9q0 -29 -8 -58.5t-29 -55.5t-57 -47t-91 -32l-135 -27q-27 -6 -37.5 -14.5t-10.5 -25.5v-1h-357zM643 0h-359v232h359v-232z" />
    <glyph glyph-name="at" unicode="@" horiz-adv-x="1341" 
d="M672 -149q-147 0 -253 19t-178.5 51.5t-117 75.5t-68 92t-31.5 101t-8 101v12q0 47 7 97.5t30 98.5t66 91.5t116.5 76.5t181 52t258.5 19h16q152 0 258 -18t176.5 -48t110.5 -69t60 -81.5t24.5 -85.5t4.5 -81v-11q0 -52 -14 -106.5t-52 -98.5t-105.5 -72.5t-174.5 -28.5
h-18q-65 0 -106 8.5t-66 20.5t-36.5 25t-17.5 23q-10 -8 -28.5 -21t-47 -25.5t-69 -21.5t-94.5 -9h-13q-87 0 -137.5 25t-75.5 62.5t-30 81t1 80.5l10 68q4 25 14.5 57.5t36.5 61.5t71.5 48.5t119.5 19.5h14q53 0 92 -8t67.5 -19.5t48 -25t31.5 -24.5l8 73h352l-46 -362
q-2 -14 2 -23t22 -9q46 0 79 52t33 156v2q0 32 -2.5 66t-17 66t-45 60.5t-86.5 49.5t-142.5 33.5t-211.5 12.5h-16q-118 0 -203 -14t-143 -38.5t-93.5 -57.5t-54.5 -70.5t-25 -78.5t-6 -81v-11q0 -36 5.5 -76t24 -78.5t53 -73t92.5 -60.5t143 -41.5t204 -15.5
q134 0 226 10.5t153 25t96.5 31t58.5 28.5l46 -94q-18 -10 -52.5 -26.5t-99.5 -32t-168.5 -26.5t-259.5 -11zM724 311q5 39 -6 60.5t-48 21.5q-17 0 -27.5 -6.5t-17 -17t-10 -24.5t-5.5 -28l-7 -38q-3 -17 -2.5 -33t5.5 -28.5t15.5 -20t28.5 -7.5q21 0 34 8.5t20.5 21
t10.5 27.5t5 29z" />
    <glyph glyph-name="A" unicode="A" horiz-adv-x="1228" 
d="M592 515l-89 -206h180zM780 89h-372l-39 -89h-384l351 744h534l373 -744h-424z" />
    <glyph glyph-name="B" unicode="B" horiz-adv-x="1180" 
d="M31 744h819q85 0 139.5 -14.5t86 -38t44 -53.5t12.5 -61v-6q0 -32 -12.5 -56.5t-33.5 -43t-47.5 -30.5t-54.5 -18q36 -6 70.5 -19t61.5 -36t43.5 -57.5t16.5 -84.5v-8q0 -44 -16.5 -83.5t-54.5 -69.5t-100.5 -47.5t-154.5 -17.5h-819v744zM411 551v-72h266q35 0 51 8
t16 28v2q0 21 -16 27.5t-51 6.5h-266zM411 292v-92h281q49 0 64.5 13t15.5 34v2q0 21 -15.5 32t-64.5 11h-281z" />
    <glyph glyph-name="C" unicode="C" horiz-adv-x="1198" 
d="M594 -15q-127 0 -219.5 17t-156.5 45.5t-104 66.5t-62 79.5t-29.5 84t-7.5 81.5v30q0 39 7.5 81.5t29 83.5t61 78.5t104 65.5t157 44.5t220.5 16.5h35q123 0 212 -16t151 -41.5t100 -59t58.5 -68.5t27.5 -69.5t7 -61.5v-15h-385q-2 6 -8 21.5t-26 31.5t-58 28.5
t-102 12.5t-103 -12.5t-60.5 -32.5t-29 -45t-7.5 -49v-12q0 -24 8 -50t29.5 -47.5t60.5 -35.5t102 -14q66 0 104 13.5t57.5 31t25.5 34t7 23.5h385v-26q0 -26 -7 -59.5t-27.5 -68.5t-58.5 -68.5t-99.5 -60t-151 -42.5t-212.5 -16h-35z" />
    <glyph glyph-name="D" unicode="D" horiz-adv-x="1199" 
d="M31 744h596q159 0 266.5 -28t172 -76t92 -112t27.5 -136v-31q0 -69 -23 -134.5t-84.5 -115.5t-170.5 -80.5t-280 -30.5h-596v744zM411 230h152q81 0 126.5 16t68.5 38.5t28.5 46.5t5.5 41v6q0 16 -6 39.5t-29 44.5t-69 36t-125 15h-152v-283z" />
    <glyph glyph-name="E" unicode="E" horiz-adv-x="955" 
d="M928 744v-208h-523v-58h517v-204h-517v-64h527v-210h-901v744h897z" />
    <glyph glyph-name="F" unicode="F" horiz-adv-x="934" 
d="M911 744v-208h-506v-60h498v-207h-498v-269h-374v744h880z" />
    <glyph glyph-name="G" unicode="G" horiz-adv-x="1231" 
d="M530 -15q-156 0 -256 34.5t-157.5 89t-79.5 121t-22 130.5v30q0 71 25 137.5t89.5 118t175 82.5t282.5 31h32q132 0 226 -14.5t158 -38t102 -54.5t58.5 -63.5t26.5 -65t6 -59.5v-1h-388q-2 7 -9.5 19t-28 23.5t-58 20t-99.5 8.5q-56 0 -95 -11.5t-64 -31.5t-36.5 -48
t-11.5 -62v-9q0 -35 11 -65.5t35.5 -53t63 -35.5t94.5 -13q55 0 91.5 7.5t58 18t30 21.5t8.5 19h-201v152h604v-423h-255q-5 16 -18 40t-27 38q-9 -8 -31.5 -23.5t-63 -31t-101.5 -27t-149 -11.5h-26z" />
    <glyph glyph-name="H" unicode="H" horiz-adv-x="1220" 
d="M31 744h380v-247h398v247h380v-744h-380v265h-398v-265h-380v744z" />
    <glyph glyph-name="I" unicode="I" horiz-adv-x="441" 
d="M410 0h-379v744h379v-744z" />
    <glyph glyph-name="J" unicode="J" horiz-adv-x="1047" 
d="M456 -11q-109 0 -184.5 19.5t-125.5 50.5t-78 70.5t-41.5 79.5t-16.5 76.5t-3 63.5v7h360q1 -9 4.5 -25.5t16 -33t39 -29t74.5 -12.5h2q43 0 70 12t41.5 31.5t19.5 43t5 47.5v354h381v-359q0 -39 -4.5 -83.5t-20.5 -88.5t-48 -84.5t-86.5 -71.5t-135.5 -49.5t-196 -18.5
h-73v0z" />
    <glyph glyph-name="K" unicode="K" horiz-adv-x="1196" 
d="M31 0v744h380v-264l338 264h462l-442 -334l444 -410h-496l-306 297v-297h-380z" />
    <glyph glyph-name="L" unicode="L" horiz-adv-x="948" 
d="M411 744v-479h516v-265h-896v744h380z" />
    <glyph glyph-name="M" unicode="M" horiz-adv-x="1397" 
d="M31 744h501l175 -331l182 331h477v-744h-378v368l-200 -368h-181l-199 368v-368h-377v744z" />
    <glyph glyph-name="N" unicode="N" horiz-adv-x="1221" 
d="M460 744l350 -338v338h380v-744h-387l-392 372v-372h-380v744h429z" />
    <glyph glyph-name="O" unicode="O" horiz-adv-x="1238" 
d="M644 759q126 0 217.5 -16.5t156 -44.5t104.5 -65.5t62.5 -78.5t30.5 -83.5t8 -81.5v-30q0 -38 -8 -80.5t-30.5 -84.5t-62.5 -79.5t-104.5 -66.5t-156.5 -46t-217 -17h-50q-125 0 -216.5 17t-156 46t-105 66.5t-63 79.5t-30.5 84.5t-8 80.5v30q0 39 8 81.5t30.5 83.5
t62.5 78.5t104.5 65.5t156 44.5t217.5 16.5h50zM831 383q0 24 -10.5 49t-35 45t-65.5 32.5t-102 12.5q-62 0 -103 -12.5t-65 -32.5t-34 -45t-10 -49v-12q0 -25 10.5 -51t35.5 -47.5t65.5 -35t100.5 -13.5q61 0 101.5 13t65.5 34t35.5 47t10.5 51v14z" />
    <glyph glyph-name="P" unicode="P" horiz-adv-x="1143" 
d="M411 203v-203h-380v744h739q108 0 178.5 -20t112 -54.5t58 -81t16.5 -98.5v-26q0 -52 -17 -99.5t-59 -83.5t-112.5 -57t-176.5 -21h-359zM411 428h266q39 0 53 14.5t14 33.5v2q0 20 -14 34t-53 14h-266v-98z" />
    <glyph glyph-name="Q" unicode="Q" horiz-adv-x="1238" 
d="M477 -11q-99 8 -171.5 29t-124 50t-84 65.5t-51 74.5t-25 77t-6.5 74v30q0 39 8 81.5t30.5 83.5t62.5 78.5t104.5 65.5t156 44.5t217.5 16.5h50q126 0 217.5 -16.5t156 -44.5t104.5 -65.5t62.5 -78.5t30.5 -83.5t8 -81.5v-30q0 -34 -6 -71t-22.5 -74t-46 -72t-76 -64.5
t-112.5 -51t-155 -32.5l151 -149h-479v144zM831 383q0 24 -10.5 49t-35 45t-65.5 32.5t-102 12.5q-62 0 -103 -12.5t-65 -32.5t-34 -45t-10 -49v-12q0 -25 10.5 -51t35.5 -47.5t65.5 -35t100.5 -13.5q61 0 101.5 13t65.5 34t35.5 47t10.5 51v14z" />
    <glyph glyph-name="R" unicode="R" horiz-adv-x="1170" 
d="M688 447q39 0 54 13.5t15 33.5q0 21 -15.5 34t-53.5 13h-277v-94h277zM411 0h-380v744h822q60 0 113.5 -8.5t93 -30t63 -58t23.5 -91.5v-9q0 -42 -17.5 -72t-43 -50.5t-56 -32.5t-55.5 -17q89 -17 132.5 -65.5t43.5 -121.5v-113q0 -28 3.5 -43t9.5 -26v-6h-391
q-4 4 -4.5 9.5t-0.5 13.5v90q0 57 -32 91t-112 34h-212v-238z" />
    <glyph glyph-name="S" unicode="S" horiz-adv-x="1142" 
d="M496 -15q-113 0 -193 12.5t-135 33.5t-87.5 48t-49.5 56t-22 57.5t-5 52.5v8h445q0 -12 4 -26t16 -26t35.5 -20t62.5 -8q33 0 55 4.5t35 11.5t18.5 16.5t5.5 19.5v3q0 9 -3.5 18t-17.5 16t-41.5 12t-75.5 7l-157 5q-115 4 -187 25t-112.5 53t-55.5 73t-15 85v9
q0 52 23 94t78 71.5t145.5 45t225.5 15.5h127q150 0 245.5 -18.5t150 -50.5t75.5 -74.5t21 -90.5v-5h-436q-1 9 -5 19.5t-16 19.5t-34 15t-59 6q-34 0 -55 -2.5t-33 -7.5t-16 -12.5t-4 -16.5v-2q0 -11 6.5 -18.5t22.5 -13t44 -9t71 -4.5l150 -4q109 -3 183.5 -18t121 -43
t67 -69.5t20.5 -98.5v-14q0 -50 -20 -96.5t-75.5 -83t-154.5 -58.5t-258 -22h-131v0z" />
    <glyph glyph-name="T" unicode="T" horiz-adv-x="1062" 
d="M341 488h-321v256h1022v-256h-321v-488h-380v488z" />
    <glyph glyph-name="U" unicode="U" horiz-adv-x="1202" 
d="M24 744h382v-306q0 -31 8 -61.5t29.5 -55t59 -39.5t97.5 -15h2q58 0 96 15t59.5 39.5t30 55t8.5 61.5v306h382v-345q0 -37 -6.5 -82t-26.5 -91t-57.5 -89t-99 -76.5t-150.5 -53.5t-213 -20h-50q-124 0 -213 20t-150.5 53.5t-98 76.5t-56.5 89t-26.5 91t-6.5 82v345z" />
    <glyph glyph-name="V" unicode="V" horiz-adv-x="1196" 
d="M340 0l-354 744h431l205 -459l194 459h394l-327 -744h-543z" />
    <glyph glyph-name="W" unicode="W" horiz-adv-x="1750" 
d="M247 0l-260 744h436l125 -439l117 439h455l115 -447l118 447h410l-267 -744h-509l-111 413l-114 -413h-515z" />
    <glyph glyph-name="X" unicode="X" horiz-adv-x="1215" 
d="M-14 0l287 393l-269 351h460l151 -221l151 221h432l-253 -352l284 -392h-457l-169 232l-170 -232h-447z" />
    <glyph glyph-name="Y" unicode="Y" horiz-adv-x="1192" 
d="M408 264l-425 480h438l191 -224l194 224h403l-421 -485v-259h-380v264z" />
    <glyph glyph-name="Z" unicode="Z" horiz-adv-x="1033" 
d="M1011 744v-179l-443 -311h446v-254h-995v181l431 322h-428v241h989z" />
    <glyph glyph-name="bracketleft" unicode="[" horiz-adv-x="420" 
d="M30 808h377v-133h-121v-673h121v-133h-377v939z" />
    <glyph glyph-name="backslash" unicode="\" horiz-adv-x="531" 
d="M-14 808h264l320 -939h-260z" />
    <glyph glyph-name="bracketright" unicode="]" horiz-adv-x="420" 
d="M13 2h121v673h-121v133h377v-939h-377v133z" />
    <glyph glyph-name="asciicircum" unicode="^" horiz-adv-x="805" 
d="M395 563l-101 -146h-294l233 327h338l234 -327h-313z" />
    <glyph glyph-name="underscore" unicode="_" horiz-adv-x="898" 
d="M-2 -21h902v-163h-902v163z" />
    <glyph glyph-name="grave" unicode="`" 
d="M258 569l-119 175h342l85 -175h-308z" />
    <glyph glyph-name="a" unicode="a" horiz-adv-x="933" 
d="M519 251l-116 -31q-19 -5 -29 -13.5t-10 -24.5v-1q0 -14 12.5 -29t47.5 -15q47 0 71 23t24 55v36zM522 68q-10 -9 -30.5 -22.5t-52 -26t-75.5 -21t-101 -8.5h-6q-68 0 -114.5 14.5t-76 38.5t-42.5 54t-13 61v20q0 28 9 52.5t32 44t62 32.5t99 18l283 23q15 2 19.5 8
t4.5 14v1q0 13 -14 23.5t-60 10.5h-2q-30 0 -46 -5t-24 -12t-10 -14.5t-2 -12.5h-338v12q0 18 3.5 38.5t16.5 40.5t38 38t68.5 31.5t107.5 21.5t156 8h57q96 0 163.5 -8.5t113.5 -22.5t72 -32t40 -37t17.5 -38t3.5 -35v-184q0 -17 14 -17h31v-177h-313q-42 0 -64 19t-27 49z
" />
    <glyph glyph-name="b" unicode="b" horiz-adv-x="978" 
d="M391 744v-276q6 6 24.5 18t49 24.5t74 22t100.5 9.5h26q91 0 150 -23t93 -60t47 -83t13 -91v-25q0 -47 -14 -94t-50 -85t-98 -61.5t-157 -23.5h-27q-52 0 -92 8t-70 18.5t-49 22t-29 17.5q-3 -11 -6.5 -29.5t-5.5 -32.5h-343v744h364zM391 267q0 -20 6.5 -39t19.5 -33.5
t33 -23.5t46 -9h5q28 0 47 9t30.5 24t16.5 34t5 38v4q0 19 -5 38t-16 34t-30 24t-47 9h-6q-27 0 -47 -9t-33 -23.5t-19 -33.5t-6 -39v-4z" />
    <glyph glyph-name="c" unicode="c" horiz-adv-x="959" 
d="M450 -15q-105 0 -178 14t-122 37t-76 52.5t-41 60.5t-17 61.5t-3 54.5v14q0 24 3 53.5t16.5 60t41 59.5t76 51.5t121.5 36t178 13.5h72q100 0 171 -13t118.5 -34.5t75 -48.5t41.5 -55t18 -53.5t4 -44.5v-3h-369q0 7 -3.5 21t-13.5 28t-28.5 25t-49.5 11h-5
q-32 0 -51.5 -10t-30 -26t-13.5 -35.5t-3 -37.5v-1q0 -20 3 -41.5t13.5 -39t30 -29t51.5 -11.5h5q31 0 49.5 12t28.5 27.5t13.5 30.5t3.5 22h369v-3q0 -17 -3 -43t-16.5 -54.5t-40.5 -57.5t-74.5 -52t-119.5 -37.5t-175 -14.5h-70z" />
    <glyph glyph-name="d" unicode="d" horiz-adv-x="977" 
d="M586 279q0 15 -5 32t-17 31t-32 23.5t-50 9.5h-4q-29 0 -47.5 -9.5t-29.5 -24t-15 -31.5t-4 -33v-5q0 -18 4 -36.5t15 -33.5t29 -25t47 -10h4q30 0 50.5 9.5t32.5 24.5t17 33.5t5 36.5v8zM950 744v-744h-364v71q-9 -8 -26 -21t-46.5 -25t-72 -20.5t-102.5 -8.5h-25
q-84 0 -141 23t-92.5 60t-51 84.5t-15.5 95.5v25q0 46 15 92t49.5 83t90.5 60t139 23h25q59 0 103 -7.5t74.5 -18t48.5 -21t27 -16.5v265h364z" />
    <glyph glyph-name="e" unicode="e" horiz-adv-x="960" 
d="M589 347q-2 12 -8 23t-18 19.5t-32 13t-50 4.5q-32 0 -52 -5t-32 -13.5t-17 -19t-7 -22.5h216zM949 204q0 -19 -5 -43t-21 -48.5t-46 -47.5t-80 -40.5t-123 -28.5t-175 -11h-45q-103 0 -176 14t-122 37t-77.5 52.5t-43 61t-18.5 62t-4 55.5v14q0 25 4 55t19 60t43.5 58.5
t77.5 50.5t122 35t176 13h44q105 0 179.5 -13.5t124.5 -36.5t79 -53t44 -63.5t19 -68t4 -65.5v-14h-577q1 -15 6.5 -30.5t17.5 -28.5t33 -21t54 -8q36 0 56.5 7t31.5 16.5t14.5 18.5t4.5 13h359v-2z" />
    <glyph glyph-name="f" unicode="f" horiz-adv-x="610" 
d="M594 578h-79q-17 0 -22 -7t-5 -22v-11h106v-198h-106v-340h-365v340h-112v198h112v32q0 89 51 131.5t165 42.5h255v-166z" />
    <glyph glyph-name="g" unicode="g" horiz-adv-x="991" 
d="M482 367q-29 0 -48.5 -7.5t-31.5 -19.5t-17.5 -27.5t-5.5 -31.5v-3q0 -17 5.5 -34t17.5 -30.5t31.5 -21.5t48.5 -8h5q30 0 51 8t35 21.5t20.5 30t6.5 34.5v3q0 16 -6.5 31.5t-20.5 27.5t-35 19.5t-51 7.5h-5zM445 -196q-124 0 -202 19t-121.5 47.5t-59 62t-15.5 63.5v4
h364q1 -5 4.5 -10.5t11.5 -11t23 -9t39 -3.5h3q51 0 79.5 25.5t28.5 76.5v32q-9 -9 -26 -22.5t-47 -26.5t-76 -22t-113 -9h-23q-89 0 -147 23.5t-92.5 60t-48 82t-13.5 90.5v12q0 45 14.5 90t49.5 81.5t93 59t146 22.5h24q63 0 107.5 -7.5t74.5 -18t48 -21.5t29 -18v62h364
v-464q0 -48 -18 -96.5t-66 -87t-131.5 -62.5t-214.5 -24h-89z" />
    <glyph glyph-name="h" unicode="h" horiz-adv-x="988" 
d="M27 744h364v-307q9 9 31 27.5t58.5 37.5t88.5 33.5t120 14.5h5q85 0 137.5 -22.5t81.5 -54t38.5 -64.5t9.5 -53v-356h-364v241q0 19 -4.5 38t-16 33t-31.5 23t-51 9q-29 0 -48.5 -8.5t-31.5 -23t-17.5 -33t-5.5 -37.5v-242h-364v744z" />
    <glyph glyph-name="i" unicode="i" horiz-adv-x="418" 
d="M391 569h-364v175h364v-175zM391 0h-364v538h364v-538z" />
    <glyph glyph-name="j" unicode="j" horiz-adv-x="418" 
d="M391 569h-364v175h364v-175zM-6 -20q21 0 27 6t6 29v523h364v-562q0 -49 -11 -80.5t-29.5 -50t-42 -26t-48.5 -7.5h-293v168h27z" />
    <glyph glyph-name="k" unicode="k" horiz-adv-x="915" 
d="M27 0v744h364v-401l119 195h382l-151 -224l185 -314h-400l-135 229v-229h-364z" />
    <glyph glyph-name="l" unicode="l" horiz-adv-x="418" 
d="M391 0h-364v744h364v-744z" />
    <glyph glyph-name="m" unicode="m" horiz-adv-x="1505" 
d="M27 0v538h364v-101q10 9 31.5 28t56 38t84 33t114.5 14h4q54 0 94 -10.5t68 -28t46 -39t28 -42.5q16 16 43 37t65 39.5t87.5 31t109.5 12.5h3q81 0 131 -23t77 -54.5t36 -64.5t9 -52v-356h-364v244q0 19 -4 37.5t-14 32t-27 22t-44 8.5q-25 0 -42 -8.5t-27.5 -22
t-15.5 -31.5t-5 -37v-245h-364v244q0 19 -4 37.5t-14 32t-27 22t-44 8.5q-24 0 -41.5 -8.5t-28.5 -22t-16 -31.5t-5 -37v-245h-364z" />
    <glyph glyph-name="n" unicode="n" horiz-adv-x="988" 
d="M27 538h364v-101q9 9 31 27.5t58.5 37.5t88.5 33.5t120 14.5h5q85 0 137.5 -22.5t81.5 -54t38.5 -64.5t9.5 -53v-356h-364v241q0 19 -4.5 38t-16 33t-31.5 23t-51 9q-29 0 -48.5 -8.5t-31.5 -23t-17.5 -33t-5.5 -37.5v-242h-364v538z" />
    <glyph glyph-name="o" unicode="o" horiz-adv-x="1005" 
d="M462 -15q-102 0 -175.5 14t-123.5 37t-79.5 52.5t-45 60.5t-20.5 61.5t-5 54.5v14q0 24 5 53.5t20.5 60t45.5 59.5t79.5 51.5t122.5 36t175 13.5h84q104 0 178 -13.5t123.5 -36t78.5 -51.5t44 -59t19 -59.5t4 -53.5v-16q0 -24 -4.5 -54t-19.5 -61t-44 -60.5t-79 -52.5
t-124 -37t-178 -14h-81zM504 154q37 0 60 12.5t36 30.5t18 39.5t5 39.5q0 16 -4.5 35t-17.5 35.5t-36.5 27.5t-60.5 11h-3q-37 0 -60 -11t-36 -27.5t-18 -35.5t-5 -35q0 -18 4.5 -39.5t17.5 -40t36 -30.5t61 -12h3z" />
    <glyph glyph-name="p" unicode="p" horiz-adv-x="982" 
d="M391 266q0 -17 5.5 -35t18 -34t33 -26t50.5 -10h6q28 0 46 10t29 25.5t15.5 34t4.5 34.5v4q0 18 -4.5 36.5t-15.5 34t-29 25.5t-46 10h-6q-30 0 -50.5 -9.5t-33 -24.5t-18 -33.5t-5.5 -37.5v-4zM391 538v-71q7 6 25 18t48.5 25t72.5 22.5t97 9.5h27q95 0 155 -23.5
t93.5 -60t46 -80.5t12.5 -85v-25q0 -45 -14 -93.5t-49.5 -88t-97 -65t-157.5 -25.5h-26q-51 0 -90.5 6.5t-69 15t-48 17t-25.5 12.5v-235h-364v726h364z" />
    <glyph glyph-name="q" unicode="q" horiz-adv-x="976" 
d="M950 538v-726h-365v260q-12 -9 -32.5 -22t-51.5 -25t-73 -20t-96 -8h-27q-85 0 -141 25t-89.5 63t-47 84.5t-13.5 90.5v25q0 44 14 89.5t47.5 82.5t89.5 60.5t140 23.5h27q61 0 106 -9t76 -21t50 -24.5t28 -19.5q2 4 4.5 13.5t5 20t4.5 20.5t2 17h342zM585 279
q0 16 -5 33t-17 31t-32 23t-50 9h-5q-28 0 -46 -9t-28.5 -23t-15 -31.5t-4.5 -34.5v-5q0 -18 4.5 -36.5t15 -33.5t28.5 -25t45 -10h5q30 0 50.5 9.5t32.5 24.5t17 33.5t5 36.5v8z" />
    <glyph glyph-name="r" unicode="r" horiz-adv-x="896" 
d="M391 0h-364v538h362v-106q10 12 30 32t49.5 39t69.5 33t91 14h12q82 0 130.5 -26.5t73 -63.5t31.5 -77t7 -66v-99h-358v54q0 32 -14.5 54t-49.5 22q-32 0 -51 -21t-19 -70v-257z" />
    <glyph glyph-name="s" unicode="s" horiz-adv-x="881" 
d="M389 -15q-86 0 -147.5 9t-104.5 24.5t-69 35t-40.5 41t-19 42.5t-4.5 39v8h367q1 -18 13 -35t47 -17h2q32 0 44.5 10.5t12.5 24.5v1q0 17 -14.5 26t-59.5 11l-147 6q-79 4 -129 19.5t-78 38.5t-38.5 52.5t-10.5 60.5v7q0 37 16.5 67.5t59 52t115.5 33t186 11.5h78
q120 0 194.5 -13t116.5 -35t57 -51.5t15 -62.5v-9h-357q0 5 -1.5 12t-7.5 13t-18 10.5t-33 4.5h-2q-38 0 -49 -7.5t-11 -21.5q0 -6 3 -11.5t11 -10t23 -7.5t38 -4l147 -6q87 -4 141 -17t85 -35t42 -53t11 -71v-9q0 -36 -14 -69.5t-56.5 -59t-122 -40.5t-210.5 -15h-81v0z
" />
    <glyph glyph-name="t" unicode="t" horiz-adv-x="590" 
d="M271 0q-32 0 -60.5 7t-51 25t-35.5 47.5t-13 74.5v186h-100v198h100v157h364v-157h97v-198h-97v-89q0 -30 8 -39.5t39 -9.5h50v-202h-301z" />
    <glyph glyph-name="u" unicode="u" horiz-adv-x="981" 
d="M954 0h-364v101q-9 -10 -30.5 -29t-57.5 -37.5t-87 -32.5t-120 -14h-6q-85 0 -136.5 23t-79.5 55t-37 66t-9 56v350h364v-241q0 -18 4 -36.5t14.5 -33t30 -24t50.5 -9.5q28 0 47 9t31 24t17 33t5 36v242h364v-538z" />
    <glyph glyph-name="v" unicode="v" horiz-adv-x="939" 
d="M-11 538h389l99 -322l91 322h382l-209 -538h-532z" />
    <glyph glyph-name="w" unicode="w" horiz-adv-x="1366" 
d="M182 0l-192 538h379l73 -321l69 321h367l67 -318l71 318h360l-184 -538h-435l-62 258l-62 -258h-451z" />
    <glyph glyph-name="x" unicode="x" horiz-adv-x="957" 
d="M-7 0l184 284l-188 254h397l91 -144l78 144h392l-174 -250l195 -288h-401l-91 162l-95 -162h-388z" />
    <glyph glyph-name="y" unicode="y" horiz-adv-x="911" 
d="M118 -11h115q14 0 19 5.5t5 12.5v1q0 9 -5.5 20.5t-13.5 28.5l-249 481h386l105 -305l84 305h358l-215 -535q-41 -102 -95.5 -146.5t-129.5 -44.5h-364v177z" />
    <glyph glyph-name="z" unicode="z" horiz-adv-x="806" 
d="M18 0v177l336 176h-337v185h771v-177l-328 -165h328v-196h-770z" />
    <glyph glyph-name="braceleft" unicode="{" horiz-adv-x="447" 
d="M221 -131q-90 0 -138 27t-48 87q0 31 13.5 67.5t30 72t30 66.5t13.5 50q0 38 -41 38h-76v128h76q23 0 32 8t9 22q0 21 -13.5 51.5t-30 65t-30 70t-13.5 65.5q0 59 44.5 90t141.5 31h213v-133h-99q-23 0 -34.5 -6.5t-11.5 -23.5q0 -14 10.5 -38.5t22.5 -53t22.5 -57.5
t10.5 -51q0 -42 -27.5 -66.5t-96.5 -36.5q69 -11 96.5 -33t27.5 -57q0 -24 -10.5 -55t-22.5 -61t-22.5 -55.5t-10.5 -38.5q0 -40 54 -40h91v-133h-213z" />
    <glyph glyph-name="bar" unicode="|" horiz-adv-x="351" 
d="M294 -131h-237v939h237v-939z" />
    <glyph glyph-name="braceright" unicode="}" horiz-adv-x="447" 
d="M13 2h91q53 0 53 40q0 13 -10 38.5t-22.5 55.5t-22.5 61t-10 55q0 35 27 57t96 33q-69 12 -96 36.5t-27 66.5q0 22 10 51t22.5 57.5t22.5 53t10 38.5q0 17 -11.5 23.5t-34.5 6.5h-98v133h213q97 0 140.5 -31t43.5 -90q0 -30 -13.5 -65.5t-29 -70t-29 -65t-13.5 -51.5
q0 -14 9 -22t32 -8h76v-128h-76q-23 0 -32 -9t-9 -29q0 -19 13.5 -50t29 -66.5t29 -72t13.5 -67.5q0 -60 -46.5 -87t-137.5 -27h-213v133z" />
    <glyph glyph-name="asciitilde" unicode="~" horiz-adv-x="737" 
d="M538 214q-33 0 -59 5t-49.5 13.5t-44.5 20.5t-43 26q-29 18 -43.5 27.5t-25.5 9.5q-16 0 -16 -23v-90h-242v183q0 30 8.5 62.5t29.5 59.5t56 44.5t87 17.5q32 0 58.5 -4t49.5 -12t44.5 -19.5t44.5 -25.5q29 -18 43.5 -26.5t24.5 -8.5q11 0 14.5 7t3.5 22v82h243v-208
q0 -28 -9.5 -57t-31 -52.5t-56.5 -38.5t-87 -15z" />
    <glyph glyph-name="exclamdown" unicode="&#xa1;" horiz-adv-x="436" 
d="M-35.7871 -205.955l134.213 477.972h227.36l134.212 -477.972h-495.785zM32.3203 538h359.57v-231.986h-359.57v231.986z" />
    <glyph glyph-name="cent" unicode="&#xa2;" horiz-adv-x="984" 
d="M382 276q0 -17 2 -34.5t8.5 -33.5t19 -28.5t32.5 -19.5v221q-20 -6 -32.5 -17t-19 -25.5t-8.5 -30.5t-2 -31v-1zM444 -77v62q-104 1 -176 15.5t-120 38t-75 52.5t-40.5 60t-16.5 60.5t-3 53.5v14q0 23 3 52.5t16.5 59.5t40.5 58.5t75 51t120 37t176 15.5v60h105v-60
q100 -1 170 -14.5t117.5 -35t75 -48.5t41 -54.5t17.5 -53t4 -43.5v-3h-369q0 6 -2 16.5t-8 22t-17 22.5t-29 18v-218q18 8 29 20t17 24.5t8 23.5t2 17h369v-3q0 -17 -3 -42t-16 -53.5t-40 -57t-74 -52t-118.5 -38.5t-173.5 -16v-62h-105z" />
    <glyph glyph-name="sterling" unicode="&#xa3;" horiz-adv-x="1059" 
d="M1041 0h-1028v181h69q46 0 70 14t24 46v2q0 28 -8 65h-155v126h124q-5 23 -8.5 45t-3.5 42v7q0 38 13.5 78t57.5 72.5t127 53.5t222 21h40q98 0 169 -11t119.5 -30t78 -45t45.5 -55.5t21 -62t5 -64.5v-11h-366q-1 12 -3.5 26t-10.5 26t-25 20.5t-47 8.5q-52 0 -69 -21.5
t-17 -60.5q0 -8 0.5 -18t1.5 -21h360v-126h-347v-14q0 -23 -7.5 -40.5t-20.5 -31t-29.5 -23.5t-34.5 -18h242v85h391v-266z" />
    <glyph glyph-name="yen" unicode="&#xa5;" horiz-adv-x="1145" 
d="M388 165h-240v89h240v35h-240v87h176l-341 368h426l182 -217l186 217h385l-332 -368h178v-87h-240v-35h240v-89h-240v-165h-380v165z" />
    <glyph glyph-name="brokenbar" unicode="&#xa6;" horiz-adv-x="351" 
d="M294 378h-237v430h237v-430zM294 -131h-237v464h237v-464z" />
    <glyph glyph-name="section" unicode="&#xa7;" horiz-adv-x="1041" 
d="M455 -208q-93 0 -159 9.5t-111 26t-71.5 38.5t-41 47t-18.5 52t-4 54v7h346q1 -9 3.5 -22t12.5 -25.5t31.5 -21t59.5 -8.5q46 0 66.5 10.5t20.5 29.5v2q0 11 -4.5 19t-18 15t-37 12.5t-62.5 10.5l-220 30q-69 9 -115 27.5t-74 42.5t-40 53t-12 61v10q0 33 12.5 60t35 47
t54 33t68.5 20q-98 47 -98 140v10q0 39 19.5 71t66.5 55t126.5 36t198.5 13h84q93 0 158.5 -8.5t109.5 -23t69.5 -34.5t38 -43.5t16 -49.5t3.5 -53v-4h-340q-1 9 -3.5 20t-12 20.5t-30 16.5t-57.5 7h-6q-52 0 -69.5 -7.5t-17.5 -22.5v-3q0 -7 4 -13.5t14.5 -12t28.5 -10.5
t46 -9l302 -46q62 -9 102 -25.5t63 -38t32 -48.5t9 -58v-11q0 -36 -17 -62t-43 -43t-56.5 -27.5t-56.5 -14.5q18 -7 34.5 -19t30 -30.5t21.5 -43t8 -57.5v-7q0 -37 -16.5 -73.5t-62 -65.5t-127.5 -47t-214 -18h-80zM677 218q6 3 13 11t7 21q0 10 -3 18.5t-13.5 16.5
t-31 15.5t-56.5 13.5q-23 4 -55.5 10t-67 12t-66.5 12t-55 10q-7 -2 -16 -10.5t-9 -22.5q0 -9 3 -18t14.5 -17.5t33 -16.5t58.5 -14z" />
    <glyph glyph-name="dieresis" unicode="&#xa8;" 
d="M652 569h-281v175h281v-175zM333 569h-280v175h280v-175z" />
    <glyph glyph-name="copyright" unicode="&#xa9;" horiz-adv-x="1223" 
d="M607 -15q-177 0 -292 31.5t-181.5 84t-92.5 120t-26 138.5v28q0 47 11 93t37 87t69.5 76.5t109 61t155 40t207.5 14.5h13q178 0 292.5 -32t181 -84.5t92 -119.5t25.5 -136v-28q0 -48 -11 -94.5t-37.5 -88t-70.5 -76.5t-109.5 -60.5t-156 -40t-208.5 -14.5h-8zM168 359
q0 -61 20 -111.5t70 -86.5t134 -56t212 -21h13q128 1 212.5 20.5t134.5 55.5t70.5 86.5t20.5 112.5v28q0 61 -20.5 111t-70.5 86t-134.5 56t-212.5 20h-13q-127 0 -211 -20t-134 -56t-70.5 -86t-20.5 -111v-28zM622 147q-121 0 -195 20t-114 51t-53 68.5t-13 72.5v34
q0 35 13.5 72t53 67t113 49t193.5 19h9q113 0 182.5 -19t108 -47t52 -60.5t13.5 -58.5v-12h-283q-1 4 -4 11t-12 14t-25 12.5t-43 5.5q-48 0 -65.5 -20t-17.5 -45v-4q0 -14 3.5 -27t13 -23.5t25.5 -16.5t41 -6q27 0 43 6t25 14.5t12 16.5t4 12h283v-16q0 -27 -12 -60
t-49.5 -62t-106 -48.5t-182.5 -19.5h-13z" />
    <glyph glyph-name="ordfeminine" unicode="&#xaa;" horiz-adv-x="686" 
d="M310 481q31 0 48 15.5t17 36.5v20l-76 -20q-14 -4 -21.5 -9.5t-7.5 -16.5v-1q0 -10 8.5 -17.5t31.5 -7.5zM378 429q-9 -6 -24 -14.5t-37.5 -17t-53.5 -14t-73 -5.5h-5q-53 0 -87.5 10t-55 26t-29 36t-8.5 40v12q0 19 8 35t27 28.5t51 21t80 12.5l179 14q17 2 21 7t4 11v1
q0 8 -9.5 15.5t-39.5 7.5h-1q-20 0 -30.5 -3.5t-16 -8t-6.5 -9.5t-1 -8h-256v8q0 15 6 35.5t34 38.5t86.5 30.5t163.5 12.5h38q105 0 165 -12t89.5 -29.5t36.5 -37t7 -35.5v-115q0 -12 10 -12h26v-124h-240q-50 0 -59 43z" />
    <glyph glyph-name="guillemotleft" unicode="&#xab;" horiz-adv-x="627" 
d="M351 107h-231l-114 179l114 175h230l-109 -175zM618 107h-231l-110 179l111 175h230l-103 -175z" />
    <glyph glyph-name="registered" unicode="&#xae;" horiz-adv-x="714" 
d="M376 759q102 0 165.5 -19.5t98.5 -49.5t47.5 -67t12.5 -71v-14q0 -37 -13 -74t-49 -67t-99 -49t-163 -19h-37q-101 0 -164 19t-99 49t-49 67t-13 74v14q0 34 12 71t47.5 67t99 49.5t166.5 19.5h37zM361 393q90 0 140 14.5t74 36.5t29.5 49t5.5 52t-5.5 52t-30.5 48.5
t-75 35.5t-138 14h-6q-89 0 -139.5 -13.5t-75.5 -35.5t-30.5 -48.5t-5.5 -52.5q0 -24 5 -51t29.5 -49.5t75 -37t141.5 -14.5h6zM372 565q13 0 17.5 5t4.5 13t-4.5 12.5t-17.5 4.5h-37v-35h37zM335 437h-149v218h252q34 0 54.5 -5t32 -13t15.5 -18.5t4 -22.5v-1
q0 -23 -18.5 -35t-41.5 -15q60 -9 60 -56v-27q0 -9 1.5 -13.5t3.5 -7.5v-4h-153q-2 4 -2 10v27q0 17 -5.5 25.5t-29.5 8.5h-24v-71z" />
    <glyph glyph-name="macron" unicode="&#xaf;" 
d="M98 719h509v-142h-509v142z" />
    <glyph glyph-name="degree" unicode="&#xb0;" horiz-adv-x="468" 
d="M234 335q-47 0 -88 15t-71 42.5t-47 66.5t-17 86t17 86t47 66.5t71 42.5t88 15t88 -15t71 -42.5t47 -66.5t17 -86t-17 -86t-47 -66.5t-71 -42.5t-88 -15zM234 472q34 0 54.5 20.5t20.5 52.5t-20.5 52.5t-54.5 20.5q-33 0 -54 -20.5t-21 -52.5t21 -52.5t54 -20.5z" />
    <glyph glyph-name="two.sup" unicode="&#xb2;" horiz-adv-x="631" 
d="M12 376v56q0 29 6.5 54t34.5 46.5t85.5 39t159.5 32.5q24 3 38.5 6.5t22 7t10 7t2.5 8.5v1q0 8 -9.5 14t-44.5 6q-20 0 -31.5 -4t-17.5 -9t-8 -11t-2 -10h-241v3q0 17 6 39.5t34.5 43t87.5 35t164 14.5h18q93 0 150.5 -9.5t90 -25.5t44 -37.5t11.5 -45.5v-5
q0 -24 -11.5 -43t-42.5 -32.5t-86 -22.5t-143 -15q-66 -5 -96 -10t-38 -12h414v-121h-608z" />
    <glyph glyph-name="three.sup" unicode="&#xb3;" horiz-adv-x="649" 
d="M298 364q-98 0 -156 15t-88 37t-39 45.5t-9 41.5v5h238q0 -3 2.5 -7.5t10 -9.5t20.5 -8.5t34 -3.5q44 0 57 6.5t13 16.5v1q0 9 -8 13.5t-31 4.5h-94v94h91q20 0 27 4t7 11v1q0 8 -11 14.5t-51 6.5q-22 0 -34.5 -3t-19 -7t-8.5 -8t-2 -6h-234v6q0 5 1.5 15.5t9.5 24t25 28
t48 26.5t77.5 19.5t114.5 7.5h40q97 0 154.5 -7.5t88 -20t39.5 -29t9 -33.5v-5q0 -17 -8 -29.5t-21 -20.5t-29 -12.5t-32 -6.5q23 -3 43.5 -10t36 -18.5t24.5 -28t9 -38.5v-3q0 -23 -9 -45.5t-41.5 -41.5t-94 -30.5t-166.5 -11.5h-34z" />
    <glyph glyph-name="acute" unicode="&#xb4;" 
d="M224 744h342l-119 -175h-308z" />
    <glyph glyph-name="paragraph" unicode="&#xb6;" horiz-adv-x="875" 
d="M345 292h-63q-77 0 -129.5 18t-85 48t-47 69.5t-14.5 83.5v21q0 43 12 81.5t43 67.5t84 46t135 17h588v-152h-74v-592h-178v592h-93v-592h-178v292z" />
    <glyph glyph-name="periodcentered" unicode="&#xb7;" horiz-adv-x="407" 
d="M383 240h-359v232h359v-232z" />
    <glyph glyph-name="cedilla" unicode="&#xb8;" 
d="M146 -165h114q17 0 22.5 5.5t5.5 15.5q0 9 -5.5 14.5t-22.5 5.5h-70v124h159v-46q66 0 107 -8t64 -22t31 -33t8 -42v-2q0 -23 -8.5 -43t-31.5 -34.5t-64 -23t-107 -8.5h-202v97z" />
    <glyph glyph-name="one.sup" unicode="&#xb9;" horiz-adv-x="411" 
d="M14 566v114q43 1 70 6.5t43 14.5t24.5 20.5t13.5 22.5h221v-368h-262v190h-110z" />
    <glyph glyph-name="ordmasculine" unicode="&#xba;" horiz-adv-x="700" 
d="M323 376q-72 0 -123 9t-86 24t-55.5 34.5t-31.5 40t-14.5 40.5t-3.5 37v9q0 25 9 56t41 59t94 47t169 19h57q73 0 124.5 -9t86 -23.5t55 -33.5t30.5 -39t13 -40t3 -36v-9q0 -25 -8 -57t-39.5 -60.5t-94.5 -48t-172 -19.5h-54zM351 494q22 0 35.5 7t21.5 18t11 23.5
t3 23.5t-3 23t-11 22t-21.5 16.5t-35.5 6.5h-2q-22 0 -35.5 -6.5t-21.5 -16.5t-11 -22t-3 -23t2.5 -24t10.5 -23.5t21.5 -17.5t36.5 -7h2z" />
    <glyph glyph-name="guillemotright" unicode="&#xbb;" horiz-adv-x="627" 
d="M9 461h231l110 -175l-109 -179h-232l103 179zM276 107l111 179l-110 175h231l113 -175l-113 -179h-232z" />
    <glyph glyph-name="onequarter" unicode="&#xbc;" horiz-adv-x="1150" 
d="M14 566v114q43 1 70 6.5t43 14.5t24.5 20.5t13.5 22.5h221v-368h-262v190h-110zM1112 744l-894 -744h-232l887 744h239zM813 368h262v-168h67v-121h-67v-79h-253v79h-287v117zM822 200v77l-127 -77h127z" />
    <glyph glyph-name="onehalf" unicode="&#xbd;" horiz-adv-x="1237" 
d="M1111 744l-894 -744h-232l887 744h239zM14 566v114q43 1 70 6.5t43 14.5t24.5 20.5t13.5 22.5h221v-368h-262v190h-110zM618 0v56q0 29 6.5 54t34.5 46.5t85.5 39t159.5 32.5q24 3 38.5 6.5t22 7t10 7t2.5 8.5v1q0 8 -9.5 14t-44.5 6q-20 0 -31.5 -4t-17.5 -9t-8 -11
t-2 -10h-241v3q0 17 6 39.5t34.5 43t87.5 35t164 14.5h18q93 0 150.5 -9.5t90 -25.5t44 -37.5t11.5 -45.5v-5q0 -24 -11.5 -43t-42.5 -32.5t-86 -22.5t-143 -15q-66 -5 -96 -10t-38 -12h414v-121h-608z" />
    <glyph glyph-name="threequarters" unicode="&#xbe;" horiz-adv-x="1330" 
d="M298 365q-98 0 -156 15t-88 37t-39 45.5t-9 41.5v5h238q0 -3 2.5 -7.5t10 -9.5t20.5 -8.5t34 -3.5q44 0 57 6.5t13 16.5v1q0 9 -8 13.5t-31 4.5h-94v94h91q20 0 27 4t7 11v1q0 8 -11 14.5t-51 6.5q-22 0 -34.5 -3t-19 -7t-8.5 -8t-2 -6h-234v6q0 5 1.5 15.5t9.5 24t25 28
t48 26.5t77.5 19.5t114.5 7.5h40q97 0 154.5 -7.5t88 -20t39.5 -29t9 -33.5v-5q0 -17 -8 -29.5t-21 -20.5t-29 -12.5t-32 -6.5q23 -3 43.5 -10t36 -18.5t24.5 -28t9 -38.5v-3q0 -23 -9 -45.5t-41.5 -41.5t-94 -30.5t-166.5 -11.5h-34zM1291 744l-894 -744h-232l887 744h239z
M993 368h262v-168h67v-121h-67v-79h-253v79h-287v117zM1002 200v77l-127 -77h127z" />
    <glyph glyph-name="questiondown" unicode="&#xbf;" horiz-adv-x="1016" 
d="M725.549 273.017v-49.9971q0 -25.999 -2.50391 -49.4971q-2.50391 -23.499 -16.5254 -42.998q-14.0225 -19.498 -43.5693 -34.4971t-82.6309 -25.999l-133.211 -25.998q-42.0674 -8 -59.0938 -16.499q-17.0273 -8.5 -17.0273 -21.499v-1q0 -6.99902 3.50586 -12.499
t15.5244 -9.49902q12.0195 -4 35.0557 -6t62.0986 -2q53.084 0 83.6318 6.5q30.5488 6.49902 45.5723 16.499q15.0244 9.99902 18.5293 22.498q3.50586 12.5 4.50781 25.499h365.579v-11.999q0 -21.999 -3.00488 -49.4971q-3.00488 -27.499 -17.5273 -55.4971
q-14.5234 -27.998 -44.0703 -54.4971q-29.5469 -26.498 -83.6328 -47.4971q-54.085 -20.998 -135.715 -33.4971q-81.6289 -12.5 -199.816 -12.5h-48.0762q-104.165 0 -179.785 9q-75.6191 8.99902 -128.704 24.998q-53.084 15.999 -85.1348 36.998t-50.0791 45.9971
t-24.0381 51.4971q-6.00977 26.498 -6.00977 53.4961v9q0 28.998 8.0127 58.4961t29.0459 55.4971q21.0342 25.998 57.0908 46.9971q36.0576 20.999 91.1445 31.998l135.214 26.998q27.043 6 37.5596 14.499q10.5166 8.5 10.5166 25.499v1h357.566zM365.979 538h359.569
v-231.986h-359.569v231.986z" />
    <glyph glyph-name="Agrave" unicode="&#xc0;" horiz-adv-x="1228" 
d="M592 515l-89 -206h180zM780 89h-372l-39 -89h-384l351 744h534l373 -744h-424zM769 776h-318l-95 164h354z" />
    <glyph glyph-name="Aacute" unicode="&#xc1;" horiz-adv-x="1228" 
d="M592 515l-89 -206h180zM780 89h-372l-39 -89h-384l351 744h534l373 -744h-424zM504 940h354l-94 -164h-318z" />
    <glyph glyph-name="Acircumflex" unicode="&#xc2;" horiz-adv-x="1228" 
d="M592 515l-89 -206h180zM780 89h-372l-39 -89h-384l351 744h534l373 -744h-424zM945 775h-288l-54 58l-55 -58h-285l169 165h342z" />
    <glyph glyph-name="Atilde" unicode="&#xc3;" horiz-adv-x="1228" 
d="M592 515l-89 -206h180zM780 89h-372l-39 -89h-384l351 744h534l373 -744h-424zM742 775q-21 0 -37 1.5t-32 5.5t-35 9.5t-45 13.5t-38.5 11.5t-22.5 3.5t-12.5 -7t-2.5 -14v-24h-188v90q0 15 4.5 32.5t19 32.5t41.5 24.5t71 9.5h2q19 0 35 -1.5t33 -5t37 -9.5t49 -14
q20 -6 33 -9.5t22 -3.5q14 0 14 16v27h191v-77q0 -16 -4 -35.5t-17.5 -36.5t-41 -28.5t-73.5 -11.5h-3v0z" />
    <glyph glyph-name="Adieresis" unicode="&#xc4;" horiz-adv-x="1228" 
d="M592 515l-89 -206h180zM780 89h-372l-39 -89h-384l351 744h534l373 -744h-424zM915 776h-291v164h291v-164zM584 776h-290v164h290v-164z" />
    <glyph glyph-name="Aring" unicode="&#xc5;" horiz-adv-x="1228" 
d="M592 515l-89 -206h180zM780 89h-372l-39 -89h-384l351 744h534l373 -744h-424zM393 894q0 25 9.5 47t34 39t65.5 27t104 10q64 0 105 -10t65 -27t33.5 -39t9.5 -47t-9.5 -47t-33.5 -38.5t-65 -26.5t-105 -10t-105.5 10t-65.5 26.5t-33 39t-9 46.5zM532 895q0 -43 74 -43
q39 0 56.5 11.5t17.5 31.5t-17.5 31t-56.5 11q-38 0 -56 -11t-18 -31z" />
    <glyph glyph-name="AE" unicode="&#xc6;" horiz-adv-x="1598" 
d="M705 550l-151 -240h151v240zM705 90h-289l-57 -90h-376l488 744h1101v-208h-493v-58h487v-204h-487v-64h497v-210h-871v90z" />
    <glyph glyph-name="Ccedilla" unicode="&#xc7;" horiz-adv-x="1198" 
d="M594 -15q-127 0 -219.5 17t-156.5 45.5t-104 66.5t-62 79.5t-29.5 84t-7.5 81.5v30q0 39 7.5 81.5t29 83.5t61 78.5t104 65.5t157 44.5t220.5 16.5h35q123 0 212 -16t151 -41.5t100 -59t58.5 -68.5t27.5 -69.5t7 -61.5v-15h-385q-2 6 -8 21.5t-26 31.5t-58 28.5
t-102 12.5t-103 -12.5t-60.5 -32.5t-29 -45t-7.5 -49v-12q0 -24 8 -50t29.5 -47.5t60.5 -35.5t102 -14q66 0 104 13.5t57.5 31t25.5 34t7 23.5h385v-26q0 -26 -7 -59.5t-27.5 -68.5t-58.5 -68.5t-99.5 -60t-151 -42.5t-212.5 -16h-35zM421 -165h114q17 0 22.5 5.5t5.5 15.5
q0 9 -5.5 14.5t-22.5 5.5h-70v124h159v-46q66 0 107 -8t64 -22t31 -33t8 -42v-2q0 -23 -8.5 -43t-31.5 -34.5t-64 -23t-107 -8.5h-202v97z" />
    <glyph glyph-name="Egrave" unicode="&#xc8;" horiz-adv-x="955" 
d="M928 744v-208h-523v-58h517v-204h-517v-64h527v-210h-901v744h897zM660 776h-318l-95 164h354z" />
    <glyph glyph-name="Eacute" unicode="&#xc9;" horiz-adv-x="955" 
d="M928 744v-208h-523v-58h517v-204h-517v-64h527v-210h-901v744h897zM384 940h354l-94 -164h-318z" />
    <glyph glyph-name="Ecircumflex" unicode="&#xca;" horiz-adv-x="955" 
d="M928 744v-208h-523v-58h517v-204h-517v-64h527v-210h-901v744h897zM833 775h-288l-54 58l-55 -58h-285l169 165h342z" />
    <glyph glyph-name="Edieresis" unicode="&#xcb;" horiz-adv-x="955" 
d="M928 744v-208h-523v-58h517v-204h-517v-64h527v-210h-901v744h897zM799 776h-291v164h291v-164zM468 776h-290v164h290v-164z" />
    <glyph glyph-name="Igrave" unicode="&#xcc;" horiz-adv-x="441" 
d="M410 0h-379v744h379v-744zM379 776h-318l-95 164h354z" />
    <glyph glyph-name="Iacute" unicode="&#xcd;" horiz-adv-x="441" 
d="M410 0h-379v744h379v-744zM120 940h354l-94 -164h-318z" />
    <glyph glyph-name="Icircumflex" unicode="&#xce;" horiz-adv-x="441" 
d="M410 0h-379v744h379v-744zM561 775h-288l-54 58l-55 -58h-285l169 165h342z" />
    <glyph glyph-name="Idieresis" unicode="&#xcf;" horiz-adv-x="441" 
d="M410 0h-379v744h379v-744zM531 776h-291v164h291v-164zM200 776h-290v164h290v-164z" />
    <glyph glyph-name="Eth" unicode="&#xd0;" horiz-adv-x="1232" 
d="M64 287h-59v175h59v282h596q159 0 266.5 -28t172 -76t92 -112t27.5 -136v-31q0 -69 -23 -134.5t-84.5 -115.5t-170.5 -80.5t-280 -30.5h-596v287zM444 462h244v-175h-244v-57h152q81 0 126.5 16t68.5 38.5t28.5 46.5t5.5 41v6q0 16 -6 39.5t-29 44.5t-69 36t-125 15h-152
v-51z" />
    <glyph glyph-name="Ntilde" unicode="&#xd1;" horiz-adv-x="1221" 
d="M460 744l350 -338v338h380v-744h-387l-392 372v-372h-380v744h429zM746 775q-21 0 -37 1.5t-32 5.5t-35 9.5t-45 13.5t-38.5 11.5t-22.5 3.5t-12.5 -7t-2.5 -14v-24h-188v90q0 15 4.5 32.5t19 32.5t41.5 24.5t71 9.5h2q19 0 35 -1.5t33 -5t37 -9.5t49 -14q20 -6 33 -9.5
t22 -3.5q14 0 14 16v27h191v-77q0 -16 -4 -35.5t-17.5 -36.5t-41 -28.5t-73.5 -11.5h-3v0z" />
    <glyph glyph-name="Ograve" unicode="&#xd2;" horiz-adv-x="1238" 
d="M644 759q126 0 217.5 -16.5t156 -44.5t104.5 -65.5t62.5 -78.5t30.5 -83.5t8 -81.5v-30q0 -38 -8 -80.5t-30.5 -84.5t-62.5 -79.5t-104.5 -66.5t-156.5 -46t-217 -17h-50q-125 0 -216.5 17t-156 46t-105 66.5t-63 79.5t-30.5 84.5t-8 80.5v30q0 39 8 81.5t30.5 83.5
t62.5 78.5t104.5 65.5t156 44.5t217.5 16.5h50zM831 383q0 24 -10.5 49t-35 45t-65.5 32.5t-102 12.5q-62 0 -103 -12.5t-65 -32.5t-34 -45t-10 -49v-12q0 -25 10.5 -51t35.5 -47.5t65.5 -35t100.5 -13.5q61 0 101.5 13t65.5 34t35.5 47t10.5 51v14zM777 776h-318l-95 164
h354z" />
    <glyph glyph-name="Oacute" unicode="&#xd3;" horiz-adv-x="1238" 
d="M644 759q126 0 217.5 -16.5t156 -44.5t104.5 -65.5t62.5 -78.5t30.5 -83.5t8 -81.5v-30q0 -38 -8 -80.5t-30.5 -84.5t-62.5 -79.5t-104.5 -66.5t-156.5 -46t-217 -17h-50q-125 0 -216.5 17t-156 46t-105 66.5t-63 79.5t-30.5 84.5t-8 80.5v30q0 39 8 81.5t30.5 83.5
t62.5 78.5t104.5 65.5t156 44.5t217.5 16.5h50zM831 383q0 24 -10.5 49t-35 45t-65.5 32.5t-102 12.5q-62 0 -103 -12.5t-65 -32.5t-34 -45t-10 -49v-12q0 -25 10.5 -51t35.5 -47.5t65.5 -35t100.5 -13.5q61 0 101.5 13t65.5 34t35.5 47t10.5 51v14zM519 940h354l-94 -164
h-318z" />
    <glyph glyph-name="Ocircumflex" unicode="&#xd4;" horiz-adv-x="1238" 
d="M644 759q126 0 217.5 -16.5t156 -44.5t104.5 -65.5t62.5 -78.5t30.5 -83.5t8 -81.5v-30q0 -38 -8 -80.5t-30.5 -84.5t-62.5 -79.5t-104.5 -66.5t-156.5 -46t-217 -17h-50q-125 0 -216.5 17t-156 46t-105 66.5t-63 79.5t-30.5 84.5t-8 80.5v30q0 39 8 81.5t30.5 83.5
t62.5 78.5t104.5 65.5t156 44.5t217.5 16.5h50zM831 383q0 24 -10.5 49t-35 45t-65.5 32.5t-102 12.5q-62 0 -103 -12.5t-65 -32.5t-34 -45t-10 -49v-12q0 -25 10.5 -51t35.5 -47.5t65.5 -35t100.5 -13.5q61 0 101.5 13t65.5 34t35.5 47t10.5 51v14zM960 775h-288l-54 58
l-55 -58h-285l169 165h342z" />
    <glyph glyph-name="Otilde" unicode="&#xd5;" horiz-adv-x="1238" 
d="M644 759q126 0 217.5 -16.5t156 -44.5t104.5 -65.5t62.5 -78.5t30.5 -83.5t8 -81.5v-30q0 -38 -8 -80.5t-30.5 -84.5t-62.5 -79.5t-104.5 -66.5t-156.5 -46t-217 -17h-50q-125 0 -216.5 17t-156 46t-105 66.5t-63 79.5t-30.5 84.5t-8 80.5v30q0 39 8 81.5t30.5 83.5
t62.5 78.5t104.5 65.5t156 44.5t217.5 16.5h50zM831 383q0 24 -10.5 49t-35 45t-65.5 32.5t-102 12.5q-62 0 -103 -12.5t-65 -32.5t-34 -45t-10 -49v-12q0 -25 10.5 -51t35.5 -47.5t65.5 -35t100.5 -13.5q61 0 101.5 13t65.5 34t35.5 47t10.5 51v14zM755 782q-21 0 -37 1.5
t-32 5.5t-35 9.5t-45 13.5t-38.5 11.5t-22.5 3.5t-12.5 -7t-2.5 -14v-24h-188v90q0 15 4.5 32.5t19 32.5t41.5 24.5t71 9.5h2q19 0 35 -1.5t33 -5t37 -9.5t49 -14q20 -6 33 -9.5t22 -3.5q14 0 14 16v27h191v-77q0 -16 -4 -35.5t-17.5 -36.5t-41 -28.5t-73.5 -11.5h-3v0z" />
    <glyph glyph-name="Odieresis" unicode="&#xd6;" horiz-adv-x="1238" 
d="M644 759q126 0 217.5 -16.5t156 -44.5t104.5 -65.5t62.5 -78.5t30.5 -83.5t8 -81.5v-30q0 -38 -8 -80.5t-30.5 -84.5t-62.5 -79.5t-104.5 -66.5t-156.5 -46t-217 -17h-50q-125 0 -216.5 17t-156 46t-105 66.5t-63 79.5t-30.5 84.5t-8 80.5v30q0 39 8 81.5t30.5 83.5
t62.5 78.5t104.5 65.5t156 44.5t217.5 16.5h50zM831 383q0 24 -10.5 49t-35 45t-65.5 32.5t-102 12.5q-62 0 -103 -12.5t-65 -32.5t-34 -45t-10 -49v-12q0 -25 10.5 -51t35.5 -47.5t65.5 -35t100.5 -13.5q61 0 101.5 13t65.5 34t35.5 47t10.5 51v14zM930 776h-291v164h291
v-164zM599 776h-290v164h290v-164z" />
    <glyph glyph-name="multiply" unicode="&#xd7;" horiz-adv-x="577" 
d="M291 184l-163 -149l-125 139l149 136l-147 133l115 139l165 -149l163 149l126 -139l-149 -137l146 -132l-115 -139z" />
    <glyph glyph-name="Oslash" unicode="&#xd8;" horiz-adv-x="1253" 
d="M601 -13q-95 0 -170.5 10.5t-135.5 30.5l-38 -28h-264l142 105q-68 53 -95 119t-27 133v30q0 38 8 80.5t31 83.5t63.5 78.5t106 65.5t158.5 45t221 17h48q92 0 165 -10.5t132 -29.5l36 27h263l-138 -102q69 -51 100 -116.5t31 -138.5v-30q0 -38 -8 -80t-30.5 -83.5
t-63.5 -78.5t-106.5 -65.5t-159 -45.5t-221.5 -17h-48zM625 215q64 0 108 13t71.5 34.5t40 49.5t12.5 58v14q0 34 -15 63l-305 -231q20 -1 43 -1h45zM394 370q0 -33 14 -63l298 225h-81q-65 0 -109 -12t-71 -32.5t-39 -47t-12 -56.5v-14z" />
    <glyph glyph-name="Ugrave" unicode="&#xd9;" horiz-adv-x="1202" 
d="M24 744h382v-306q0 -31 8 -61.5t29.5 -55t59 -39.5t97.5 -15h2q58 0 96 15t59.5 39.5t30 55t8.5 61.5v306h382v-345q0 -37 -6.5 -82t-26.5 -91t-57.5 -89t-99 -76.5t-150.5 -53.5t-213 -20h-50q-124 0 -213 20t-150.5 53.5t-98 76.5t-56.5 89t-26.5 91t-6.5 82v345z
M764 776h-318l-95 164h354z" />
    <glyph glyph-name="Uacute" unicode="&#xda;" horiz-adv-x="1202" 
d="M24 744h382v-306q0 -31 8 -61.5t29.5 -55t59 -39.5t97.5 -15h2q58 0 96 15t59.5 39.5t30 55t8.5 61.5v306h382v-345q0 -37 -6.5 -82t-26.5 -91t-57.5 -89t-99 -76.5t-150.5 -53.5t-213 -20h-50q-124 0 -213 20t-150.5 53.5t-98 76.5t-56.5 89t-26.5 91t-6.5 82v345z
M496 940h354l-94 -164h-318z" />
    <glyph glyph-name="Ucircumflex" unicode="&#xdb;" horiz-adv-x="1202" 
d="M24 744h382v-306q0 -31 8 -61.5t29.5 -55t59 -39.5t97.5 -15h2q58 0 96 15t59.5 39.5t30 55t8.5 61.5v306h382v-345q0 -37 -6.5 -82t-26.5 -91t-57.5 -89t-99 -76.5t-150.5 -53.5t-213 -20h-50q-124 0 -213 20t-150.5 53.5t-98 76.5t-56.5 89t-26.5 91t-6.5 82v345z
M942 775h-288l-54 58l-55 -58h-285l169 165h342z" />
    <glyph glyph-name="Udieresis" unicode="&#xdc;" horiz-adv-x="1202" 
d="M24 744h382v-306q0 -31 8 -61.5t29.5 -55t59 -39.5t97.5 -15h2q58 0 96 15t59.5 39.5t30 55t8.5 61.5v306h382v-345q0 -37 -6.5 -82t-26.5 -91t-57.5 -89t-99 -76.5t-150.5 -53.5t-213 -20h-50q-124 0 -213 20t-150.5 53.5t-98 76.5t-56.5 89t-26.5 91t-6.5 82v345z
M912 776h-291v164h291v-164zM581 776h-290v164h290v-164z" />
    <glyph glyph-name="Yacute" unicode="&#xdd;" horiz-adv-x="1192" 
d="M408 264l-425 480h438l191 -224l194 224h403l-421 -485v-259h-380v264zM507 940h354l-94 -164h-318z" />
    <glyph glyph-name="Thorn" unicode="&#xde;" horiz-adv-x="1131" 
d="M411 104v-104h-380v744h380v-95h335q114 0 187 -20t115 -55t58 -81.5t16 -99.5v-25q0 -53 -16.5 -101t-58.5 -84t-115 -57.5t-186 -21.5h-335zM411 329h253q39 0 53 15.5t14 34.5v3q0 20 -14 34.5t-53 14.5h-253v-102z" />
    <glyph glyph-name="germandbls" unicode="&#xdf;" horiz-adv-x="1002" 
d="M790 442q43 -6 80.5 -22t65 -41.5t43 -60t15.5 -77.5v-12q0 -42 -12.5 -83t-45.5 -73.5t-89.5 -52.5t-144.5 -20h-277v191h111q25 0 41 5t24.5 13t11.5 17.5t3 18.5v3q0 9 -3 18t-11.5 17t-24 13t-40.5 5h-112v191h109q23 0 36.5 4.5t20.5 11t9 14t2 12.5v2q0 6 -2 13.5
t-10.5 15t-26 12.5t-49.5 5h-36q-29 0 -46 -4.5t-26 -12.5t-12 -18.5t-3 -23.5v-523h-364v537q0 41 13 78.5t56 66t123 45.5t215 17h113q92 0 157 -7.5t108.5 -20.5t68.5 -29.5t38 -35t16.5 -37.5t3.5 -36v-9q0 -27 -12.5 -49t-33 -38t-47.5 -26t-56 -14z" />
    <glyph glyph-name="agrave" unicode="&#xe0;" horiz-adv-x="933" 
d="M519 251l-116 -31q-19 -5 -29 -13.5t-10 -24.5v-1q0 -14 12.5 -29t47.5 -15q47 0 71 23t24 55v36zM522 68q-10 -9 -30.5 -22.5t-52 -26t-75.5 -21t-101 -8.5h-6q-68 0 -114.5 14.5t-76 38.5t-42.5 54t-13 61v20q0 28 9 52.5t32 44t62 32.5t99 18l283 23q15 2 19.5 8
t4.5 14v1q0 13 -14 23.5t-60 10.5h-2q-30 0 -46 -5t-24 -12t-10 -14.5t-2 -12.5h-338v12q0 18 3.5 38.5t16.5 40.5t38 38t68.5 31.5t107.5 21.5t156 8h57q96 0 163.5 -8.5t113.5 -22.5t72 -32t40 -37t17.5 -38t3.5 -35v-184q0 -17 14 -17h31v-177h-313q-42 0 -64 19t-27 49z
M299 569l-119 175h342l85 -175h-308z" />
    <glyph glyph-name="aacute" unicode="&#xe1;" horiz-adv-x="933" 
d="M519 251l-116 -31q-19 -5 -29 -13.5t-10 -24.5v-1q0 -14 12.5 -29t47.5 -15q47 0 71 23t24 55v36zM522 68q-10 -9 -30.5 -22.5t-52 -26t-75.5 -21t-101 -8.5h-6q-68 0 -114.5 14.5t-76 38.5t-42.5 54t-13 61v20q0 28 9 52.5t32 44t62 32.5t99 18l283 23q15 2 19.5 8
t4.5 14v1q0 13 -14 23.5t-60 10.5h-2q-30 0 -46 -5t-24 -12t-10 -14.5t-2 -12.5h-338v12q0 18 3.5 38.5t16.5 40.5t38 38t68.5 31.5t107.5 21.5t156 8h57q96 0 163.5 -8.5t113.5 -22.5t72 -32t40 -37t17.5 -38t3.5 -35v-184q0 -17 14 -17h31v-177h-313q-42 0 -64 19t-27 49z
M379 749h342l-119 -175h-308z" />
    <glyph glyph-name="acircumflex" unicode="&#xe2;" horiz-adv-x="933" 
d="M519 251l-116 -31q-19 -5 -29 -13.5t-10 -24.5v-1q0 -14 12.5 -29t47.5 -15q47 0 71 23t24 55v36zM522 68q-10 -9 -30.5 -22.5t-52 -26t-75.5 -21t-101 -8.5h-6q-68 0 -114.5 14.5t-76 38.5t-42.5 54t-13 61v20q0 28 9 52.5t32 44t62 32.5t99 18l283 23q15 2 19.5 8
t4.5 14v1q0 13 -14 23.5t-60 10.5h-2q-30 0 -46 -5t-24 -12t-10 -14.5t-2 -12.5h-338v12q0 18 3.5 38.5t16.5 40.5t38 38t68.5 31.5t107.5 21.5t156 8h57q96 0 163.5 -8.5t113.5 -22.5t72 -32t40 -37t17.5 -38t3.5 -35v-184q0 -17 14 -17h31v-177h-313q-42 0 -64 19t-27 49z
M773 569h-278l-52 70l-51 -70h-275l156 175h345z" />
    <glyph glyph-name="atilde" unicode="&#xe3;" horiz-adv-x="933" 
d="M519 251l-116 -31q-19 -5 -29 -13.5t-10 -24.5v-1q0 -14 12.5 -29t47.5 -15q47 0 71 23t24 55v36zM522 68q-10 -9 -30.5 -22.5t-52 -26t-75.5 -21t-101 -8.5h-6q-68 0 -114.5 14.5t-76 38.5t-42.5 54t-13 61v20q0 28 9 52.5t32 44t62 32.5t99 18l283 23q15 2 19.5 8
t4.5 14v1q0 13 -14 23.5t-60 10.5h-2q-30 0 -46 -5t-24 -12t-10 -14.5t-2 -12.5h-338v12q0 18 3.5 38.5t16.5 40.5t38 38t68.5 31.5t107.5 21.5t156 8h57q96 0 163.5 -8.5t113.5 -22.5t72 -32t40 -37t17.5 -38t3.5 -35v-184q0 -17 14 -17h31v-177h-313q-42 0 -64 19t-27 49z
M582 573q-20 0 -35 1.5t-31 5t-34.5 9.5t-44.5 14q-23 8 -35 11t-20 3q-10 0 -13 -6.5t-3 -14.5v-23h-189v88q0 15 4.5 32.5t19 32.5t41.5 24.5t71 9.5h2q18 0 33.5 -1.5t32 -4.5t36.5 -9t48 -15q19 -6 30.5 -9.5t20.5 -3.5q14 0 14 16v27h190v-75q0 -16 -3.5 -35.5
t-17.5 -36.5t-41 -28.5t-74 -11.5h-2v0z" />
    <glyph glyph-name="adieresis" unicode="&#xe4;" horiz-adv-x="933" 
d="M519 251l-116 -31q-19 -5 -29 -13.5t-10 -24.5v-1q0 -14 12.5 -29t47.5 -15q47 0 71 23t24 55v36zM522 68q-10 -9 -30.5 -22.5t-52 -26t-75.5 -21t-101 -8.5h-6q-68 0 -114.5 14.5t-76 38.5t-42.5 54t-13 61v20q0 28 9 52.5t32 44t62 32.5t99 18l283 23q15 2 19.5 8
t4.5 14v1q0 13 -14 23.5t-60 10.5h-2q-30 0 -46 -5t-24 -12t-10 -14.5t-2 -12.5h-338v12q0 18 3.5 38.5t16.5 40.5t38 38t68.5 31.5t107.5 21.5t156 8h57q96 0 163.5 -8.5t113.5 -22.5t72 -32t40 -37t17.5 -38t3.5 -35v-184q0 -17 14 -17h31v-177h-313q-42 0 -64 19t-27 49z
M745 569h-281v175h281v-175zM426 569h-280v175h280v-175z" />
    <glyph glyph-name="aring" unicode="&#xe5;" horiz-adv-x="933" 
d="M519 251l-116 -31q-19 -5 -29 -13.5t-10 -24.5v-1q0 -14 12.5 -29t47.5 -15q47 0 71 23t24 55v36zM522 68q-10 -9 -30.5 -22.5t-52 -26t-75.5 -21t-101 -8.5h-6q-68 0 -114.5 14.5t-76 38.5t-42.5 54t-13 61v20q0 28 9 52.5t32 44t62 32.5t99 18l283 23q15 2 19.5 8
t4.5 14v1q0 13 -14 23.5t-60 10.5h-2q-30 0 -46 -5t-24 -12t-10 -14.5t-2 -12.5h-338v12q0 18 3.5 38.5t16.5 40.5t38 38t68.5 31.5t107.5 21.5t156 8h57q96 0 163.5 -8.5t113.5 -22.5t72 -32t40 -37t17.5 -38t3.5 -35v-184q0 -17 14 -17h31v-177h-313q-42 0 -64 19t-27 49z
M233 692q0 25 9.5 47t33.5 39t65 27t103 10q63 0 104 -10t64.5 -27t33 -39t9.5 -47t-9.5 -47t-33 -38.5t-64.5 -26.5t-104 -10t-104 10t-65 26.5t-33 39t-9 46.5zM372 693q0 -43 72 -43q38 0 55 11.5t17 31.5t-17 31t-55 11q-37 0 -54.5 -11t-17.5 -31z" />
    <glyph glyph-name="ae" unicode="&#xe6;" horiz-adv-x="1466" 
d="M988 407q-32 0 -52.5 -5t-32.5 -13.5t-17.5 -19.5t-6.5 -22h216q-2 13 -8.5 24t-19 19t-32 12.5t-47.5 4.5zM424 137q48 0 71.5 23t23.5 55v36l-116 -31q-17 -5 -28 -13t-11 -25v-1q0 -14 12.5 -29t47.5 -15zM1455 203q0 -20 -5.5 -44t-22.5 -48t-47.5 -46.5t-80.5 -39.5
t-122 -27.5t-171 -10.5h-45q-78 0 -137 7.5t-103 21t-76 31t-56 38.5q-18 -14 -42 -31t-60 -31t-86.5 -23.5t-120.5 -9.5h-7q-75 0 -125 14.5t-80.5 38.5t-43.5 54t-13 61v20q0 28 9.5 52.5t32.5 44t62 32.5t98 18l283 23q14 2 19 7.5t5 14.5v1q0 13 -14 23.5t-60 10.5h-2
q-30 0 -46 -5t-24 -12t-10 -14.5t-2 -12.5h-337v12q0 16 3 35t15 39t36.5 38.5t67.5 33t108 23.5t159 9h53q86 0 146.5 -11.5t100.5 -36.5q45 24 104.5 35.5t144.5 11.5h43q106 0 180.5 -13.5t124.5 -36t78.5 -52.5t43 -63t18.5 -67t4 -64v-15h-577q1 -14 6 -29.5t17 -28.5
t33.5 -21.5t54.5 -8.5q37 0 58.5 7.5t32 17.5t13.5 19t4 11h358v-3z" />
    <glyph glyph-name="ccedilla" unicode="&#xe7;" horiz-adv-x="959" 
d="M450 -15q-105 0 -178 14t-122 37t-76 52.5t-41 60.5t-17 61.5t-3 54.5v14q0 24 3 53.5t16.5 60t41 59.5t76 51.5t121.5 36t178 13.5h72q100 0 171 -13t118.5 -34.5t75 -48.5t41.5 -55t18 -53.5t4 -44.5v-3h-369q0 7 -3.5 21t-13.5 28t-28.5 25t-49.5 11h-5
q-32 0 -51.5 -10t-30 -26t-13.5 -35.5t-3 -37.5v-1q0 -20 3 -41.5t13.5 -39t30 -29t51.5 -11.5h5q31 0 49.5 12t28.5 27.5t13.5 30.5t3.5 22h369v-3q0 -17 -3 -43t-16.5 -54.5t-40.5 -57.5t-74.5 -52t-119.5 -37.5t-175 -14.5h-70zM275 -165h114q17 0 22.5 5.5t5.5 15.5
q0 9 -5.5 14.5t-22.5 5.5h-70v124h159v-46q66 0 107 -8t64 -22t31 -33t8 -42v-2q0 -23 -8.5 -43t-31.5 -34.5t-64 -23t-107 -8.5h-202v97z" />
    <glyph glyph-name="egrave" unicode="&#xe8;" horiz-adv-x="960" 
d="M589 347q-2 12 -8 23t-18 19.5t-32 13t-50 4.5q-32 0 -52 -5t-32 -13.5t-17 -19t-7 -22.5h216zM949 204q0 -19 -5 -43t-21 -48.5t-46 -47.5t-80 -40.5t-123 -28.5t-175 -11h-45q-103 0 -176 14t-122 37t-77.5 52.5t-43 61t-18.5 62t-4 55.5v14q0 25 4 55t19 60t43.5 58.5
t77.5 50.5t122 35t176 13h44q105 0 179.5 -13.5t124.5 -36.5t79 -53t44 -63.5t19 -68t4 -65.5v-14h-577q1 -15 6.5 -30.5t17.5 -28.5t33 -21t54 -8q36 0 56.5 7t31.5 16.5t14.5 18.5t4.5 13h359v-2zM328 569l-119 175h342l85 -175h-308z" />
    <glyph glyph-name="eacute" unicode="&#xe9;" horiz-adv-x="960" 
d="M589 347q-2 12 -8 23t-18 19.5t-32 13t-50 4.5q-32 0 -52 -5t-32 -13.5t-17 -19t-7 -22.5h216zM949 204q0 -19 -5 -43t-21 -48.5t-46 -47.5t-80 -40.5t-123 -28.5t-175 -11h-45q-103 0 -176 14t-122 37t-77.5 52.5t-43 61t-18.5 62t-4 55.5v14q0 25 4 55t19 60t43.5 58.5
t77.5 50.5t122 35t176 13h44q105 0 179.5 -13.5t124.5 -36.5t79 -53t44 -63.5t19 -68t4 -65.5v-14h-577q1 -15 6.5 -30.5t17.5 -28.5t33 -21t54 -8q36 0 56.5 7t31.5 16.5t14.5 18.5t4.5 13h359v-2zM414 744h342l-119 -175h-308z" />
    <glyph glyph-name="ecircumflex" unicode="&#xea;" horiz-adv-x="960" 
d="M589 347q-2 12 -8 23t-18 19.5t-32 13t-50 4.5q-32 0 -52 -5t-32 -13.5t-17 -19t-7 -22.5h216zM949 204q0 -19 -5 -43t-21 -48.5t-46 -47.5t-80 -40.5t-123 -28.5t-175 -11h-45q-103 0 -176 14t-122 37t-77.5 52.5t-43 61t-18.5 62t-4 55.5v14q0 25 4 55t19 60t43.5 58.5
t77.5 50.5t122 35t176 13h44q105 0 179.5 -13.5t124.5 -36.5t79 -53t44 -63.5t19 -68t4 -65.5v-14h-577q1 -15 6.5 -30.5t17.5 -28.5t33 -21t54 -8q36 0 56.5 7t31.5 16.5t14.5 18.5t4.5 13h359v-2zM810 569h-278l-52 70l-51 -70h-275l156 175h345z" />
    <glyph glyph-name="edieresis" unicode="&#xeb;" horiz-adv-x="960" 
d="M589 347q-2 12 -8 23t-18 19.5t-32 13t-50 4.5q-32 0 -52 -5t-32 -13.5t-17 -19t-7 -22.5h216zM949 204q0 -19 -5 -43t-21 -48.5t-46 -47.5t-80 -40.5t-123 -28.5t-175 -11h-45q-103 0 -176 14t-122 37t-77.5 52.5t-43 61t-18.5 62t-4 55.5v14q0 25 4 55t19 60t43.5 58.5
t77.5 50.5t122 35t176 13h44q105 0 179.5 -13.5t124.5 -36.5t79 -53t44 -63.5t19 -68t4 -65.5v-14h-577q1 -15 6.5 -30.5t17.5 -28.5t33 -21t54 -8q36 0 56.5 7t31.5 16.5t14.5 18.5t4.5 13h359v-2zM782 569h-281v175h281v-175zM463 569h-280v175h280v-175z" />
    <glyph glyph-name="igrave" unicode="&#xec;" horiz-adv-x="418" 
d="M391 0h-364v538h364v-538zM56 569l-119 175h342l85 -175h-308z" />
    <glyph glyph-name="iacute" unicode="&#xed;" horiz-adv-x="418" 
d="M391 0h-364v538h364v-538zM140 744h342l-119 -175h-308z" />
    <glyph glyph-name="icircumflex" unicode="&#xee;" horiz-adv-x="418" 
d="M470 569h-222l-41 70l-40 -70h-219l114 175h295zM391 0h-364v538h364v-538z" />
    <glyph glyph-name="idieresis" unicode="&#xef;" horiz-adv-x="418" 
d="M438 569h-214v175h214v-175zM194 569h-214v175h214v-175zM391 0h-364v538h364v-538z" />
    <glyph glyph-name="eth" unicode="&#xf0;" horiz-adv-x="1005" 
d="M469 -15q-138 0 -226.5 25t-139.5 65t-70.5 88t-19.5 95v21q0 45 13 90t47.5 81t94 59t153.5 23h10q82 0 135.5 -11.5t86.5 -25.5l-115 83l-284 -29v93l171 17l-118 85h423l65 -47l222 23v-94l-107 -11q51 -38 86 -74t56.5 -73.5t30.5 -78.5t9 -87v-20q0 -29 -5.5 -62.5
t-22.5 -66.5t-48.5 -63.5t-83.5 -53.5t-127.5 -37t-180.5 -14h-55zM504 154q37 0 60 12.5t36 30.5t18 39.5t5 39.5q0 16 -4.5 35t-17.5 35.5t-36.5 27.5t-60.5 11h-3q-37 0 -60 -11t-36 -27.5t-18 -35.5t-5 -35q0 -18 4.5 -39.5t17.5 -40t36 -30.5t61 -12h3z" />
    <glyph glyph-name="ntilde" unicode="&#xf1;" horiz-adv-x="988" 
d="M27 538h364v-101q9 9 31 27.5t58.5 37.5t88.5 33.5t120 14.5h5q85 0 137.5 -22.5t81.5 -54t38.5 -64.5t9.5 -53v-356h-364v241q0 19 -4.5 38t-16 33t-31.5 23t-51 9q-29 0 -48.5 -8.5t-31.5 -23t-17.5 -33t-5.5 -37.5v-242h-364v538zM632 568q-20 0 -35 1.5t-31 5
t-34.5 9.5t-44.5 14q-23 8 -35 11t-20 3q-10 0 -13 -6.5t-3 -14.5v-23h-189v88q0 15 4.5 32.5t19 32.5t41.5 24.5t71 9.5h2q18 0 33.5 -1.5t32 -4.5t36.5 -9t48 -15q19 -6 30.5 -9.5t20.5 -3.5q14 0 14 16v27h190v-75q0 -16 -3.5 -35.5t-17.5 -36.5t-41 -28.5t-74 -11.5h-2
v0z" />
    <glyph glyph-name="ograve" unicode="&#xf2;" horiz-adv-x="1005" 
d="M462 -15q-102 0 -175.5 14t-123.5 37t-79.5 52.5t-45 60.5t-20.5 61.5t-5 54.5v14q0 24 5 53.5t20.5 60t45.5 59.5t79.5 51.5t122.5 36t175 13.5h84q104 0 178 -13.5t123.5 -36t78.5 -51.5t44 -59t19 -59.5t4 -53.5v-16q0 -24 -4.5 -54t-19.5 -61t-44 -60.5t-79 -52.5
t-124 -37t-178 -14h-81zM504 154q37 0 60 12.5t36 30.5t18 39.5t5 39.5q0 16 -4.5 35t-17.5 35.5t-36.5 27.5t-60.5 11h-3q-37 0 -60 -11t-36 -27.5t-18 -35.5t-5 -35q0 -18 4.5 -39.5t17.5 -40t36 -30.5t61 -12h3zM349 569l-119 175h342l85 -175h-308z" />
    <glyph glyph-name="oacute" unicode="&#xf3;" horiz-adv-x="1005" 
d="M462 -15q-102 0 -175.5 14t-123.5 37t-79.5 52.5t-45 60.5t-20.5 61.5t-5 54.5v14q0 24 5 53.5t20.5 60t45.5 59.5t79.5 51.5t122.5 36t175 13.5h84q104 0 178 -13.5t123.5 -36t78.5 -51.5t44 -59t19 -59.5t4 -53.5v-16q0 -24 -4.5 -54t-19.5 -61t-44 -60.5t-79 -52.5
t-124 -37t-178 -14h-81zM504 154q37 0 60 12.5t36 30.5t18 39.5t5 39.5q0 16 -4.5 35t-17.5 35.5t-36.5 27.5t-60.5 11h-3q-37 0 -60 -11t-36 -27.5t-18 -35.5t-5 -35q0 -18 4.5 -39.5t17.5 -40t36 -30.5t61 -12h3zM432 744h342l-119 -175h-308z" />
    <glyph glyph-name="ocircumflex" unicode="&#xf4;" horiz-adv-x="1005" 
d="M462 -15q-102 0 -175.5 14t-123.5 37t-79.5 52.5t-45 60.5t-20.5 61.5t-5 54.5v14q0 24 5 53.5t20.5 60t45.5 59.5t79.5 51.5t122.5 36t175 13.5h84q104 0 178 -13.5t123.5 -36t78.5 -51.5t44 -59t19 -59.5t4 -53.5v-16q0 -24 -4.5 -54t-19.5 -61t-44 -60.5t-79 -52.5
t-124 -37t-178 -14h-81zM504 154q37 0 60 12.5t36 30.5t18 39.5t5 39.5q0 16 -4.5 35t-17.5 35.5t-36.5 27.5t-60.5 11h-3q-37 0 -60 -11t-36 -27.5t-18 -35.5t-5 -35q0 -18 4.5 -39.5t17.5 -40t36 -30.5t61 -12h3zM830 569h-278l-52 70l-51 -70h-275l156 175h345z" />
    <glyph glyph-name="otilde" unicode="&#xf5;" horiz-adv-x="1005" 
d="M462 -15q-102 0 -175.5 14t-123.5 37t-79.5 52.5t-45 60.5t-20.5 61.5t-5 54.5v14q0 24 5 53.5t20.5 60t45.5 59.5t79.5 51.5t122.5 36t175 13.5h84q104 0 178 -13.5t123.5 -36t78.5 -51.5t44 -59t19 -59.5t4 -53.5v-16q0 -24 -4.5 -54t-19.5 -61t-44 -60.5t-79 -52.5
t-124 -37t-178 -14h-81zM504 154q37 0 60 12.5t36 30.5t18 39.5t5 39.5q0 16 -4.5 35t-17.5 35.5t-36.5 27.5t-60.5 11h-3q-37 0 -60 -11t-36 -27.5t-18 -35.5t-5 -35q0 -18 4.5 -39.5t17.5 -40t36 -30.5t61 -12h3zM634 575q-20 0 -35 1.5t-31 5t-34.5 9.5t-44.5 14
q-23 8 -35 11t-20 3q-10 0 -13 -6.5t-3 -14.5v-23h-189v88q0 15 4.5 32.5t19 32.5t41.5 24.5t71 9.5h2q18 0 33.5 -1.5t32 -4.5t36.5 -9t48 -15q19 -6 30.5 -9.5t20.5 -3.5q14 0 14 16v27h190v-75q0 -16 -3.5 -35.5t-17.5 -36.5t-41 -28.5t-74 -11.5h-2v0z" />
    <glyph glyph-name="odieresis" unicode="&#xf6;" horiz-adv-x="1005" 
d="M462 -15q-102 0 -175.5 14t-123.5 37t-79.5 52.5t-45 60.5t-20.5 61.5t-5 54.5v14q0 24 5 53.5t20.5 60t45.5 59.5t79.5 51.5t122.5 36t175 13.5h84q104 0 178 -13.5t123.5 -36t78.5 -51.5t44 -59t19 -59.5t4 -53.5v-16q0 -24 -4.5 -54t-19.5 -61t-44 -60.5t-79 -52.5
t-124 -37t-178 -14h-81zM504 154q37 0 60 12.5t36 30.5t18 39.5t5 39.5q0 16 -4.5 35t-17.5 35.5t-36.5 27.5t-60.5 11h-3q-37 0 -60 -11t-36 -27.5t-18 -35.5t-5 -35q0 -18 4.5 -39.5t17.5 -40t36 -30.5t61 -12h3zM802 569h-281v175h281v-175zM483 569h-280v175h280v-175z
" />
    <glyph glyph-name="divide" unicode="&#xf7;" horiz-adv-x="595" 
d="M404 431h-214v175h214v-175zM581 396v-174h-567v174h567zM404 11h-214v174h214v-174z" />
    <glyph glyph-name="oslash" unicode="&#xf8;" horiz-adv-x="1005" 
d="M455 -15q-77 0 -138 10t-101 25l-33 -20h-189l115 75q-55 38 -75.5 87t-20.5 103v14q0 24 5 53.5t20.5 60t45.5 59.5t80.5 51.5t124.5 36t178 13.5h84q74 0 133 -9t101 -24l28 18h193l-106 -71q54 -42 73 -90t19 -97v-16q0 -25 -4.5 -55t-20 -61t-45 -60.5t-80 -52
t-125.5 -36.5t-180 -14h-82zM370 276v-14t2 -15l203 133q-14 5 -31.5 8.5t-40.5 3.5h-3q-41 0 -66 -11.5t-39.5 -29t-19.5 -37.5t-5 -38zM505 147q40 0 65.5 13t40 32.5t19.5 42t5 41.5v10t-1 10l-205 -135q28 -14 74 -14h2z" />
    <glyph glyph-name="ugrave" unicode="&#xf9;" horiz-adv-x="981" 
d="M954 0h-364v101q-9 -10 -30.5 -29t-57.5 -37.5t-87 -32.5t-120 -14h-6q-85 0 -136.5 23t-79.5 55t-37 66t-9 56v350h364v-241q0 -18 4 -36.5t14.5 -33t30 -24t50.5 -9.5q28 0 47 9t31 24t17 33t5 36v242h364v-538zM344 569l-119 175h342l85 -175h-308z" />
    <glyph glyph-name="uacute" unicode="&#xfa;" horiz-adv-x="981" 
d="M954 0h-364v101q-9 -10 -30.5 -29t-57.5 -37.5t-87 -32.5t-120 -14h-6q-85 0 -136.5 23t-79.5 55t-37 66t-9 56v350h364v-241q0 -18 4 -36.5t14.5 -33t30 -24t50.5 -9.5q28 0 47 9t31 24t17 33t5 36v242h364v-538zM419 744h342l-119 -175h-308z" />
    <glyph glyph-name="ucircumflex" unicode="&#xfb;" horiz-adv-x="981" 
d="M954 0h-364v101q-9 -10 -30.5 -29t-57.5 -37.5t-87 -32.5t-120 -14h-6q-85 0 -136.5 23t-79.5 55t-37 66t-9 56v350h364v-241q0 -18 4 -36.5t14.5 -33t30 -24t50.5 -9.5q28 0 47 9t31 24t17 33t5 36v242h364v-538zM818 569h-278l-52 70l-51 -70h-275l156 175h345z" />
    <glyph glyph-name="udieresis" unicode="&#xfc;" horiz-adv-x="981" 
d="M954 0h-364v101q-9 -10 -30.5 -29t-57.5 -37.5t-87 -32.5t-120 -14h-6q-85 0 -136.5 23t-79.5 55t-37 66t-9 56v350h364v-241q0 -18 4 -36.5t14.5 -33t30 -24t50.5 -9.5q28 0 47 9t31 24t17 33t5 36v242h364v-538zM790 569h-281v175h281v-175zM471 569h-280v175h280v-175
z" />
    <glyph glyph-name="yacute" unicode="&#xfd;" horiz-adv-x="911" 
d="M118 -11h115q14 0 19 5.5t5 12.5v1q0 9 -5.5 20.5t-13.5 28.5l-249 481h386l105 -305l84 305h358l-215 -535q-41 -102 -95.5 -146.5t-129.5 -44.5h-364v177zM398 744h342l-119 -175h-308z" />
    <glyph glyph-name="thorn" unicode="&#xfe;" horiz-adv-x="982" 
d="M391 266q0 -17 5.5 -35t18 -34t33 -26t50.5 -10h6q28 0 46 10t29 25.5t15.5 34t4.5 34.5v4q0 18 -4.5 36.5t-15.5 34t-29 25.5t-46 10h-6q-30 0 -50.5 -9.5t-33 -24.5t-18 -34t-5.5 -37v-4zM391 744v-277q7 6 25 18.5t48 25t72 22t98 9.5h27q95 0 155 -23.5t93.5 -60.5
t46 -81t12.5 -84v-25q0 -46 -14 -94.5t-49.5 -88t-97 -64.5t-157.5 -25h-26q-51 0 -90.5 6.5t-69 15t-48 17t-25.5 12.5v-235h-364v932h364z" />
    <glyph glyph-name="ydieresis" unicode="&#xff;" horiz-adv-x="911" 
d="M118 -11h115q14 0 19 5.5t5 12.5v1q0 9 -5.5 20.5t-13.5 28.5l-249 481h386l105 -305l84 305h358l-215 -535q-41 -102 -95.5 -146.5t-129.5 -44.5h-364v177zM769 569h-281v175h281v-175zM450 569h-280v175h280v-175z" />
    <glyph glyph-name="Amacron" unicode="&#x100;" horiz-adv-x="1228" 
d="M592 515l-89 -206h180zM780 89h-372l-39 -89h-384l351 744h534l373 -744h-424zM342 926h524v-142h-524v142z" />
    <glyph glyph-name="amacron" unicode="&#x101;" horiz-adv-x="933" 
d="M519 251l-116 -31q-19 -5 -29 -13.5t-10 -24.5v-1q0 -14 12.5 -29t47.5 -15q47 0 71 23t24 55v36zM522 68q-10 -9 -30.5 -22.5t-52 -26t-75.5 -21t-101 -8.5h-6q-68 0 -114.5 14.5t-76 38.5t-42.5 54t-13 61v20q0 28 9 52.5t32 44t62 32.5t99 18l283 23q15 2 19.5 8
t4.5 14v1q0 13 -14 23.5t-60 10.5h-2q-30 0 -46 -5t-24 -12t-10 -14.5t-2 -12.5h-338v12q0 18 3.5 38.5t16.5 40.5t38 38t68.5 31.5t107.5 21.5t156 8h57q96 0 163.5 -8.5t113.5 -22.5t72 -32t40 -37t17.5 -38t3.5 -35v-184q0 -17 14 -17h31v-177h-313q-42 0 -64 19t-27 49z
M194 724h509v-142h-509v142z" />
    <glyph glyph-name="Abreve" unicode="&#x102;" horiz-adv-x="1228" 
d="M592 515l-89 -206h180zM780 89h-372l-39 -89h-384l351 744h534l373 -744h-424zM581 773q-82 0 -130.5 20.5t-74 49.5t-33 60.5t-7.5 53.5v2h206q0 -4 2 -12.5t9 -17t19.5 -15t33.5 -6.5h2q21 0 33 6.5t18.5 15t8.5 17t2 12.5h203v-2q0 -22 -9.5 -53.5t-36 -60.5
t-73.5 -49.5t-122 -20.5h-51v0z" />
    <glyph glyph-name="abreve" unicode="&#x103;" horiz-adv-x="933" 
d="M419 571q-77 0 -124 19t-73 46t-34.5 56t-8.5 50v2h202q0 -5 3 -12t10.5 -13.5t19.5 -11.5t32 -5h2q19 0 31 5t19 11.5t9.5 13.5t3.5 12h200v-2q0 -21 -11 -50t-38 -56t-73 -46t-116 -19h-54v0zM519 251l-116 -31q-19 -5 -29 -13.5t-10 -24.5v-1q0 -14 12.5 -29t47.5 -15
q47 0 71 23t24 55v36zM522 68q-10 -9 -30.5 -22.5t-52 -26t-75.5 -21t-101 -8.5h-6q-68 0 -114.5 14.5t-76 38.5t-42.5 54t-13 61v20q0 28 9 52.5t32 44t62 32.5t99 18l283 23q15 2 19.5 8t4.5 14v1q0 13 -14 23.5t-60 10.5h-2q-30 0 -46 -5t-24 -12t-10 -14.5t-2 -12.5
h-338v12q0 18 3.5 38.5t16.5 40.5t38 38t68.5 31.5t107.5 21.5t156 8h57q96 0 163.5 -8.5t113.5 -22.5t72 -32t40 -37t17.5 -38t3.5 -35v-184q0 -17 14 -17h31v-177h-313q-42 0 -64 19t-27 49z" />
    <glyph glyph-name="Aogonek" unicode="&#x104;" horiz-adv-x="1228" 
d="M592 515l-89 -206h180zM780 89h-372l-39 -89h-384l351 744h534l373 -744h-424zM857 -109q0 42 60 66t178 43h148q-26 -14 -44.5 -28t-18.5 -28v-1q0 -17 25 -17h38v-114h-207q-50 0 -84.5 5t-55.5 14.5t-30 23t-9 31.5v5z" />
    <glyph glyph-name="aogonek" unicode="&#x105;" horiz-adv-x="933" 
d="M519 251l-116 -31q-19 -5 -29 -13.5t-10 -24.5v-1q0 -14 12.5 -29t47.5 -15q47 0 71 23t24 55v36zM522 68q-10 -9 -30.5 -22.5t-52 -26t-75.5 -21t-101 -8.5h-6q-68 0 -114.5 14.5t-76 38.5t-42.5 54t-13 61v20q0 28 9 52.5t32 44t62 32.5t99 18l283 23q15 2 19.5 8
t4.5 14v1q0 13 -14 23.5t-60 10.5h-2q-30 0 -46 -5t-24 -12t-10 -14.5t-2 -12.5h-338v12q0 18 3.5 38.5t16.5 40.5t38 38t68.5 31.5t107.5 21.5t156 8h57q96 0 163.5 -8.5t113.5 -22.5t72 -32t40 -37t17.5 -38t3.5 -35v-184q0 -17 14 -17h31v-177h-313q-42 0 -64 19t-27 49z
M540 -109q0 42 60 66t178 43h148q-26 -14 -44.5 -28t-18.5 -28v-1q0 -17 25 -17h38v-114h-207q-50 0 -84.5 5t-55.5 14.5t-30 23t-9 31.5v5z" />
    <glyph glyph-name="Cacute" unicode="&#x106;" horiz-adv-x="1198" 
d="M500 940h354l-92 -157h-318zM594 -15q-127 0 -219.5 17t-156.5 45.5t-104 66.5t-62 79.5t-29.5 84t-7.5 81.5v30q0 39 7.5 81.5t29 83.5t61 78.5t104 65.5t157 44.5t220.5 16.5h35q123 0 212 -16t151 -41.5t100 -59t58.5 -68.5t27.5 -69.5t7 -61.5v-15h-385q-2 6 -8 21.5
t-26 31.5t-58 28.5t-102 12.5t-103 -12.5t-60.5 -32.5t-29 -45t-7.5 -49v-12q0 -24 8 -50t29.5 -47.5t60.5 -35.5t102 -14q66 0 104 13.5t57.5 31t25.5 34t7 23.5h385v-26q0 -26 -7 -59.5t-27.5 -68.5t-58.5 -68.5t-99.5 -60t-151 -42.5t-212.5 -16h-35z" />
    <glyph glyph-name="cacute" unicode="&#x107;" horiz-adv-x="959" 
d="M409 744h342l-116 -168h-308zM450 -15q-105 0 -178 14t-122 37t-76 52.5t-41 60.5t-17 61.5t-3 54.5v14q0 24 3 53.5t16.5 60t41 59.5t76 51.5t121.5 36t178 13.5h72q100 0 171 -13t118.5 -34.5t75 -48.5t41.5 -55t18 -53.5t4 -44.5v-3h-369q0 7 -3.5 21t-13.5 28
t-28.5 25t-49.5 11h-5q-32 0 -51.5 -10t-30 -26t-13.5 -35.5t-3 -37.5v-1q0 -20 3 -41.5t13.5 -39t30 -29t51.5 -11.5h5q31 0 49.5 12t28.5 27.5t13.5 30.5t3.5 22h369v-3q0 -17 -3 -43t-16.5 -54.5t-40.5 -57.5t-74.5 -52t-119.5 -37.5t-175 -14.5h-70z" />
    <glyph glyph-name="Ccircumflex" unicode="&#x108;" horiz-adv-x="1198" 
d="M947 782h-289l-54 58l-55 -58h-286l162 158h358zM594 -15q-127 0 -219.5 17t-156.5 45.5t-104 66.5t-62 79.5t-29.5 84t-7.5 81.5v30q0 39 7.5 81.5t29 83.5t61 78.5t104 65.5t157 44.5t220.5 16.5h35q123 0 212 -16t151 -41.5t100 -59t58.5 -68.5t27.5 -69.5t7 -61.5
v-15h-385q-2 6 -8 21.5t-26 31.5t-58 28.5t-102 12.5t-103 -12.5t-60.5 -32.5t-29 -45t-7.5 -49v-12q0 -24 8 -50t29.5 -47.5t60.5 -35.5t102 -14q66 0 104 13.5t57.5 31t25.5 34t7 23.5h385v-26q0 -26 -7 -59.5t-27.5 -68.5t-58.5 -68.5t-99.5 -60t-151 -42.5t-212.5 -16
h-35z" />
    <glyph glyph-name="ccircumflex" unicode="&#x109;" horiz-adv-x="959" 
d="M809 574h-278l-52 65l-51 -65h-275l156 170h345zM450 -15q-105 0 -178 14t-122 37t-76 52.5t-41 60.5t-17 61.5t-3 54.5v14q0 24 3 53.5t16.5 60t41 59.5t76 51.5t121.5 36t178 13.5h72q100 0 171 -13t118.5 -34.5t75 -48.5t41.5 -55t18 -53.5t4 -44.5v-3h-369
q0 7 -3.5 21t-13.5 28t-28.5 25t-49.5 11h-5q-32 0 -51.5 -10t-30 -26t-13.5 -35.5t-3 -37.5v-1q0 -20 3 -41.5t13.5 -39t30 -29t51.5 -11.5h5q31 0 49.5 12t28.5 27.5t13.5 30.5t3.5 22h369v-3q0 -17 -3 -43t-16.5 -54.5t-40.5 -57.5t-74.5 -52t-119.5 -37.5t-175 -14.5
h-70z" />
    <glyph glyph-name="Cdotaccent" unicode="&#x10a;" horiz-adv-x="1198" 
d="M794 783h-368v157h368v-157zM594 -15q-127 0 -219.5 17t-156.5 45.5t-104 66.5t-62 79.5t-29.5 84t-7.5 81.5v30q0 39 7.5 81.5t29 83.5t61 78.5t104 65.5t157 44.5t220.5 16.5h35q123 0 212 -16t151 -41.5t100 -59t58.5 -68.5t27.5 -69.5t7 -61.5v-15h-385q-2 6 -8 21.5
t-26 31.5t-58 28.5t-102 12.5t-103 -12.5t-60.5 -32.5t-29 -45t-7.5 -49v-12q0 -24 8 -50t29.5 -47.5t60.5 -35.5t102 -14q66 0 104 13.5t57.5 31t25.5 34t7 23.5h385v-26q0 -26 -7 -59.5t-27.5 -68.5t-58.5 -68.5t-99.5 -60t-151 -42.5t-212.5 -16h-35z" />
    <glyph glyph-name="cdotaccent" unicode="&#x10b;" horiz-adv-x="959" 
d="M664 576h-366v168h366v-168zM450 -15q-105 0 -178 14t-122 37t-76 52.5t-41 60.5t-17 61.5t-3 54.5v14q0 24 3 53.5t16.5 60t41 59.5t76 51.5t121.5 36t178 13.5h72q100 0 171 -13t118.5 -34.5t75 -48.5t41.5 -55t18 -53.5t4 -44.5v-3h-369q0 7 -3.5 21t-13.5 28
t-28.5 25t-49.5 11h-5q-32 0 -51.5 -10t-30 -26t-13.5 -35.5t-3 -37.5v-1q0 -20 3 -41.5t13.5 -39t30 -29t51.5 -11.5h5q31 0 49.5 12t28.5 27.5t13.5 30.5t3.5 22h369v-3q0 -17 -3 -43t-16.5 -54.5t-40.5 -57.5t-74.5 -52t-119.5 -37.5t-175 -14.5h-70z" />
    <glyph glyph-name="Ccaron" unicode="&#x10c;" horiz-adv-x="1198" 
d="M260 940h291l54 -57l55 57h288l-161 -157h-362zM594 -15q-127 0 -219.5 17t-156.5 45.5t-104 66.5t-62 79.5t-29.5 84t-7.5 81.5v30q0 39 7.5 81.5t29 83.5t61 78.5t104 65.5t157 44.5t220.5 16.5h35q123 0 212 -16t151 -41.5t100 -59t58.5 -68.5t27.5 -69.5t7 -61.5v-15
h-385q-2 6 -8 21.5t-26 31.5t-58 28.5t-102 12.5t-103 -12.5t-60.5 -32.5t-29 -45t-7.5 -49v-12q0 -24 8 -50t29.5 -47.5t60.5 -35.5t102 -14q66 0 104 13.5t57.5 31t25.5 34t7 23.5h385v-26q0 -26 -7 -59.5t-27.5 -68.5t-58.5 -68.5t-99.5 -60t-151 -42.5t-212.5 -16h-35z
" />
    <glyph glyph-name="ccaron" unicode="&#x10d;" horiz-adv-x="959" 
d="M149 744h283l51 -70l52 70h280l-150 -168h-367zM450 -15q-105 0 -178 14t-122 37t-76 52.5t-41 60.5t-17 61.5t-3 54.5v14q0 24 3 53.5t16.5 60t41 59.5t76 51.5t121.5 36t178 13.5h72q100 0 171 -13t118.5 -34.5t75 -48.5t41.5 -55t18 -53.5t4 -44.5v-3h-369
q0 7 -3.5 21t-13.5 28t-28.5 25t-49.5 11h-5q-32 0 -51.5 -10t-30 -26t-13.5 -35.5t-3 -37.5v-1q0 -20 3 -41.5t13.5 -39t30 -29t51.5 -11.5h5q31 0 49.5 12t28.5 27.5t13.5 30.5t3.5 22h369v-3q0 -17 -3 -43t-16.5 -54.5t-40.5 -57.5t-74.5 -52t-119.5 -37.5t-175 -14.5
h-70z" />
    <glyph glyph-name="Dcaron" unicode="&#x10e;" horiz-adv-x="1199" 
d="M31 744h596q159 0 266.5 -28t172 -76t92 -112t27.5 -136v-31q0 -69 -23 -134.5t-84.5 -115.5t-170.5 -80.5t-280 -30.5h-596v744zM411 230h152q81 0 126.5 16t68.5 38.5t28.5 46.5t5.5 41v6q0 16 -6 39.5t-29 44.5t-69 36t-125 15h-152v-283zM174 940h288l54 -57l55 57
h285l-168 -164h-342z" />
    <glyph glyph-name="dcaron" unicode="&#x10f;" horiz-adv-x="977" 
d="M586 279q0 15 -5 32t-17 31t-32 23.5t-50 9.5h-4q-29 0 -47.5 -9.5t-29.5 -24t-15 -31.5t-4 -33v-5q0 -18 4 -36.5t15 -33.5t29 -25t47 -10h4q30 0 50.5 9.5t32.5 24.5t17 33.5t5 36.5v8zM950 744v-744h-364v71q-9 -8 -26 -21t-46.5 -25t-72 -20.5t-102.5 -8.5h-25
q-84 0 -141 23t-92.5 60t-51 84.5t-15.5 95.5v25q0 46 15 92t49.5 83t90.5 60t139 23h25q59 0 103 -7.5t74.5 -18t48.5 -21t27 -16.5v265h364zM981 744h257l-25 -176h-242z" />
    <glyph glyph-name="Dcroat" unicode="&#x110;" horiz-adv-x="1232" 
d="M64 287h-59v175h59v282h596q159 0 266.5 -28t172 -76t92 -112t27.5 -136v-31q0 -69 -23 -134.5t-84.5 -115.5t-170.5 -80.5t-280 -30.5h-596v287zM444 462h244v-175h-244v-57h152q81 0 126.5 16t68.5 38.5t28.5 46.5t5.5 41v6q0 16 -6 39.5t-29 44.5t-69 36t-125 15h-152
v-51z" />
    <glyph glyph-name="dcroat" unicode="&#x111;" horiz-adv-x="977" 
d="M347 698h656v-124h-656v124zM586 279q0 15 -5 32t-17 31t-32 23.5t-50 9.5h-4q-29 0 -47.5 -9.5t-29.5 -24t-15 -31.5t-4 -33v-5q0 -18 4 -36.5t15 -33.5t29 -25t47 -10h4q30 0 50.5 9.5t32.5 24.5t17 33.5t5 36.5v8zM950 744v-744h-364v71q-9 -8 -26 -21t-46.5 -25
t-72 -20.5t-102.5 -8.5h-25q-84 0 -141 23t-92.5 60t-51 84.5t-15.5 95.5v25q0 46 15 92t49.5 83t90.5 60t139 23h25q59 0 103 -7.5t74.5 -18t48.5 -21t27 -16.5v265h364z" />
    <glyph glyph-name="Emacron" unicode="&#x112;" horiz-adv-x="955" 
d="M928 744v-208h-523v-58h517v-204h-517v-64h527v-210h-901v744h897zM227 926h524v-142h-524v142z" />
    <glyph glyph-name="emacron" unicode="&#x113;" horiz-adv-x="960" 
d="M589 347q-2 12 -8 23t-18 19.5t-32 13t-50 4.5q-32 0 -52 -5t-32 -13.5t-17 -19t-7 -22.5h216zM949 204q0 -19 -5 -43t-21 -48.5t-46 -47.5t-80 -40.5t-123 -28.5t-175 -11h-45q-103 0 -176 14t-122 37t-77.5 52.5t-43 61t-18.5 62t-4 55.5v14q0 25 4 55t19 60t43.5 58.5
t77.5 50.5t122 35t176 13h44q105 0 179.5 -13.5t124.5 -36.5t79 -53t44 -63.5t19 -68t4 -65.5v-14h-577q1 -15 6.5 -30.5t17.5 -28.5t33 -21t54 -8q36 0 56.5 7t31.5 16.5t14.5 18.5t4.5 13h359v-2zM228 726h509v-142h-509v142z" />
    <glyph glyph-name="Ebreve" unicode="&#x114;" horiz-adv-x="955" 
d="M928 744v-208h-523v-58h517v-204h-517v-64h527v-210h-901v744h897zM469 773q-82 0 -130.5 20.5t-74 49.5t-33 60.5t-7.5 53.5v2h206q0 -4 2 -12.5t9 -17t19.5 -15t33.5 -6.5h2q21 0 33 6.5t18.5 15t8.5 17t2 12.5h203v-2q0 -22 -9.5 -53.5t-36 -60.5t-73.5 -49.5
t-122 -20.5h-51v0z" />
    <glyph glyph-name="ebreve" unicode="&#x115;" horiz-adv-x="960" 
d="M456 573q-77 0 -124 19t-73 45.5t-34.5 55.5t-8.5 49v2h203q0 -4 3 -10.5t10 -13t19 -11.5t32 -5h2q19 0 31 5t18.5 11.5t9 13t3.5 10.5h201v-2q0 -20 -11 -49t-38 -55.5t-73 -45.5t-116 -19h-54v0zM589 347q-2 12 -8 23t-18 19.5t-32 13t-50 4.5q-32 0 -52 -5t-32 -13.5
t-17 -19t-7 -22.5h216zM949 204q0 -19 -5 -43t-21 -48.5t-46 -47.5t-80 -40.5t-123 -28.5t-175 -11h-45q-103 0 -176 14t-122 37t-77.5 52.5t-43 61t-18.5 62t-4 55.5v14q0 25 4 55t19 60t43.5 58.5t77.5 50.5t122 35t176 13h44q105 0 179.5 -13.5t124.5 -36.5t79 -53
t44 -63.5t19 -68t4 -65.5v-14h-577q1 -15 6.5 -30.5t17.5 -28.5t33 -21t54 -8q36 0 56.5 7t31.5 16.5t14.5 18.5t4.5 13h359v-2z" />
    <glyph glyph-name="Edotaccent" unicode="&#x116;" horiz-adv-x="955" 
d="M928 744v-208h-523v-58h517v-204h-517v-64h527v-210h-901v744h897zM674 776h-364v175h364v-175z" />
    <glyph glyph-name="edotaccent" unicode="&#x117;" horiz-adv-x="960" 
d="M666 576h-366v168h366v-168zM589 347q-2 12 -8 23t-18 19.5t-32 13t-50 4.5q-32 0 -52 -5t-32 -13.5t-17 -19t-7 -22.5h216zM949 204q0 -19 -5 -43t-21 -48.5t-46 -47.5t-80 -40.5t-123 -28.5t-175 -11h-45q-103 0 -176 14t-122 37t-77.5 52.5t-43 61t-18.5 62t-4 55.5
v14q0 25 4 55t19 60t43.5 58.5t77.5 50.5t122 35t176 13h44q105 0 179.5 -13.5t124.5 -36.5t79 -53t44 -63.5t19 -68t4 -65.5v-14h-577q1 -15 6.5 -30.5t17.5 -28.5t33 -21t54 -8q36 0 56.5 7t31.5 16.5t14.5 18.5t4.5 13h359v-2z" />
    <glyph glyph-name="Eogonek" unicode="&#x118;" horiz-adv-x="955" 
d="M446 -109q0 42 60 66t178 43h148q-26 -14 -44.5 -28t-18.5 -28v-1q0 -17 25 -17h41v-114h-210q-50 0 -84.5 5t-55.5 14.5t-30 23t-9 31.5v5zM928 744v-208h-523v-58h517v-204h-517v-64h527v-210h-901v744h897z" />
    <glyph glyph-name="eogonek" unicode="&#x119;" horiz-adv-x="960" 
d="M809 -188h-210q-50 0 -84.5 5t-55.5 14.5t-30 23t-9 31.5v5q0 19 13 34t40.5 27t72 22t107.5 20q-31 -4 -71.5 -6.5t-82.5 -2.5h-45q-103 0 -176 14t-122 37t-77.5 52.5t-43 61t-18.5 62t-4 55.5v14q0 25 4 55t19 60t43.5 58.5t77.5 50.5t122 35t176 13h44
q105 0 179.5 -13.5t124.5 -36.5t79 -53t44 -63.5t19 -68t4 -65.5v-14h-577q1 -15 6.5 -30.5t17.5 -28.5t33 -21t54 -8q36 0 56.5 7t31.5 16.5t14.5 18.5t4.5 13h359v-2q0 -27 -7.5 -52t-24.5 -49t-44.5 -48t-66.5 -50q-25 -17 -44 -31t-19 -30v-1q0 -17 25 -17h41v-114z
M589 347q-2 12 -8 23t-18 19.5t-32 13t-50 4.5q-32 0 -52 -5t-32 -13.5t-17 -19t-7 -22.5h216z" />
    <glyph glyph-name="Ecaron" unicode="&#x11a;" horiz-adv-x="955" 
d="M928 744v-208h-523v-58h517v-204h-517v-64h527v-210h-901v744h897zM151 940h288l54 -57l55 57h285l-168 -164h-342z" />
    <glyph glyph-name="ecaron" unicode="&#x11b;" horiz-adv-x="960" 
d="M150 744h283l51 -70l52 70h280l-150 -168h-367zM589 347q-2 12 -8 23t-18 19.5t-32 13t-50 4.5q-32 0 -52 -5t-32 -13.5t-17 -19t-7 -22.5h216zM949 204q0 -19 -5 -43t-21 -48.5t-46 -47.5t-80 -40.5t-123 -28.5t-175 -11h-45q-103 0 -176 14t-122 37t-77.5 52.5t-43 61
t-18.5 62t-4 55.5v14q0 25 4 55t19 60t43.5 58.5t77.5 50.5t122 35t176 13h44q105 0 179.5 -13.5t124.5 -36.5t79 -53t44 -63.5t19 -68t4 -65.5v-14h-577q1 -15 6.5 -30.5t17.5 -28.5t33 -21t54 -8q36 0 56.5 7t31.5 16.5t14.5 18.5t4.5 13h359v-2z" />
    <glyph glyph-name="Gcircumflex" unicode="&#x11c;" horiz-adv-x="1231" 
d="M962 782h-289l-54 58l-55 -58h-286l162 158h358zM530 -15q-156 0 -256 34.5t-157.5 89t-79.5 121t-22 130.5v30q0 71 25 137.5t89.5 118t175 82.5t282.5 31h32q132 0 226 -14.5t158 -38t102 -54.5t58.5 -63.5t26.5 -65t6 -59.5v-1h-388q-2 7 -9.5 19t-28 23.5t-58 20
t-99.5 8.5q-56 0 -95 -11.5t-64 -31.5t-36.5 -48t-11.5 -62v-9q0 -35 11 -65.5t35.5 -53t63 -35.5t94.5 -13q55 0 91.5 7.5t58 18t30 21.5t8.5 19h-201v152h604v-423h-255q-5 16 -18 40t-27 38q-9 -8 -31.5 -23.5t-63 -31t-101.5 -27t-149 -11.5h-26z" />
    <glyph glyph-name="gcircumflex" unicode="&#x11d;" horiz-adv-x="991" 
d="M482 367q-29 0 -48.5 -7.5t-31.5 -19.5t-17.5 -27.5t-5.5 -31.5v-3q0 -17 5.5 -34t17.5 -30.5t31.5 -21.5t48.5 -8h5q30 0 51 8t35 21.5t20.5 30t6.5 34.5v3q0 16 -6.5 31.5t-20.5 27.5t-35 19.5t-51 7.5h-5zM445 -196q-124 0 -202 19t-121.5 47.5t-59 62t-15.5 63.5v4
h364q1 -5 4.5 -10.5t11.5 -11t23 -9t39 -3.5h3q51 0 79.5 25.5t28.5 76.5v32q-9 -9 -26 -22.5t-47 -26.5t-76 -22t-113 -9h-23q-89 0 -147 23.5t-92.5 60t-48 82t-13.5 90.5v12q0 45 14.5 90t49.5 81.5t93 59t146 22.5h24q63 0 107.5 -7.5t74.5 -18t48 -21.5t29 -18v62h364
v-464q0 -48 -18 -96.5t-66 -87t-131.5 -62.5t-214.5 -24h-89zM806 569h-278l-52 70l-51 -70h-275l156 175h345z" />
    <glyph glyph-name="Gbreve" unicode="&#x11e;" horiz-adv-x="1231" 
d="M530 -15q-156 0 -256 34.5t-157.5 89t-79.5 121t-22 130.5v30q0 71 25 137.5t89.5 118t175 82.5t282.5 31h32q132 0 226 -14.5t158 -38t102 -54.5t58.5 -63.5t26.5 -65t6 -59.5v-1h-388q-2 7 -9.5 19t-28 23.5t-58 20t-99.5 8.5q-56 0 -95 -11.5t-64 -31.5t-36.5 -48
t-11.5 -62v-9q0 -35 11 -65.5t35.5 -53t63 -35.5t94.5 -13q55 0 91.5 7.5t58 18t30 21.5t8.5 19h-201v152h604v-423h-255q-5 16 -18 40t-27 38q-9 -8 -31.5 -23.5t-63 -31t-101.5 -27t-149 -11.5h-26zM597 780q-82 0 -130.5 20.5t-74 49.5t-33 60.5t-7.5 53.5v2h206
q0 -4 2 -12.5t9 -17t19.5 -15t33.5 -6.5h2q21 0 33 6.5t18.5 15t8.5 17t2 12.5h203v-2q0 -22 -9.5 -53.5t-36 -60.5t-73.5 -49.5t-122 -20.5h-51v0z" />
    <glyph glyph-name="gbreve" unicode="&#x11f;" horiz-adv-x="991" 
d="M482 367q-29 0 -48.5 -7.5t-31.5 -19.5t-17.5 -27.5t-5.5 -31.5v-3q0 -17 5.5 -34t17.5 -30.5t31.5 -21.5t48.5 -8h5q30 0 51 8t35 21.5t20.5 30t6.5 34.5v3q0 16 -6.5 31.5t-20.5 27.5t-35 19.5t-51 7.5h-5zM445 -196q-124 0 -202 19t-121.5 47.5t-59 62t-15.5 63.5v4
h364q1 -5 4.5 -10.5t11.5 -11t23 -9t39 -3.5h3q51 0 79.5 25.5t28.5 76.5v32q-9 -9 -26 -22.5t-47 -26.5t-76 -22t-113 -9h-23q-89 0 -147 23.5t-92.5 60t-48 82t-13.5 90.5v12q0 45 14.5 90t49.5 81.5t93 59t146 22.5h24q63 0 107.5 -7.5t74.5 -18t48 -21.5t29 -18v62h364
v-464q0 -48 -18 -96.5t-66 -87t-131.5 -62.5t-214.5 -24h-89zM737 742q0 -22 -10.5 -52.5t-37 -58t-72.5 -46.5t-118 -19h-54q-78 0 -125.5 19t-73 46.5t-33.5 58t-8 52.5v2h202v-1q0 -5 2.5 -12.5t9 -14.5t19.5 -12.5t34 -5.5h2q20 0 32.5 5.5t19 12.5t9 14.5t2.5 12.5v1
h200v-2v0z" />
    <glyph glyph-name="Gdotaccent" unicode="&#x120;" horiz-adv-x="1231" 
d="M804 783h-368v157h368v-157zM530 -15q-156 0 -256 34.5t-157.5 89t-79.5 121t-22 130.5v30q0 71 25 137.5t89.5 118t175 82.5t282.5 31h32q132 0 226 -14.5t158 -38t102 -54.5t58.5 -63.5t26.5 -65t6 -59.5v-1h-388q-2 7 -9.5 19t-28 23.5t-58 20t-99.5 8.5
q-56 0 -95 -11.5t-64 -31.5t-36.5 -48t-11.5 -62v-9q0 -35 11 -65.5t35.5 -53t63 -35.5t94.5 -13q55 0 91.5 7.5t58 18t30 21.5t8.5 19h-201v152h604v-423h-255q-5 16 -18 40t-27 38q-9 -8 -31.5 -23.5t-63 -31t-101.5 -27t-149 -11.5h-26z" />
    <glyph glyph-name="gdotaccent" unicode="&#x121;" horiz-adv-x="991" 
d="M482 367q-29 0 -48.5 -7.5t-31.5 -19.5t-17.5 -27.5t-5.5 -31.5v-3q0 -17 5.5 -34t17.5 -30.5t31.5 -21.5t48.5 -8h5q30 0 51 8t35 21.5t20.5 30t6.5 34.5v3q0 16 -6.5 31.5t-20.5 27.5t-35 19.5t-51 7.5h-5zM445 -196q-124 0 -202 19t-121.5 47.5t-59 62t-15.5 63.5v4
h364q1 -5 4.5 -10.5t11.5 -11t23 -9t39 -3.5h3q51 0 79.5 25.5t28.5 76.5v32q-9 -9 -26 -22.5t-47 -26.5t-76 -22t-113 -9h-23q-89 0 -147 23.5t-92.5 60t-48 82t-13.5 90.5v12q0 45 14.5 90t49.5 81.5t93 59t146 22.5h24q63 0 107.5 -7.5t74.5 -18t48 -21.5t29 -18v62h364
v-464q0 -48 -18 -96.5t-66 -87t-131.5 -62.5t-214.5 -24h-89zM661 569h-364v175h364v-175z" />
    <glyph glyph-name="uni0122" unicode="&#x122;" horiz-adv-x="1231" 
d="M530 -15q-156 0 -256 34.5t-157.5 89t-79.5 121t-22 130.5v30q0 71 25 137.5t89.5 118t175 82.5t282.5 31h32q132 0 226 -14.5t158 -38t102 -54.5t58.5 -63.5t26.5 -65t6 -59.5v-1h-388q-2 7 -9.5 19t-28 23.5t-58 20t-99.5 8.5q-56 0 -95 -11.5t-64 -31.5t-36.5 -48
t-11.5 -62v-9q0 -35 11 -65.5t35.5 -53t63 -35.5t94.5 -13q55 0 91.5 7.5t58 18t30 21.5t8.5 19h-201v152h604v-423h-255q-5 16 -18 40t-27 38q-9 -8 -31.5 -23.5t-63 -31t-101.5 -27t-149 -11.5h-26zM479 -331q7 10 15 26t14.5 32t11.5 31t6 24h-137v176h323v-135
q0 -18 -7.5 -39.5t-18 -43t-23 -40.5t-22.5 -31h-162z" />
    <glyph glyph-name="uni0123" unicode="&#x123;" horiz-adv-x="991" 
d="M482 367q-29 0 -48.5 -7.5t-31.5 -19.5t-17.5 -27.5t-5.5 -31.5v-3q0 -17 5.5 -34t17.5 -30.5t31.5 -21.5t48.5 -8h5q30 0 51 8t35 21.5t20.5 30t6.5 34.5v3q0 16 -6.5 31.5t-20.5 27.5t-35 19.5t-51 7.5h-5zM445 -196q-124 0 -202 19t-121.5 47.5t-59 62t-15.5 63.5v4
h364q1 -5 4.5 -10.5t11.5 -11t23 -9t39 -3.5h3q51 0 79.5 25.5t28.5 76.5v32q-9 -9 -26 -22.5t-47 -26.5t-76 -22t-113 -9h-23q-89 0 -147 23.5t-92.5 60t-48 82t-13.5 90.5v12q0 45 14.5 90t49.5 81.5t93 59t146 22.5h24q63 0 107.5 -7.5t74.5 -18t48 -21.5t29 -18v62h364
v-464q0 -48 -18 -96.5t-66 -87t-131.5 -62.5t-214.5 -24h-89zM544 858q-7 -11 -15 -26.5t-14.5 -31.5t-11.5 -31t-6 -24h136v-176h-324v135q0 18 7.5 39.5t18 43t23 40.5t22.5 31h164z" />
    <glyph glyph-name="Hcircumflex" unicode="&#x124;" horiz-adv-x="1220" 
d="M31 744h380v-247h398v247h380v-744h-380v265h-398v-265h-380v744zM951 775h-288l-54 58l-55 -58h-285l169 165h342z" />
    <glyph glyph-name="hcircumflex" unicode="&#x125;" horiz-adv-x="988" 
d="M27 744h364v-307q9 9 31 27.5t58.5 37.5t88.5 33.5t120 14.5h5q85 0 137.5 -22.5t81.5 -54t38.5 -64.5t9.5 -53v-356h-364v241q0 19 -4.5 38t-16 33t-31.5 23t-51 9q-29 0 -48.5 -8.5t-31.5 -23t-17.5 -33t-5.5 -37.5v-242h-364v744zM782 774h-288l-54 58l-55 -58h-285
l169 165h342z" />
    <glyph glyph-name="Hbar" unicode="&#x126;" horiz-adv-x="1264" 
d="M1 689h1262v-132h-1262v132zM53 744h380v-247h398v247h380v-744h-380v265h-398v-265h-380v744z" />
    <glyph glyph-name="hbar" unicode="&#x127;" horiz-adv-x="988" 
d="M630 698v-124h-656v124h656zM27 744h364v-307q9 9 31 27.5t58.5 37.5t88.5 33.5t120 14.5h5q85 0 137.5 -22.5t81.5 -54t38.5 -64.5t9.5 -53v-356h-364v241q0 19 -4.5 38t-16 33t-31.5 23t-51 9q-29 0 -48.5 -8.5t-31.5 -23t-17.5 -33t-5.5 -37.5v-242h-364v744z" />
    <glyph glyph-name="Itilde" unicode="&#x128;" horiz-adv-x="441" 
d="M410 0h-379v744h379v-744zM356 775q-21 0 -37 1.5t-32 5.5t-35 9.5t-45 13.5t-38.5 11.5t-22.5 3.5t-12.5 -7t-2.5 -14v-24h-188v90q0 15 4.5 32.5t19 32.5t41.5 24.5t71 9.5h2q19 0 35 -1.5t33 -5t37 -9.5t49 -14q20 -6 33 -9.5t22 -3.5q14 0 14 16v27h191v-77
q0 -16 -4 -35.5t-17.5 -36.5t-41 -28.5t-73.5 -11.5h-3v0z" />
    <glyph glyph-name="itilde" unicode="&#x129;" horiz-adv-x="418" 
d="M317 568q-15 0 -27 1.5t-25 5t-29 9.5t-37 14q-20 8 -28.5 11t-15.5 3q-8 0 -10.5 -6.5t-2.5 -14.5v-23h-152v88q0 15 3.5 32.5t15 32.5t33 24.5t57.5 9.5h1q13 0 25.5 -1t26.5 -4.5t31 -9.5t40 -15q15 -6 24 -9.5t17 -3.5q11 0 11 16v27h153v-75q0 -16 -3 -35.5
t-14 -36.5t-33 -28.5t-59 -11.5h-2v0zM391 0h-364v538h364v-538z" />
    <glyph glyph-name="Imacron" unicode="&#x12a;" horiz-adv-x="441" 
d="M-33 926h507v-142h-507v142zM410 0h-379v744h379v-744z" />
    <glyph glyph-name="imacron" unicode="&#x12b;" horiz-adv-x="418" 
d="M-11 719h440v-142h-440v142zM391 0h-364v538h364v-538z" />
    <glyph glyph-name="Ibreve" unicode="&#x12c;" horiz-adv-x="441" 
d="M410 0h-379v744h379v-744zM197 773q-82 0 -130.5 20.5t-74 49.5t-33 60.5t-7.5 53.5v2h206q0 -4 2 -12.5t9 -17t19.5 -15t33.5 -6.5h2q21 0 33 6.5t18.5 15t8.5 17t2 12.5h203v-2q0 -22 -9.5 -53.5t-36 -60.5t-73.5 -49.5t-122 -20.5h-51v0z" />
    <glyph glyph-name="ibreve" unicode="&#x12d;" horiz-adv-x="418" 
d="M434 742q0 -19 -7.5 -49.5t-30.5 -59t-65.5 -49t-113.5 -20.5h-14q-51 0 -87.5 9.5t-61 25t-38.5 35t-21 39.5t-9 38t-2 31v2h181v-1q0 -5 2 -12.5t7 -14.5t13.5 -12t22.5 -5h2q13 0 21.5 5t13 12t6.5 14.5t2 12.5v1h179v-2v0zM391 0h-364v538h364v-538z" />
    <glyph glyph-name="Iogonek" unicode="&#x12e;" horiz-adv-x="441" 
d="M410 0h-379v744h379v-744zM24 -109q0 42 60 66t178 43h148q-26 -14 -44.5 -28t-18.5 -28v-1q0 -17 25 -17h38v-114h-207q-50 0 -84.5 5t-55.5 14.5t-30 23t-9 31.5v5z" />
    <glyph glyph-name="iogonek" unicode="&#x12f;" horiz-adv-x="418" 
d="M391 569h-364v175h364v-175zM391 0h-364v538h364v-538zM5 -109q0 42 60 66t178 43h148q-26 -14 -44.5 -28t-18.5 -28v-1q0 -17 25 -17h38v-114h-207q-50 0 -84.5 5t-55.5 14.5t-30 23t-9 31.5v5z" />
    <glyph glyph-name="Idotaccent" unicode="&#x130;" horiz-adv-x="441" 
d="M410 0h-379v744h379v-744zM402 776h-364v175h364v-175z" />
    <glyph glyph-name="dotlessi" unicode="&#x131;" horiz-adv-x="418" 
d="M391 0h-364v538h364v-538z" />
    <glyph glyph-name="IJ" unicode="&#x132;" horiz-adv-x="1482" 
d="M410 0h-379v744h379v-744zM891 -11q-109 0 -184.5 19.5t-125.5 50.5t-78 70.5t-41.5 79.5t-16.5 76.5t-3 63.5v7h360q1 -9 4.5 -25.5t16 -33t39 -29t74.5 -12.5h2q43 0 70 12t41.5 31.5t19.5 43t5 47.5v354h381v-359q0 -39 -4.5 -83.5t-20.5 -88.5t-48 -84.5t-86.5 -71.5
t-135.5 -49.5t-196 -18.5h-73v0z" />
    <glyph glyph-name="ij" unicode="&#x133;" horiz-adv-x="830" 
d="M391 569h-364v175h364v-175zM391 0h-364v538h364v-538zM803 569h-364v175h364v-175zM406 -20q21 0 27 6t6 29v523h364v-562q0 -49 -11 -80.5t-29.5 -50t-42 -26t-48.5 -7.5h-293v168h27z" />
    <glyph glyph-name="Jcircumflex" unicode="&#x134;" horiz-adv-x="1047" 
d="M456 -11q-109 0 -184.5 19.5t-125.5 50.5t-78 70.5t-41.5 79.5t-16.5 76.5t-3 63.5v7h360q1 -9 4.5 -25.5t16 -33t39 -29t74.5 -12.5h2q43 0 70 12t41.5 31.5t19.5 43t5 47.5v354h381v-359q0 -39 -4.5 -83.5t-20.5 -88.5t-48 -84.5t-86.5 -71.5t-135.5 -49.5t-196 -18.5
h-73v0zM1163 775h-288l-54 58l-55 -58h-285l169 165h342z" />
    <glyph glyph-name="jcircumflex" unicode="&#x135;" horiz-adv-x="418" 
d="M469 569h-222l-41 70l-40 -70h-219l114 175h295zM-6 -20q21 0 27 6t6 29v523h364v-562q0 -49 -11 -80.5t-29.5 -50t-42 -26t-48.5 -7.5h-293v168h27z" />
    <glyph glyph-name="uni0136" unicode="&#x136;" horiz-adv-x="1196" 
d="M31 0v744h380v-264l338 264h462l-442 -334l444 -410h-496l-306 297v-297h-380zM493 -320q7 10 15 26t14.5 32t11.5 31t6 24h-137v176h323v-135q0 -18 -7.5 -39.5t-18 -43t-23 -40.5t-22.5 -31h-162z" />
    <glyph glyph-name="uni0137" unicode="&#x137;" horiz-adv-x="915" 
d="M27 0v744h364v-401l119 195h382l-151 -224l185 -314h-400l-135 229v-229h-364zM384 -320q7 10 15 26t14.5 32t11.5 31t6 24h-137v176h323v-135q0 -18 -7.5 -39.5t-18 -43t-23 -40.5t-22.5 -31h-162z" />
    <glyph glyph-name="Lacute" unicode="&#x139;" horiz-adv-x="948" 
d="M411 744v-479h516v-265h-896v744h380zM120 940h354l-94 -164h-318z" />
    <glyph glyph-name="lacute" unicode="&#x13a;" horiz-adv-x="418" 
d="M136 940h342l-114 -165h-308zM391 0h-364v744h364v-744z" />
    <glyph glyph-name="uni013B" unicode="&#x13b;" horiz-adv-x="948" 
d="M411 744v-479h516v-265h-896v744h380zM407 -320q7 10 15 26t14.5 32t11.5 31t6 24h-137v176h323v-135q0 -18 -7.5 -39.5t-18 -43t-23 -40.5t-22.5 -31h-162z" />
    <glyph glyph-name="uni013C" unicode="&#x13c;" horiz-adv-x="418" 
d="M391 0h-364v744h364v-744zM137 -320q7 10 15 26t14.5 32t11.5 31t6 24h-137v176h323v-135q0 -18 -7.5 -39.5t-18 -43t-23 -40.5t-22.5 -31h-162z" />
    <glyph glyph-name="Lcaron" unicode="&#x13d;" horiz-adv-x="948" 
d="M411 744v-479h516v-265h-896v744h380zM442 744h257l-25 -176h-242z" />
    <glyph glyph-name="lcaron" unicode="&#x13e;" horiz-adv-x="418" 
d="M422 744h257l-25 -176h-242zM391 0h-364v744h364v-744z" />
    <glyph glyph-name="Ldot" unicode="&#x13f;" horiz-adv-x="948" 
d="M411 744v-479h516v-265h-896v744h380zM881 332h-358v232h358v-232z" />
    <glyph glyph-name="ldot" unicode="&#x140;" horiz-adv-x="780" 
d="M775 268h-358v232h358v-232zM391 0h-364v744h364v-744z" />
    <glyph glyph-name="Lslash" unicode="&#x141;" horiz-adv-x="984" 
d="M447 744v-248l287 99v-171l-287 -96v-63h516v-265h-896v201l-66 -22v165l66 22v378h380z" />
    <glyph glyph-name="lslash" unicode="&#x142;" horiz-adv-x="480" 
d="M422 0h-364v220l-51 -18v179l51 18v345h364v-216l51 18v-179l-51 -18v-349z" />
    <glyph glyph-name="Nacute" unicode="&#x143;" horiz-adv-x="1221" 
d="M460 744l350 -338v338h380v-744h-387l-392 372v-372h-380v744h429zM510 940h354l-94 -164h-318z" />
    <glyph glyph-name="nacute" unicode="&#x144;" horiz-adv-x="988" 
d="M27 538h364v-101q9 9 31 27.5t58.5 37.5t88.5 33.5t120 14.5h5q85 0 137.5 -22.5t81.5 -54t38.5 -64.5t9.5 -53v-356h-364v241q0 19 -4.5 38t-16 33t-31.5 23t-51 9q-29 0 -48.5 -8.5t-31.5 -23t-17.5 -33t-5.5 -37.5v-242h-364v538zM432 744h342l-119 -175h-308z" />
    <glyph glyph-name="uni0145" unicode="&#x145;" horiz-adv-x="1221" 
d="M460 744l350 -338v338h380v-744h-387l-392 372v-372h-380v744h429zM538 -320q7 10 15 26t14.5 32t11.5 31t6 24h-137v176h323v-135q0 -18 -7.5 -39.5t-18 -43t-23 -40.5t-22.5 -31h-162z" />
    <glyph glyph-name="uni0146" unicode="&#x146;" horiz-adv-x="988" 
d="M27 538h364v-101q9 9 31 27.5t58.5 37.5t88.5 33.5t120 14.5h5q85 0 137.5 -22.5t81.5 -54t38.5 -64.5t9.5 -53v-356h-364v241q0 19 -4.5 38t-16 33t-31.5 23t-51 9q-29 0 -48.5 -8.5t-31.5 -23t-17.5 -33t-5.5 -37.5v-242h-364v538zM426 -320q7 10 15 26t14.5 32
t11.5 31t6 24h-137v176h323v-135q0 -18 -7.5 -39.5t-18 -43t-23 -40.5t-22.5 -31h-162z" />
    <glyph glyph-name="Ncaron" unicode="&#x147;" horiz-adv-x="1221" 
d="M460 744l350 -338v338h380v-744h-387l-392 372v-372h-380v744h429zM269 940h288l54 -57l55 57h285l-168 -164h-342z" />
    <glyph glyph-name="ncaron" unicode="&#x148;" horiz-adv-x="988" 
d="M27 538h364v-101q9 9 31 27.5t58.5 37.5t88.5 33.5t120 14.5h5q85 0 137.5 -22.5t81.5 -54t38.5 -64.5t9.5 -53v-356h-364v241q0 19 -4.5 38t-16 33t-31.5 23t-51 9q-29 0 -48.5 -8.5t-31.5 -23t-17.5 -33t-5.5 -37.5v-242h-364v538zM176 744h278l51 -70l52 70h275
l-156 -175h-345z" />
    <glyph glyph-name="napostrophe" unicode="&#x149;" horiz-adv-x="1307" 
d="M346 538h364v-101q9 9 31 27.5t58.5 37.5t88.5 33.5t120 14.5h5q85 0 137.5 -22.5t81.5 -54t38.5 -64.5t9.5 -53v-356h-364v241q0 19 -4.5 38t-16 33t-31.5 23t-51 9q-29 0 -48.5 -8.5t-31.5 -23t-17.5 -33t-5.5 -37.5v-242h-364v538zM90 431q6 12 13.5 28t14 32.5
t12 32.5t7.5 29h-134v191h334v-150q0 -22 -8 -45.5t-19 -45.5t-24.5 -41t-23.5 -31h-172z" />
    <glyph glyph-name="Eng" unicode="&#x14a;" horiz-adv-x="1222" 
d="M1191 18q0 -53 -14 -92t-36.5 -64.5t-52 -37.5t-60.5 -12h-321v180h76q17 0 17 12q0 7 -5 12.5t-20 19.5l-364 336v-372h-380v744h429l350 -338v338h381v-726v0z" />
    <glyph glyph-name="eng" unicode="&#x14b;" horiz-adv-x="988" 
d="M961 -30q0 -48 -11.5 -79.5t-29.5 -50t-40 -26t-43 -7.5h-321v188h49q19 0 25.5 7t6.5 28v211q0 19 -4.5 38t-16 33t-31.5 23t-51 9q-29 0 -48.5 -8.5t-31.5 -23t-17.5 -33t-5.5 -37.5v-242h-364v538h364v-101q9 9 31 27.5t58.5 37.5t88.5 33.5t120 14.5h5
q85 0 137.5 -22.5t81.5 -54t38.5 -64.5t9.5 -53v-386z" />
    <glyph glyph-name="Omacron" unicode="&#x14c;" horiz-adv-x="1238" 
d="M644 759q126 0 217.5 -16.5t156 -44.5t104.5 -65.5t62.5 -78.5t30.5 -83.5t8 -81.5v-30q0 -38 -8 -80.5t-30.5 -84.5t-62.5 -79.5t-104.5 -66.5t-156.5 -46t-217 -17h-50q-125 0 -216.5 17t-156 46t-105 66.5t-63 79.5t-30.5 84.5t-8 80.5v30q0 39 8 81.5t30.5 83.5
t62.5 78.5t104.5 65.5t156 44.5t217.5 16.5h50zM831 383q0 24 -10.5 49t-35 45t-65.5 32.5t-102 12.5q-62 0 -103 -12.5t-65 -32.5t-34 -45t-10 -49v-12q0 -25 10.5 -51t35.5 -47.5t65.5 -35t100.5 -13.5q61 0 101.5 13t65.5 34t35.5 47t10.5 51v14zM357 933h524v-142h-524
v142z" />
    <glyph glyph-name="omacron" unicode="&#x14d;" horiz-adv-x="1005" 
d="M462 -15q-102 0 -175.5 14t-123.5 37t-79.5 52.5t-45 60.5t-20.5 61.5t-5 54.5v14q0 24 5 53.5t20.5 60t45.5 59.5t79.5 51.5t122.5 36t175 13.5h84q104 0 178 -13.5t123.5 -36t78.5 -51.5t44 -59t19 -59.5t4 -53.5v-16q0 -24 -4.5 -54t-19.5 -61t-44 -60.5t-79 -52.5
t-124 -37t-178 -14h-81zM504 154q37 0 60 12.5t36 30.5t18 39.5t5 39.5q0 16 -4.5 35t-17.5 35.5t-36.5 27.5t-60.5 11h-3q-37 0 -60 -11t-36 -27.5t-18 -35.5t-5 -35q0 -18 4.5 -39.5t17.5 -40t36 -30.5t61 -12h3zM249 726h509v-142h-509v142z" />
    <glyph glyph-name="Obreve" unicode="&#x14e;" horiz-adv-x="1238" 
d="M644 759q126 0 217.5 -16.5t156 -44.5t104.5 -65.5t62.5 -78.5t30.5 -83.5t8 -81.5v-30q0 -38 -8 -80.5t-30.5 -84.5t-62.5 -79.5t-104.5 -66.5t-156.5 -46t-217 -17h-50q-125 0 -216.5 17t-156 46t-105 66.5t-63 79.5t-30.5 84.5t-8 80.5v30q0 39 8 81.5t30.5 83.5
t62.5 78.5t104.5 65.5t156 44.5t217.5 16.5h50zM831 383q0 24 -10.5 49t-35 45t-65.5 32.5t-102 12.5q-62 0 -103 -12.5t-65 -32.5t-34 -45t-10 -49v-12q0 -25 10.5 -51t35.5 -47.5t65.5 -35t100.5 -13.5q61 0 101.5 13t65.5 34t35.5 47t10.5 51v14zM596 780
q-82 0 -130.5 20.5t-74 49.5t-33 60.5t-7.5 53.5v2h206q0 -4 2 -12.5t9 -17t19.5 -15t33.5 -6.5h2q21 0 33 6.5t18.5 15t8.5 17t2 12.5h203v-2q0 -22 -9.5 -53.5t-36 -60.5t-73.5 -49.5t-122 -20.5h-51v0z" />
    <glyph glyph-name="obreve" unicode="&#x14f;" horiz-adv-x="1005" 
d="M476 573q-77 0 -124 19t-73 45.5t-34.5 55.5t-8.5 49v2h203q0 -4 3 -10.5t10 -13t19 -11.5t32 -5h2q19 0 31 5t18.5 11.5t9 13t3.5 10.5h201v-2q0 -20 -11 -49t-38 -55.5t-73 -45.5t-116 -19h-54v0zM462 -15q-102 0 -175.5 14t-123.5 37t-79.5 52.5t-45 60.5t-20.5 61.5
t-5 54.5v14q0 24 5 53.5t20.5 60t45.5 59.5t79.5 51.5t122.5 36t175 13.5h84q104 0 178 -13.5t123.5 -36t78.5 -51.5t44 -59t19 -59.5t4 -53.5v-16q0 -24 -4.5 -54t-19.5 -61t-44 -60.5t-79 -52.5t-124 -37t-178 -14h-81zM504 154q37 0 60 12.5t36 30.5t18 39.5t5 39.5
q0 16 -4.5 35t-17.5 35.5t-36.5 27.5t-60.5 11h-3q-37 0 -60 -11t-36 -27.5t-18 -35.5t-5 -35q0 -18 4.5 -39.5t17.5 -40t36 -30.5t61 -12h3z" />
    <glyph glyph-name="Ohungarumlaut" unicode="&#x150;" horiz-adv-x="1238" 
d="M702 940h295l-60 -157h-290zM368 940h295l-55 -157h-289zM644 759q126 0 217.5 -16.5t156 -44.5t104.5 -65.5t62.5 -78.5t30.5 -83.5t8 -81.5v-30q0 -38 -8 -80.5t-30.5 -84.5t-62.5 -79.5t-104.5 -66.5t-156.5 -46t-217 -17h-50q-125 0 -216.5 17t-156 46t-105 66.5
t-63 79.5t-30.5 84.5t-8 80.5v30q0 39 8 81.5t30.5 83.5t62.5 78.5t104.5 65.5t156 44.5t217.5 16.5h50zM831 383q0 24 -10.5 49t-35 45t-65.5 32.5t-102 12.5q-62 0 -103 -12.5t-65 -32.5t-34 -45t-10 -49v-12q0 -25 10.5 -51t35.5 -47.5t65.5 -35t100.5 -13.5
q61 0 101.5 13t65.5 34t35.5 47t10.5 51v14z" />
    <glyph glyph-name="ohungarumlaut" unicode="&#x151;" horiz-adv-x="1005" 
d="M596 744h285l-69 -168h-281zM273 744h284l-63 -168h-280zM462 -15q-102 0 -175.5 14t-123.5 37t-79.5 52.5t-45 60.5t-20.5 61.5t-5 54.5v14q0 24 5 53.5t20.5 60t45.5 59.5t79.5 51.5t122.5 36t175 13.5h84q104 0 178 -13.5t123.5 -36t78.5 -51.5t44 -59t19 -59.5
t4 -53.5v-16q0 -24 -4.5 -54t-19.5 -61t-44 -60.5t-79 -52.5t-124 -37t-178 -14h-81zM504 154q37 0 60 12.5t36 30.5t18 39.5t5 39.5q0 16 -4.5 35t-17.5 35.5t-36.5 27.5t-60.5 11h-3q-37 0 -60 -11t-36 -27.5t-18 -35.5t-5 -35q0 -18 4.5 -39.5t17.5 -40t36 -30.5t61 -12
h3z" />
    <glyph glyph-name="OE" unicode="&#x152;" horiz-adv-x="1710" 
d="M611 522q-60 0 -100 -12.5t-63 -33t-32.5 -45t-9.5 -48.5v-12q0 -25 10 -51t34 -47.5t63 -35t98 -13.5t98.5 13.5t63 34.5t33.5 46.5t10 50.5v14q0 24 -10 48.5t-33.5 45t-63 33t-98.5 12.5zM884 61q-19 -13 -47 -26.5t-68 -24t-92.5 -17t-119.5 -6.5h-32q-108 0 -188 17
t-136.5 45.5t-92.5 66t-57 78.5t-28.5 83t-7.5 80v30q0 38 7.5 80t28 82.5t56.5 78t92.5 65.5t136.5 44.5t189 16.5h32q69 0 122 -6t92.5 -15.5t67 -22t45.5 -24.5v58h800v-208h-493v-58h487v-204h-487v-64h497v-210h-804v61z" />
    <glyph glyph-name="oe" unicode="&#x153;" horiz-adv-x="1569" 
d="M1199 347q-2 12 -8 23t-18 19.5t-32 13t-50 4.5q-32 0 -52 -5t-32 -13.5t-17 -19t-7 -22.5h216zM504 154q37 0 60 12.5t36 30.5t18 39.5t5 39.5q0 16 -4.5 35t-17.5 35.5t-36.5 27.5t-60.5 11h-3q-37 0 -60 -11t-36 -27.5t-18 -35.5t-5 -35q0 -18 4.5 -39.5t17.5 -40
t36 -30.5t61 -12h3zM806 51q-43 -29 -112 -47.5t-172 -18.5h-71q-100 0 -171 14t-120 37t-78 52.5t-44.5 60.5t-20 61.5t-4.5 54.5v14q0 24 5 53.5t20.5 60t44.5 59.5t77.5 51.5t119.5 36t170 13.5h74q102 0 170 -18t113 -46q42 26 110.5 43.5t169.5 17.5h33
q102 0 174.5 -13.5t121 -36t77 -52.5t43 -63t18.5 -67t4 -65v-14h-576q1 -15 6.5 -30.5t17.5 -28.5t33 -21t54 -8q36 0 56.5 7t31.5 16.5t14.5 18.5t4.5 13h358v-2q0 -19 -5 -42.5t-20.5 -47.5t-44.5 -47t-78 -40.5t-120 -28.5t-170 -11h-34q-101 0 -169 18t-111 46z" />
    <glyph glyph-name="Racute" unicode="&#x154;" horiz-adv-x="1170" 
d="M688 447q39 0 54 13.5t15 33.5q0 21 -15.5 34t-53.5 13h-277v-94h277zM411 0h-380v744h822q60 0 113.5 -8.5t93 -30t63 -58t23.5 -91.5v-9q0 -42 -17.5 -72t-43 -50.5t-56 -32.5t-55.5 -17q89 -17 132.5 -65.5t43.5 -121.5v-113q0 -28 3.5 -43t9.5 -26v-6h-391
q-4 4 -4.5 9.5t-0.5 13.5v90q0 57 -32 91t-112 34h-212v-238zM458 940h354l-94 -164h-318z" />
    <glyph glyph-name="racute" unicode="&#x155;" horiz-adv-x="896" 
d="M391 0h-364v538h362v-106q10 12 30 32t49.5 39t69.5 33t91 14h12q82 0 130.5 -26.5t73 -63.5t31.5 -77t7 -66v-99h-358v54q0 32 -14.5 54t-49.5 22q-32 0 -51 -21t-19 -70v-257zM382 744h342l-119 -175h-308z" />
    <glyph glyph-name="uni0156" unicode="&#x156;" horiz-adv-x="1170" 
d="M688 447q39 0 54 13.5t15 33.5q0 21 -15.5 34t-53.5 13h-277v-94h277zM411 0h-380v744h822q60 0 113.5 -8.5t93 -30t63 -58t23.5 -91.5v-9q0 -42 -17.5 -72t-43 -50.5t-56 -32.5t-55.5 -17q89 -17 132.5 -65.5t43.5 -121.5v-113q0 -28 3.5 -43t9.5 -26v-6h-391
q-4 4 -4.5 9.5t-0.5 13.5v90q0 57 -32 91t-112 34h-212v-238zM515 -320q7 10 15 26t14.5 32t11.5 31t6 24h-137v176h323v-135q0 -18 -7.5 -39.5t-18 -43t-23 -40.5t-22.5 -31h-162z" />
    <glyph glyph-name="uni0157" unicode="&#x157;" horiz-adv-x="896" 
d="M391 0h-364v538h362v-106q10 12 30 32t49.5 39t69.5 33t91 14h12q82 0 130.5 -26.5t73 -63.5t31.5 -77t7 -66v-99h-358v54q0 32 -14.5 54t-49.5 22q-32 0 -51 -21t-19 -70v-257zM135 -320q7 10 15 26t14.5 32t11.5 31t6 24h-137v176h323v-135q0 -18 -7.5 -39.5t-18 -43
t-23 -40.5t-22.5 -31h-162z" />
    <glyph glyph-name="Rcaron" unicode="&#x158;" horiz-adv-x="1170" 
d="M688 447q39 0 54 13.5t15 33.5q0 21 -15.5 34t-53.5 13h-277v-94h277zM411 0h-380v744h822q60 0 113.5 -8.5t93 -30t63 -58t23.5 -91.5v-9q0 -42 -17.5 -72t-43 -50.5t-56 -32.5t-55.5 -17q89 -17 132.5 -65.5t43.5 -121.5v-113q0 -28 3.5 -43t9.5 -26v-6h-391
q-4 4 -4.5 9.5t-0.5 13.5v90q0 57 -32 91t-112 34h-212v-238zM215 940h288l54 -57l55 57h285l-168 -164h-342z" />
    <glyph glyph-name="rcaron" unicode="&#x159;" horiz-adv-x="896" 
d="M391 0h-364v538h362v-106q10 12 30 32t49.5 39t69.5 33t91 14h12q82 0 130.5 -26.5t73 -63.5t31.5 -77t7 -66v-99h-358v54q0 32 -14.5 54t-49.5 22q-32 0 -51 -21t-19 -70v-257zM120 744h278l51 -70l52 70h275l-156 -175h-345z" />
    <glyph glyph-name="Sacute" unicode="&#x15a;" horiz-adv-x="1142" 
d="M467 940h354l-92 -157h-318zM496 -15q-113 0 -193 12.5t-135 33.5t-87.5 48t-49.5 56t-22 57.5t-5 52.5v8h445q0 -12 4 -26t16 -26t35.5 -20t62.5 -8q33 0 55 4.5t35 11.5t18.5 16.5t5.5 19.5v3q0 9 -3.5 18t-17.5 16t-41.5 12t-75.5 7l-157 5q-115 4 -187 25t-112.5 53
t-55.5 73t-15 85v9q0 52 23 94t78 71.5t145.5 45t225.5 15.5h127q150 0 245.5 -18.5t150 -50.5t75.5 -74.5t21 -90.5v-5h-436q-1 9 -5 19.5t-16 19.5t-34 15t-59 6q-34 0 -55 -2.5t-33 -7.5t-16 -12.5t-4 -16.5v-2q0 -11 6.5 -18.5t22.5 -13t44 -9t71 -4.5l150 -4
q109 -3 183.5 -18t121 -43t67 -69.5t20.5 -98.5v-14q0 -50 -20 -96.5t-75.5 -83t-154.5 -58.5t-258 -22h-131v0z" />
    <glyph glyph-name="sacute" unicode="&#x15b;" horiz-adv-x="881" 
d="M364 744h342l-116 -168h-308zM389 -15q-86 0 -147.5 9t-104.5 24.5t-69 35t-40.5 41t-19 42.5t-4.5 39v8h367q1 -18 13 -35t47 -17h2q32 0 44.5 10.5t12.5 24.5v1q0 17 -14.5 26t-59.5 11l-147 6q-79 4 -129 19.5t-78 38.5t-38.5 52.5t-10.5 60.5v7q0 37 16.5 67.5t59 52
t115.5 33t186 11.5h78q120 0 194.5 -13t116.5 -35t57 -51.5t15 -62.5v-9h-357q0 5 -1.5 12t-7.5 13t-18 10.5t-33 4.5h-2q-38 0 -49 -7.5t-11 -21.5q0 -6 3 -11.5t11 -10t23 -7.5t38 -4l147 -6q87 -4 141 -17t85 -35t42 -53t11 -71v-9q0 -36 -14 -69.5t-56.5 -59t-122 -40.5
t-210.5 -15h-81v0z" />
    <glyph glyph-name="Scircumflex" unicode="&#x15c;" horiz-adv-x="1142" 
d="M911 782h-289l-54 58l-55 -58h-286l162 158h358zM496 -15q-113 0 -193 12.5t-135 33.5t-87.5 48t-49.5 56t-22 57.5t-5 52.5v8h445q0 -12 4 -26t16 -26t35.5 -20t62.5 -8q33 0 55 4.5t35 11.5t18.5 16.5t5.5 19.5v3q0 9 -3.5 18t-17.5 16t-41.5 12t-75.5 7l-157 5
q-115 4 -187 25t-112.5 53t-55.5 73t-15 85v9q0 52 23 94t78 71.5t145.5 45t225.5 15.5h127q150 0 245.5 -18.5t150 -50.5t75.5 -74.5t21 -90.5v-5h-436q-1 9 -5 19.5t-16 19.5t-34 15t-59 6q-34 0 -55 -2.5t-33 -7.5t-16 -12.5t-4 -16.5v-2q0 -11 6.5 -18.5t22.5 -13t44 -9
t71 -4.5l150 -4q109 -3 183.5 -18t121 -43t67 -69.5t20.5 -98.5v-14q0 -50 -20 -96.5t-75.5 -83t-154.5 -58.5t-258 -22h-131v0z" />
    <glyph glyph-name="scircumflex" unicode="&#x15d;" horiz-adv-x="881" 
d="M766 576h-278l-52 63l-51 -63h-275l156 168h345zM389 -15q-86 0 -147.5 9t-104.5 24.5t-69 35t-40.5 41t-19 42.5t-4.5 39v8h367q1 -18 13 -35t47 -17h2q32 0 44.5 10.5t12.5 24.5v1q0 17 -14.5 26t-59.5 11l-147 6q-79 4 -129 19.5t-78 38.5t-38.5 52.5t-10.5 60.5v7
q0 37 16.5 67.5t59 52t115.5 33t186 11.5h78q120 0 194.5 -13t116.5 -35t57 -51.5t15 -62.5v-9h-357q0 5 -1.5 12t-7.5 13t-18 10.5t-33 4.5h-2q-38 0 -49 -7.5t-11 -21.5q0 -6 3 -11.5t11 -10t23 -7.5t38 -4l147 -6q87 -4 141 -17t85 -35t42 -53t11 -71v-9q0 -36 -14 -69.5
t-56.5 -59t-122 -40.5t-210.5 -15h-81v0z" />
    <glyph glyph-name="uni015E" unicode="&#x15e;" horiz-adv-x="1142" 
d="M496 -15q-113 0 -193 12.5t-135 33.5t-87.5 48t-49.5 56t-22 57.5t-5 52.5v8h445q0 -12 4 -26t16 -26t35.5 -20t62.5 -8q33 0 55 4.5t35 11.5t18.5 16.5t5.5 19.5v3q0 9 -3.5 18t-17.5 16t-41.5 12t-75.5 7l-157 5q-115 4 -187 25t-112.5 53t-55.5 73t-15 85v9
q0 52 23 94t78 71.5t145.5 45t225.5 15.5h127q150 0 245.5 -18.5t150 -50.5t75.5 -74.5t21 -90.5v-5h-436q-1 9 -5 19.5t-16 19.5t-34 15t-59 6q-34 0 -55 -2.5t-33 -7.5t-16 -12.5t-4 -16.5v-2q0 -11 6.5 -18.5t22.5 -13t44 -9t71 -4.5l150 -4q109 -3 183.5 -18t121 -43
t67 -69.5t20.5 -98.5v-14q0 -50 -20 -96.5t-75.5 -83t-154.5 -58.5t-258 -22h-131v0zM363 -165h114q17 0 22.5 5.5t5.5 15.5q0 9 -5.5 14.5t-22.5 5.5h-70v124h159v-46q66 0 107 -8t64 -22t31 -33t8 -42v-2q0 -23 -8.5 -43t-31.5 -34.5t-64 -23t-107 -8.5h-202v97z" />
    <glyph glyph-name="uni015F" unicode="&#x15f;" horiz-adv-x="881" 
d="M389 -15q-86 0 -147.5 9t-104.5 24.5t-69 35t-40.5 41t-19 42.5t-4.5 39v8h367q1 -18 13 -35t47 -17h2q32 0 44.5 10.5t12.5 24.5v1q0 17 -14.5 26t-59.5 11l-147 6q-79 4 -129 19.5t-78 38.5t-38.5 52.5t-10.5 60.5v7q0 37 16.5 67.5t59 52t115.5 33t186 11.5h78
q120 0 194.5 -13t116.5 -35t57 -51.5t15 -62.5v-9h-357q0 5 -1.5 12t-7.5 13t-18 10.5t-33 4.5h-2q-38 0 -49 -7.5t-11 -21.5q0 -6 3 -11.5t11 -10t23 -7.5t38 -4l147 -6q87 -4 141 -17t85 -35t42 -53t11 -71v-9q0 -36 -14 -69.5t-56.5 -59t-122 -40.5t-210.5 -15h-81v0z
M234 -165h114q17 0 22.5 5.5t5.5 15.5q0 9 -5.5 14.5t-22.5 5.5h-70v124h159v-46q66 0 107 -8t64 -22t31 -33t8 -42v-2q0 -23 -8.5 -43t-31.5 -34.5t-64 -23t-107 -8.5h-202v97z" />
    <glyph glyph-name="Scaron" unicode="&#x160;" horiz-adv-x="1142" 
d="M496 -15q-113 0 -193 12.5t-135 33.5t-87.5 48t-49.5 56t-22 57.5t-5 52.5v8h445q0 -12 4 -26t16 -26t35.5 -20t62.5 -8q33 0 55 4.5t35 11.5t18.5 16.5t5.5 19.5v3q0 9 -3.5 18t-17.5 16t-41.5 12t-75.5 7l-157 5q-115 4 -187 25t-112.5 53t-55.5 73t-15 85v9
q0 52 23 94t78 71.5t145.5 45t225.5 15.5h127q150 0 245.5 -18.5t150 -50.5t75.5 -74.5t21 -90.5v-5h-436q-1 9 -5 19.5t-16 19.5t-34 15t-59 6q-34 0 -55 -2.5t-33 -7.5t-16 -12.5t-4 -16.5v-2q0 -11 6.5 -18.5t22.5 -13t44 -9t71 -4.5l150 -4q109 -3 183.5 -18t121 -43
t67 -69.5t20.5 -98.5v-14q0 -50 -20 -96.5t-75.5 -83t-154.5 -58.5t-258 -22h-131v0zM229 940h288l54 -57l55 57h285l-168 -164h-342z" />
    <glyph glyph-name="scaron" unicode="&#x161;" horiz-adv-x="881" 
d="M389 -15q-86 0 -147.5 9t-104.5 24.5t-69 35t-40.5 41t-19 42.5t-4.5 39v8h367q1 -18 13 -35t47 -17h2q32 0 44.5 10.5t12.5 24.5v1q0 17 -14.5 26t-59.5 11l-147 6q-79 4 -129 19.5t-78 38.5t-38.5 52.5t-10.5 60.5v7q0 37 16.5 67.5t59 52t115.5 33t186 11.5h78
q120 0 194.5 -13t116.5 -35t57 -51.5t15 -62.5v-9h-357q0 5 -1.5 12t-7.5 13t-18 10.5t-33 4.5h-2q-38 0 -49 -7.5t-11 -21.5q0 -6 3 -11.5t11 -10t23 -7.5t38 -4l147 -6q87 -4 141 -17t85 -35t42 -53t11 -71v-9q0 -36 -14 -69.5t-56.5 -59t-122 -40.5t-210.5 -15h-81v0z
M111 744h278l51 -70l52 70h275l-156 -175h-345z" />
    <glyph glyph-name="Tcommaaccent" unicode="&#x162;" horiz-adv-x="1062" 
d="M341 488h-321v256h1022v-256h-321v-488h-380v488zM459 -320q7 10 15 26t14.5 32t11.5 31t6 24h-137v176h323v-135q0 -18 -7.5 -39.5t-18 -43t-23 -40.5t-22.5 -31h-162z" />
    <glyph glyph-name="tcommaaccent" unicode="&#x163;" horiz-adv-x="590" 
d="M271 0q-32 0 -60.5 7t-51 25t-35.5 47.5t-13 74.5v186h-100v198h100v157h364v-157h97v-198h-97v-89q0 -30 8 -39.5t39 -9.5h50v-202h-301zM295 -320q7 10 15 26t14.5 32t11.5 31t6 24h-137v176h323v-135q0 -18 -7.5 -39.5t-18 -43t-23 -40.5t-22.5 -31h-162z" />
    <glyph glyph-name="Tcaron" unicode="&#x164;" horiz-adv-x="1062" 
d="M341 488h-321v256h1022v-256h-321v-488h-380v488zM190 940h288l54 -57l55 57h285l-168 -164h-342z" />
    <glyph glyph-name="tcaron" unicode="&#x165;" horiz-adv-x="590" 
d="M271 0q-32 0 -60.5 7t-51 25t-35.5 47.5t-13 74.5v186h-100v198h100v157h364v-157h97v-198h-97v-89q0 -30 8 -39.5t39 -9.5h50v-202h-301zM506 744h257l-25 -176h-242z" />
    <glyph glyph-name="Tbar" unicode="&#x166;" horiz-adv-x="1062" 
d="M124 247v157h814v-157h-814zM341 488h-321v256h1022v-256h-321v-488h-380v488z" />
    <glyph glyph-name="tbar" unicode="&#x167;" horiz-adv-x="590" 
d="M572 0h-301q-32 0 -60.5 7t-51 25t-35.5 47.5t-13 74.5v73h-100v104h100v36h-100v171h100v157h364v-157h97v-171h-97v-36h97v-104h-97q1 -26 9.5 -34t37.5 -8h50v-185z" />
    <glyph glyph-name="Utilde" unicode="&#x168;" horiz-adv-x="1202" 
d="M24 744h382v-306q0 -31 8 -61.5t29.5 -55t59 -39.5t97.5 -15h2q58 0 96 15t59.5 39.5t30 55t8.5 61.5v306h382v-345q0 -37 -6.5 -82t-26.5 -91t-57.5 -89t-99 -76.5t-150.5 -53.5t-213 -20h-50q-124 0 -213 20t-150.5 53.5t-98 76.5t-56.5 89t-26.5 91t-6.5 82v345z
M737 775q-21 0 -37 1.5t-32 5.5t-35 9.5t-45 13.5t-38.5 11.5t-22.5 3.5t-12.5 -7t-2.5 -14v-24h-188v90q0 15 4.5 32.5t19 32.5t41.5 24.5t71 9.5h2q19 0 35 -1.5t33 -5t37 -9.5t49 -14q20 -6 33 -9.5t22 -3.5q14 0 14 16v27h191v-77q0 -16 -4 -35.5t-17.5 -36.5t-41 -28.5
t-73.5 -11.5h-3v0z" />
    <glyph glyph-name="utilde" unicode="&#x169;" horiz-adv-x="981" 
d="M954 0h-364v101q-9 -10 -30.5 -29t-57.5 -37.5t-87 -32.5t-120 -14h-6q-85 0 -136.5 23t-79.5 55t-37 66t-9 56v350h364v-241q0 -18 4 -36.5t14.5 -33t30 -24t50.5 -9.5q28 0 47 9t31 24t17 33t5 36v242h364v-538zM624 568q-20 0 -35 1.5t-31 5t-34.5 9.5t-44.5 14
q-23 8 -35 11t-20 3q-10 0 -13 -6.5t-3 -14.5v-23h-189v88q0 15 4.5 32.5t19 32.5t41.5 24.5t71 9.5h2q18 0 33.5 -1.5t32 -4.5t36.5 -9t48 -15q19 -6 30.5 -9.5t20.5 -3.5q14 0 14 16v27h190v-75q0 -16 -3.5 -35.5t-17.5 -36.5t-41 -28.5t-74 -11.5h-2v0z" />
    <glyph glyph-name="Umacron" unicode="&#x16a;" horiz-adv-x="1202" 
d="M24 744h382v-306q0 -31 8 -61.5t29.5 -55t59 -39.5t97.5 -15h2q58 0 96 15t59.5 39.5t30 55t8.5 61.5v306h382v-345q0 -37 -6.5 -82t-26.5 -91t-57.5 -89t-99 -76.5t-150.5 -53.5t-213 -20h-50q-124 0 -213 20t-150.5 53.5t-98 76.5t-56.5 89t-26.5 91t-6.5 82v345z
M339 926h524v-142h-524v142z" />
    <glyph glyph-name="umacron" unicode="&#x16b;" horiz-adv-x="981" 
d="M954 0h-364v101q-9 -10 -30.5 -29t-57.5 -37.5t-87 -32.5t-120 -14h-6q-85 0 -136.5 23t-79.5 55t-37 66t-9 56v350h364v-241q0 -18 4 -36.5t14.5 -33t30 -24t50.5 -9.5q28 0 47 9t31 24t17 33t5 36v242h364v-538zM236 719h509v-142h-509v142z" />
    <glyph glyph-name="Ubreve" unicode="&#x16c;" horiz-adv-x="1202" 
d="M24 744h382v-306q0 -31 8 -61.5t29.5 -55t59 -39.5t97.5 -15h2q58 0 96 15t59.5 39.5t30 55t8.5 61.5v306h382v-345q0 -37 -6.5 -82t-26.5 -91t-57.5 -89t-99 -76.5t-150.5 -53.5t-213 -20h-50q-124 0 -213 20t-150.5 53.5t-98 76.5t-56.5 89t-26.5 91t-6.5 82v345z
M578 773q-82 0 -130.5 20.5t-74 49.5t-33 60.5t-7.5 53.5v2h206q0 -4 2 -12.5t9 -17t19.5 -15t33.5 -6.5h2q21 0 33 6.5t18.5 15t8.5 17t2 12.5h203v-2q0 -22 -9.5 -53.5t-36 -60.5t-73.5 -49.5t-122 -20.5h-51v0z" />
    <glyph glyph-name="ubreve" unicode="&#x16d;" horiz-adv-x="981" 
d="M954 0h-364v101q-9 -10 -30.5 -29t-57.5 -37.5t-87 -32.5t-120 -14h-6q-85 0 -136.5 23t-79.5 55t-37 66t-9 56v350h364v-241q0 -18 4 -36.5t14.5 -33t30 -24t50.5 -9.5q28 0 47 9t31 24t17 33t5 36v242h364v-538zM756 742q0 -22 -10.5 -52.5t-37 -58t-72.5 -46.5
t-118 -19h-54q-78 0 -125.5 19t-73 46.5t-33.5 58t-8 52.5v2h202v-1q0 -5 2.5 -12.5t9 -14.5t19.5 -12.5t34 -5.5h2q20 0 32.5 5.5t19 12.5t9 14.5t2.5 12.5v1h200v-2v0z" />
    <glyph glyph-name="Uring" unicode="&#x16e;" horiz-adv-x="1202" 
d="M24 744h382v-306q0 -31 8 -61.5t29.5 -55t59 -39.5t97.5 -15h2q58 0 96 15t59.5 39.5t30 55t8.5 61.5v306h382v-345q0 -37 -6.5 -82t-26.5 -91t-57.5 -89t-99 -76.5t-150.5 -53.5t-213 -20h-50q-124 0 -213 20t-150.5 53.5t-98 76.5t-56.5 89t-26.5 91t-6.5 82v345z
M390 884q0 25 9.5 47t34 39t65.5 27t104 10q64 0 105 -10t65 -27t33.5 -39t9.5 -47t-9.5 -47t-33.5 -38.5t-65 -26.5t-105 -10t-105.5 10t-65.5 26.5t-33 39t-9 46.5zM529 885q0 -43 74 -43q39 0 56.5 11.5t17.5 31.5t-17.5 31t-56.5 11q-38 0 -56 -11t-18 -31z" />
    <glyph glyph-name="uring" unicode="&#x16f;" horiz-adv-x="981" 
d="M954 0h-364v101q-9 -10 -30.5 -29t-57.5 -37.5t-87 -32.5t-120 -14h-6q-85 0 -136.5 23t-79.5 55t-37 66t-9 56v350h364v-241q0 -18 4 -36.5t14.5 -33t30 -24t50.5 -9.5q28 0 47 9t31 24t17 33t5 36v242h364v-538zM281 687q0 25 9.5 47t33.5 39t65 27t103 10
q63 0 104 -10t64.5 -27t33 -39t9.5 -47t-9.5 -47t-33 -38.5t-64.5 -26.5t-104 -10t-104 10t-65 26.5t-33 39t-9 46.5zM420 688q0 -43 72 -43q38 0 55 11.5t17 31.5t-17 31t-55 11q-37 0 -54.5 -11t-17.5 -31z" />
    <glyph glyph-name="Uhungarumlaut" unicode="&#x170;" horiz-adv-x="1202" 
d="M24 744h382v-306q0 -31 8 -61.5t29.5 -55t59 -39.5t97.5 -15h2q58 0 96 15t59.5 39.5t30 55t8.5 61.5v306h382v-345q0 -37 -6.5 -82t-26.5 -91t-57.5 -89t-99 -76.5t-150.5 -53.5t-213 -20h-50q-124 0 -213 20t-150.5 53.5t-98 76.5t-56.5 89t-26.5 91t-6.5 82v345z
M686 940h295l-62 -164h-290zM352 940h295l-57 -164h-289z" />
    <glyph glyph-name="uhungarumlaut" unicode="&#x171;" horiz-adv-x="981" 
d="M954 0h-364v101q-9 -10 -30.5 -29t-57.5 -37.5t-87 -32.5t-120 -14h-6q-85 0 -136.5 23t-79.5 55t-37 66t-9 56v350h364v-241q0 -18 4 -36.5t14.5 -33t30 -24t50.5 -9.5q28 0 47 9t31 24t17 33t5 36v242h364v-538zM575 744h285l-72 -175h-281zM252 744h284l-66 -175h-280
z" />
    <glyph glyph-name="Uogonek" unicode="&#x172;" horiz-adv-x="1202" 
d="M703 -188q-50 0 -84.5 5t-55.5 14.5t-30 23t-9 31.5v5q0 21 15 36.5t43 27t69 20.5t92 18q-63 -6 -118 -6h-50q-124 0 -213 20t-150.5 53.5t-98 76.5t-56.5 89t-26.5 91t-6.5 82v345h382v-306q0 -31 8 -61.5t29.5 -55t59 -39.5t97.5 -15h2q58 0 96 15t59.5 39.5t30 55
t8.5 61.5v306h382v-345q0 -58 -12.5 -110.5t-40.5 -100t-73.5 -90t-111.5 -80.5q-45 -26 -69 -41.5t-24 -32.5v-1q0 -17 25 -17h41v-114h-210z" />
    <glyph glyph-name="uogonek" unicode="&#x173;" horiz-adv-x="981" 
d="M954 0h-364v101q-9 -10 -30.5 -29t-57.5 -37.5t-87 -32.5t-120 -14h-6q-85 0 -136.5 23t-79.5 55t-37 66t-9 56v350h364v-241q0 -18 4 -36.5t14.5 -33t30 -24t50.5 -9.5q28 0 47 9t31 24t17 33t5 36v242h364v-538zM568 -109q0 42 60 66t178 43h148q-26 -14 -44.5 -28
t-18.5 -28v-1q0 -17 25 -17h38v-114h-207q-50 0 -84.5 5t-55.5 14.5t-30 23t-9 31.5v5z" />
    <glyph glyph-name="Wcircumflex" unicode="&#x174;" horiz-adv-x="1750" 
d="M247 0l-260 744h436l125 -439l117 439h455l115 -447l118 447h410l-267 -744h-509l-111 413l-114 -413h-515zM1225 775h-288l-54 58l-55 -58h-285l169 165h342z" />
    <glyph glyph-name="wcircumflex" unicode="&#x175;" horiz-adv-x="1366" 
d="M182 0l-192 538h379l73 -321l69 321h367l67 -318l71 318h360l-184 -538h-435l-62 258l-62 -258h-451zM1018 569h-278l-52 70l-51 -70h-275l156 175h345z" />
    <glyph glyph-name="Ycircumflex" unicode="&#x176;" horiz-adv-x="1192" 
d="M408 264l-425 480h438l191 -224l194 224h403l-421 -485v-259h-380v264zM955 775h-288l-54 58l-55 -58h-285l169 165h342z" />
    <glyph glyph-name="ycircumflex" unicode="&#x177;" horiz-adv-x="911" 
d="M118 -11h115q14 0 19 5.5t5 12.5v1q0 9 -5.5 20.5t-13.5 28.5l-249 481h386l105 -305l84 305h358l-215 -535q-41 -102 -95.5 -146.5t-129.5 -44.5h-364v177zM797 569h-278l-52 70l-51 -70h-275l156 175h345z" />
    <glyph glyph-name="Ydieresis" unicode="&#x178;" horiz-adv-x="1192" 
d="M408 264l-425 480h438l191 -224l194 224h403l-421 -485v-259h-380v264zM918 776h-291v164h291v-164zM587 776h-290v164h290v-164z" />
    <glyph glyph-name="Zacute" unicode="&#x179;" horiz-adv-x="1033" 
d="M1011 744v-179l-443 -311h446v-254h-995v181l431 322h-428v241h989zM415 940h354l-94 -164h-318z" />
    <glyph glyph-name="zacute" unicode="&#x17a;" horiz-adv-x="806" 
d="M18 0v177l336 176h-337v185h771v-177l-328 -165h328v-196h-770zM331 744h342l-119 -175h-308z" />
    <glyph glyph-name="Zdotaccent" unicode="&#x17b;" horiz-adv-x="1033" 
d="M1011 744v-179l-443 -311h446v-254h-995v181l431 322h-428v241h989zM698 776h-364v175h364v-175z" />
    <glyph glyph-name="zdotaccent" unicode="&#x17c;" horiz-adv-x="806" 
d="M18 0v177l336 176h-337v185h771v-177l-328 -165h328v-196h-770zM586 569h-364v175h364v-175z" />
    <glyph glyph-name="Zcaron" unicode="&#x17d;" horiz-adv-x="1033" 
d="M1011 744v-179l-443 -311h446v-254h-995v181l431 322h-428v241h989zM175 940h288l54 -57l55 57h285l-168 -164h-342z" />
    <glyph glyph-name="zcaron" unicode="&#x17e;" horiz-adv-x="806" 
d="M18 0v177l336 176h-337v185h771v-177l-328 -165h328v-196h-770zM79 744h278l51 -70l52 70h275l-156 -175h-345z" />
    <glyph glyph-name="uni0192" unicode="&#x192;" horiz-adv-x="611" 
d="M479 303l-21 -496h-371l21 496h-93v199h102l3 68q2 43 15.5 75.5t41.5 54.5t71.5 33t105.5 11h237v-166h-71q-17 0 -23 -6.5t-7 -22.5l-2 -47h103v-199h-112z" />
    <glyph glyph-name="Aringacute" unicode="&#x1fa;" horiz-adv-x="1228" 
d="M393 894q0 25 9.5 47t34 39t65.5 27t104 10q64 0 105 -10t65 -27t33.5 -39t9.5 -47t-9.5 -47t-33.5 -38.5t-65 -26.5t-105 -10t-105.5 10t-65.5 26.5t-33 39t-9 46.5zM532 895q0 -43 74 -43q39 0 56.5 11.5t17.5 31.5t-17.5 31t-56.5 11q-38 0 -56 -11t-18 -31zM540 1210
h342l-119 -175h-308zM592 515l-89 -206h180zM780 89h-372l-39 -89h-384l351 744h534l373 -744h-424z" />
    <glyph glyph-name="aringacute" unicode="&#x1fb;" horiz-adv-x="933" 
d="M384 1008h342l-119 -175h-308zM238 692q0 25 9.5 47t33.5 39t65 27t103 10q63 0 104 -10t64.5 -27t33 -39t9.5 -47t-9.5 -47t-33 -38.5t-64.5 -26.5t-104 -10t-104 10t-65 26.5t-33 39t-9 46.5zM377 693q0 -43 72 -43q38 0 55 11.5t17 31.5t-17 31t-55 11
q-37 0 -54.5 -11t-17.5 -31zM519 251l-116 -31q-19 -5 -29 -13.5t-10 -24.5v-1q0 -14 12.5 -29t47.5 -15q47 0 71 23t24 55v36zM522 68q-10 -9 -30.5 -22.5t-52 -26t-75.5 -21t-101 -8.5h-6q-68 0 -114.5 14.5t-76 38.5t-42.5 54t-13 61v20q0 28 9 52.5t32 44t62 32.5t99 18
l283 23q15 2 19.5 8t4.5 14v1q0 13 -14 23.5t-60 10.5h-2q-30 0 -46 -5t-24 -12t-10 -14.5t-2 -12.5h-338v12q0 18 3.5 38.5t16.5 40.5t38 38t68.5 31.5t107.5 21.5t156 8h57q96 0 163.5 -8.5t113.5 -22.5t72 -32t40 -37t17.5 -38t3.5 -35v-184q0 -17 14 -17h31v-177h-313
q-42 0 -64 19t-27 49z" />
    <glyph glyph-name="AEacute" unicode="&#x1fc;" horiz-adv-x="1598" 
d="M705 550l-151 -240h151v240zM705 90h-289l-57 -90h-376l488 744h1101v-208h-493v-58h487v-204h-487v-64h497v-210h-871v90zM912 940h354l-94 -164h-318z" />
    <glyph glyph-name="aeacute" unicode="&#x1fd;" horiz-adv-x="1466" 
d="M988 407q-32 0 -52.5 -5t-32.5 -13.5t-17.5 -19.5t-6.5 -22h216q-2 13 -8.5 24t-19 19t-32 12.5t-47.5 4.5zM424 137q48 0 71.5 23t23.5 55v36l-116 -31q-17 -5 -28 -13t-11 -25v-1q0 -14 12.5 -29t47.5 -15zM1455 203q0 -20 -5.5 -44t-22.5 -48t-47.5 -46.5t-80.5 -39.5
t-122 -27.5t-171 -10.5h-45q-78 0 -137 7.5t-103 21t-76 31t-56 38.5q-18 -14 -42 -31t-60 -31t-86.5 -23.5t-120.5 -9.5h-7q-75 0 -125 14.5t-80.5 38.5t-43.5 54t-13 61v20q0 28 9.5 52.5t32.5 44t62 32.5t98 18l283 23q14 2 19 7.5t5 14.5v1q0 13 -14 23.5t-60 10.5h-2
q-30 0 -46 -5t-24 -12t-10 -14.5t-2 -12.5h-337v12q0 16 3 35t15 39t36.5 38.5t67.5 33t108 23.5t159 9h53q86 0 146.5 -11.5t100.5 -36.5q45 24 104.5 35.5t144.5 11.5h43q106 0 180.5 -13.5t124.5 -36t78.5 -52.5t43 -63t18.5 -67t4 -64v-15h-577q1 -14 6 -29.5t17 -28.5
t33.5 -21.5t54.5 -8.5q37 0 58.5 7.5t32 17.5t13.5 19t4 11h358v-3zM649 744h342l-119 -175h-308z" />
    <glyph glyph-name="Oslashacute" unicode="&#x1fe;" horiz-adv-x="1253" 
d="M516 940h354l-92 -157h-318zM601 -13q-95 0 -170.5 10.5t-135.5 30.5l-38 -28h-264l142 105q-68 53 -95 119t-27 133v30q0 38 8 80.5t31 83.5t63.5 78.5t106 65.5t158.5 45t221 17h48q92 0 165 -10.5t132 -29.5l36 27h263l-138 -102q69 -51 100 -116.5t31 -138.5v-30
q0 -38 -8 -80t-30.5 -83.5t-63.5 -78.5t-106.5 -65.5t-159 -45.5t-221.5 -17h-48zM625 215q64 0 108 13t71.5 34.5t40 49.5t12.5 58v14q0 34 -15 63l-305 -231q20 -1 43 -1h45zM394 370q0 -33 14 -63l298 225h-81q-65 0 -109 -12t-71 -32.5t-39 -47t-12 -56.5v-14z" />
    <glyph glyph-name="oslashacute" unicode="&#x1ff;" horiz-adv-x="1005" 
d="M424 744h342l-114 -168h-308zM455 -15q-77 0 -138 10t-101 25l-33 -20h-189l115 75q-55 38 -75.5 87t-20.5 103v14q0 24 5 53.5t20.5 60t45.5 59.5t80.5 51.5t124.5 36t178 13.5h84q74 0 133 -9t101 -24l28 18h193l-106 -71q54 -42 73 -90t19 -97v-16q0 -25 -4.5 -55
t-20 -61t-45 -60.5t-80 -52t-125.5 -36.5t-180 -14h-82zM370 276v-14t2 -15l203 133q-14 5 -31.5 8.5t-40.5 3.5h-3q-41 0 -66 -11.5t-39.5 -29t-19.5 -37.5t-5 -38zM505 147q40 0 65.5 13t40 32.5t19.5 42t5 41.5v10t-1 10l-205 -135q28 -14 74 -14h2z" />
    <glyph glyph-name="uni0218" unicode="&#x218;" horiz-adv-x="1142" 
d="M496 -15q-113 0 -193 12.5t-135 33.5t-87.5 48t-49.5 56t-22 57.5t-5 52.5v8h445q0 -12 4 -26t16 -26t35.5 -20t62.5 -8q33 0 55 4.5t35 11.5t18.5 16.5t5.5 19.5v3q0 9 -3.5 18t-17.5 16t-41.5 12t-75.5 7l-157 5q-115 4 -187 25t-112.5 53t-55.5 73t-15 85v9
q0 52 23 94t78 71.5t145.5 45t225.5 15.5h127q150 0 245.5 -18.5t150 -50.5t75.5 -74.5t21 -90.5v-5h-436q-1 9 -5 19.5t-16 19.5t-34 15t-59 6q-34 0 -55 -2.5t-33 -7.5t-16 -12.5t-4 -16.5v-2q0 -11 6.5 -18.5t22.5 -13t44 -9t71 -4.5l150 -4q109 -3 183.5 -18t121 -43
t67 -69.5t20.5 -98.5v-14q0 -50 -20 -96.5t-75.5 -83t-154.5 -58.5t-258 -22h-131v0zM497 -331q7 10 15 26t14.5 32t11.5 31t6 24h-137v176h323v-135q0 -18 -7.5 -39.5t-18 -43t-23 -40.5t-22.5 -31h-162z" />
    <glyph glyph-name="uni0219" unicode="&#x219;" horiz-adv-x="881" 
d="M389 -15q-86 0 -147.5 9t-104.5 24.5t-69 35t-40.5 41t-19 42.5t-4.5 39v8h367q1 -18 13 -35t47 -17h2q32 0 44.5 10.5t12.5 24.5v1q0 17 -14.5 26t-59.5 11l-147 6q-79 4 -129 19.5t-78 38.5t-38.5 52.5t-10.5 60.5v7q0 37 16.5 67.5t59 52t115.5 33t186 11.5h78
q120 0 194.5 -13t116.5 -35t57 -51.5t15 -62.5v-9h-357q0 5 -1.5 12t-7.5 13t-18 10.5t-33 4.5h-2q-38 0 -49 -7.5t-11 -21.5q0 -6 3 -11.5t11 -10t23 -7.5t38 -4l147 -6q87 -4 141 -17t85 -35t42 -53t11 -71v-9q0 -36 -14 -69.5t-56.5 -59t-122 -40.5t-210.5 -15h-81v0z
M366 -327q7 10 15 26t14.5 32t11.5 31t6 24h-137v176h323v-135q0 -18 -7.5 -39.5t-18 -43t-23 -40.5t-22.5 -31h-162z" />
    <glyph glyph-name="uni021A" unicode="&#x21a;" horiz-adv-x="1062" 
d="M341 488h-321v256h1022v-256h-321v-488h-380v488zM459 -320q7 10 15 26t14.5 32t11.5 31t6 24h-137v176h323v-135q0 -18 -7.5 -39.5t-18 -43t-23 -40.5t-22.5 -31h-162z" />
    <glyph glyph-name="uni021B" unicode="&#x21b;" horiz-adv-x="590" 
d="M271 0q-32 0 -60.5 7t-51 25t-35.5 47.5t-13 74.5v186h-100v198h100v157h364v-157h97v-198h-97v-89q0 -30 8 -39.5t39 -9.5h50v-202h-301zM295 -320q7 10 15 26t14.5 32t11.5 31t6 24h-137v176h323v-135q0 -18 -7.5 -39.5t-18 -43t-23 -40.5t-22.5 -31h-162z" />
    <glyph glyph-name="uni0237" unicode="&#x237;" horiz-adv-x="418" 
d="M-6 -20q21 0 27 6t6 29v523h364v-562q0 -49 -11 -80.5t-29.5 -50t-42 -26t-48.5 -7.5h-293v168h27z" />
    <glyph glyph-name="uni02BC" unicode="&#x2bc;" horiz-adv-x="376" 
d="M111 431q6 12 13.5 28t14 32.5t12 32.5t7.5 29h-134v191h334v-150q0 -22 -8 -45.5t-19 -45.5t-24.5 -41t-23.5 -31h-172z" />
    <glyph glyph-name="circumflex" unicode="&#x2c6;" 
d="M681 569h-278l-52 70l-51 -70h-275l156 175h345z" />
    <glyph glyph-name="caron" unicode="&#x2c7;" 
d="M25 744h278l51 -70l52 70h275l-156 -175h-345z" />
    <glyph glyph-name="breve" unicode="&#x2d8;" 
d="M619 742q0 -22 -10.5 -52.5t-37 -58t-72.5 -46.5t-118 -19h-54q-78 0 -125.5 19t-73 46.5t-33.5 58t-8 52.5v2h202v-1q0 -5 2.5 -12.5t9 -14.5t19.5 -12.5t34 -5.5h2q20 0 32.5 5.5t19 12.5t9 14.5t2.5 12.5v1h200v-2v0z" />
    <glyph glyph-name="dotaccent" unicode="&#x2d9;" 
d="M535 569h-364v175h364v-175z" />
    <glyph glyph-name="ring" unicode="&#x2da;" 
d="M144 687q0 25 9.5 47t33.5 39t65 27t103 10q63 0 104 -10t64.5 -27t33 -39t9.5 -47t-9.5 -47t-33 -38.5t-64.5 -26.5t-104 -10t-104 10t-65 26.5t-33 39t-9 46.5zM283 688q0 -43 72 -43q38 0 55 11.5t17 31.5t-17 31t-55 11q-37 0 -54.5 -11t-17.5 -31z" />
    <glyph glyph-name="ogonek" unicode="&#x2db;" 
d="M161 -109q0 42 60 66t178 43h148q-26 -14 -44.5 -28t-18.5 -28v-1q0 -17 25 -17h38v-114h-207q-50 0 -84.5 5t-55.5 14.5t-30 23t-9 31.5v5z" />
    <glyph glyph-name="tilde" unicode="&#x2dc;" 
d="M486 568q-20 0 -35 1.5t-31 5t-34.5 9.5t-44.5 14q-23 8 -35 11t-20 3q-10 0 -13 -6.5t-3 -14.5v-23h-189v88q0 15 4.5 32.5t19 32.5t41.5 24.5t71 9.5h2q18 0 33.5 -1.5t32 -4.5t36.5 -9t48 -15q19 -6 30.5 -9.5t20.5 -3.5q14 0 14 16v27h190v-75q0 -16 -3.5 -35.5
t-17.5 -36.5t-41 -28.5t-74 -11.5h-2v0z" />
    <glyph glyph-name="hungarumlaut" unicode="&#x2dd;" 
d="M403 744h285l-72 -175h-281zM80 744h284l-66 -175h-280z" />
    <glyph glyph-name="uni0401" unicode="&#x401;" horiz-adv-x="955" 
d="M928 744v-208h-523v-58h517v-204h-517v-64h527v-210h-901v744h897zM799 776h-291v164h291v-164zM468 776h-290v164h290v-164z" />
    <glyph glyph-name="uni0402" unicode="&#x402;" horiz-adv-x="1267" 
d="M618 488v-77q24 5 57 9q28 3 68.5 6t94.5 3h31q99 0 172 -18.5t120.5 -51.5t70.5 -79.5t23 -103.5v-17q0 -147 -131 -218.5t-385 -71.5h-45v204h42q39 0 63.5 5.5t38.5 14.5t19 21.5t5 26.5v5q0 13 -5 24t-17 19.5t-33 13t-54 4.5h-15q-27 0 -49 -1.5t-38 -3.5
q-18 -3 -33 -5v-197h-380v488h-221v256h1022v-256h-421z" />
    <glyph glyph-name="uni0403" unicode="&#x403;" horiz-adv-x="908" 
d="M28 744h860v-232h-480v-512h-380v744zM355 940h354l-94 -164h-318z" />
    <glyph glyph-name="uni0404" unicode="&#x404;" horiz-adv-x="1192" 
d="M1182 300q0 -26 -7 -59.5t-27.5 -68.5t-58.5 -68.5t-99.5 -60t-151 -42.5t-212.5 -16h-35q-127 0 -219.5 17t-156.5 45.5t-104 66.5t-62 79.5t-29.5 84t-7.5 81.5v30q0 39 7.5 81.5t29 83.5t61 78.5t104 65.5t157 44.5t220.5 16.5h35q123 0 212 -16t151 -41.5t100 -59
t58.5 -68.5t27.5 -69.5t7 -61.5v-10h-385l-8 24t-26 36.5t-58 33.5t-102 15q-89 0 -135.5 -19t-64.5 -54h326v-187h-327q18 -37 64.5 -57.5t136.5 -20.5q66 0 104 16t57.5 36t25.5 39.5t7 25.5h385v-21z" />
    <glyph glyph-name="uni0405" unicode="&#x405;" horiz-adv-x="1136" 
d="M496 -15q-113 0 -193 12.5t-135 33.5t-87.5 48t-49.5 56t-22 57.5t-5 52.5v8h445q0 -12 4 -26t16 -26t35.5 -20t62.5 -8q33 0 55 4.5t35 11.5t18.5 16.5t5.5 19.5v3q0 9 -3.5 18t-17.5 16t-41.5 12t-75.5 7l-157 5q-115 4 -187 25t-112.5 53t-55.5 73t-15 85v9
q0 52 23 94t78 71.5t145.5 45t225.5 15.5h127q150 0 245.5 -18.5t150 -50.5t75.5 -74.5t21 -90.5v-5h-436q-1 9 -5 19.5t-16 19.5t-34 15t-59 6q-34 0 -55 -2.5t-33 -7.5t-16 -12.5t-4 -16.5v-2q0 -11 6.5 -18.5t22.5 -13t44 -9t71 -4.5l150 -4q109 -3 183.5 -18t121 -43
t67 -69.5t20.5 -98.5v-14q0 -50 -20 -96.5t-75.5 -83t-154.5 -58.5t-258 -22h-131v0z" />
    <glyph glyph-name="uni0406" unicode="&#x406;" horiz-adv-x="435" 
d="M410 0h-379v744h379v-744z" />
    <glyph glyph-name="uni0407" unicode="&#x407;" horiz-adv-x="441" 
d="M410 0h-379v744h379v-744zM531 776h-291v164h291v-164zM200 776h-290v164h290v-164z" />
    <glyph glyph-name="uni0408" unicode="&#x408;" horiz-adv-x="1041" 
d="M456 -11q-109 0 -184.5 19.5t-125.5 50.5t-78 70.5t-41.5 79.5t-16.5 76.5t-3 63.5v7h360q1 -9 4.5 -25.5t16 -33t39 -29t74.5 -12.5h2q43 0 70 12t41.5 31.5t19.5 43t5 47.5v354h381v-359q0 -39 -4.5 -83.5t-20.5 -88.5t-48 -84.5t-86.5 -71.5t-135.5 -49.5t-196 -18.5
h-73v0z" />
    <glyph glyph-name="uni0409" unicode="&#x409;" horiz-adv-x="1768" 
d="M10 0v264h14q37 0 57.5 6t34.5 23q6 8 11 18t8.5 29t6 49t4 77.5t2.5 115.5t1 162h921v-203h328q108 0 178.5 -20t112 -54.5t58 -81t16.5 -98.5v-26q0 -52 -17 -99.5t-59 -83.5t-112.5 -57t-176.5 -21h-708v512h-188q0 -62 -2 -120t-7 -108.5t-15 -92.5t-27 -72
q-18 -32 -43 -54.5t-60 -37t-83 -21t-111 -6.5h-144zM1305 218q39 0 53 16t14 36v2q0 21 -14 36t-53 15h-235v-105h235z" />
    <glyph glyph-name="uni040A" unicode="&#x40a;" horiz-adv-x="1804" 
d="M735 269h-327v-269h-380v744h380v-243h327v243h380v-243h319q108 0 178.5 -19t112 -52t58 -76.5t16.5 -91.5v-6q0 -50 -17 -96.5t-59 -82t-112.5 -56.5t-176.5 -21h-699v269zM1347 205q18 0 29.5 5t18.5 12.5t10 15.5t3 15v2q0 7 -3 15t-10 15.5t-18.5 12.5t-29.5 5h-232
v-98h232z" />
    <glyph glyph-name="uni040B" unicode="&#x40b;" horiz-adv-x="1280" 
d="M618 488v-79q28 6 61 10q28 4 64.5 7t77.5 3h20q117 0 197.5 -20t131 -62.5t73 -108.5t22.5 -157v-81h-380v75q0 63 -30 97.5t-106 34.5h-11q-26 0 -48 -2t-38 -4q-18 -3 -34 -6v-195h-380v488h-221v256h1022v-256h-421z" />
    <glyph glyph-name="uni040C" unicode="&#x40c;" horiz-adv-x="1190" 
d="M31 0v744h380v-264l338 264h462l-442 -334l444 -410h-496l-306 297v-297h-380zM475 940h354l-94 -164h-318z" />
    <glyph glyph-name="uni040E" unicode="&#x40e;" horiz-adv-x="1172" 
d="M736 163q-39 -50 -70 -81.5t-68.5 -49.5t-87.5 -25t-127 -7h-155v234h131q14 0 20.5 6t6.5 14v1q0 5 -1.5 10t-8.5 13l-393 466h441l197 -255l174 255h394zM589 773q-82 0 -130.5 20.5t-74 49.5t-33 60.5t-7.5 53.5v2h206q0 -4 2 -12.5t9 -17t19.5 -15t33.5 -6.5h2
q21 0 33 6.5t18.5 15t8.5 17t2 12.5h203v-2q0 -22 -9.5 -53.5t-36 -60.5t-73.5 -49.5t-122 -20.5h-51v0z" />
    <glyph glyph-name="uni040F" unicode="&#x40f;" horiz-adv-x="1194" 
d="M28 744h380v-512h378v512h380v-744h-394v-140h-350v140h-394v744z" />
    <glyph glyph-name="uni0410" unicode="&#x410;" horiz-adv-x="1222" 
d="M592 515l-89 -206h180zM780 89h-372l-39 -89h-384l351 744h534l373 -744h-424z" />
    <glyph glyph-name="uni0411" unicode="&#x411;" horiz-adv-x="1137" 
d="M29 744h1001v-208h-622v-46h359q108 0 178.5 -18.5t112 -50t58 -74t16.5 -90.5v-6q0 -50 -17 -95.5t-59 -80t-112.5 -55t-176.5 -20.5h-738v744zM680 215q35 0 48 14.5t13 28.5v2q0 14 -13 28.5t-48 14.5h-272v-88h272z" />
    <glyph glyph-name="uni0412" unicode="&#x412;" horiz-adv-x="1174" 
d="M31 744h819q85 0 139.5 -14.5t86 -38t44 -53.5t12.5 -61v-6q0 -32 -12.5 -56.5t-33.5 -43t-47.5 -30.5t-54.5 -18q36 -6 70.5 -19t61.5 -36t43.5 -57.5t16.5 -84.5v-8q0 -44 -16.5 -83.5t-54.5 -69.5t-100.5 -47.5t-154.5 -17.5h-819v744zM411 551v-72h266q35 0 51 8
t16 28v2q0 21 -16 27.5t-51 6.5h-266zM411 292v-92h281q49 0 64.5 13t15.5 34v2q0 21 -15.5 32t-64.5 11h-281z" />
    <glyph glyph-name="uni0413" unicode="&#x413;" horiz-adv-x="908" 
d="M28 744h860v-232h-480v-512h-380v744z" />
    <glyph glyph-name="uni0414" unicode="&#x414;" horiz-adv-x="1283" 
d="M110 232q18 37 31 73t21 90.5t11.5 137t3.5 211.5h981v-512h120v-372h-350v140h-573v-140h-350v372h105zM778 232v280h-250q0 -56 -4.5 -99.5t-11.5 -77t-16.5 -59t-21.5 -44.5h304z" />
    <glyph glyph-name="uni0415" unicode="&#x415;" horiz-adv-x="949" 
d="M928 744v-208h-523v-58h517v-204h-517v-64h527v-210h-901v744h897z" />
    <glyph glyph-name="uni0416" unicode="&#x416;" horiz-adv-x="1867" 
d="M745 289l-266 -289h-492l412 406l-419 338h467l298 -258v258h380v-258l298 258h462l-414 -334l416 -410h-496l-266 289v-289h-380v289z" />
    <glyph glyph-name="uni0417" unicode="&#x417;" horiz-adv-x="1168" 
d="M1163 241q0 -51 -28 -97.5t-92.5 -81.5t-170.5 -55.5t-262 -20.5h-34q-161 0 -269.5 24.5t-174 64.5t-93 91t-27.5 104v21h385q2 -17 13 -33t34 -28t60 -19t92 -7q46 0 77.5 3.5t50.5 9.5t27 14.5t8 18.5v2q0 20 -28 30t-89 10h-214v187h216q54 0 80.5 7.5t26.5 27.5v2
q0 22 -45 30.5t-115 8.5q-51 0 -86 -5t-57.5 -14t-34.5 -22.5t-16 -30.5h-385v10q0 23 7.5 52t29 58.5t60 57.5t100.5 50t150 35t209 13h35q154 0 256 -16t163 -42.5t85.5 -60t24.5 -67.5v-6q0 -31 -13 -55t-34.5 -42t-48.5 -29.5t-55 -17.5q39 -7 72 -21.5t57.5 -36
t38.5 -51t14 -65.5v-8z" />
    <glyph glyph-name="uni0418" unicode="&#x418;" horiz-adv-x="1224" 
d="M816 420l-408 -420h-380v744h380v-421l408 421h380v-744h-380v420z" />
    <glyph glyph-name="uni0419" unicode="&#x419;" horiz-adv-x="1224" 
d="M816 420l-408 -420h-380v744h380v-421l408 421h380v-744h-380v420zM593 773q-82 0 -130.5 20.5t-74 49.5t-33 60.5t-7.5 53.5v2h206q0 -4 2 -12.5t9 -17t19.5 -15t33.5 -6.5h2q21 0 33 6.5t18.5 15t8.5 17t2 12.5h203v-2q0 -22 -9.5 -53.5t-36 -60.5t-73.5 -49.5
t-122 -20.5h-51v0z" />
    <glyph glyph-name="uni041A" unicode="&#x41a;" horiz-adv-x="1190" 
d="M408 297v-297h-380v744h380v-264l338 264h462l-442 -334l444 -410h-496z" />
    <glyph glyph-name="uni041B" unicode="&#x41b;" horiz-adv-x="1131" 
d="M723 512h-221q0 -62 -2 -120t-7 -108.5t-15 -92.5t-27 -72q-18 -32 -43 -54.5t-60 -37t-83 -21t-111 -6.5h-144v264h14q37 0 57.5 6t34.5 23q6 8 11 18t8.5 29t6 49t4 77.5t2.5 115.5t1 162h954v-744h-380v512z" />
    <glyph glyph-name="uni041C" unicode="&#x41c;" horiz-adv-x="1391" 
d="M31 744h501l175 -331l182 331h477v-744h-378v368l-200 -368h-181l-199 368v-368h-377v744z" />
    <glyph glyph-name="uni041D" unicode="&#x41d;" horiz-adv-x="1214" 
d="M806 265h-398v-265h-380v744h380v-247h398v247h380v-744h-380v265z" />
    <glyph glyph-name="uni041E" unicode="&#x41e;" horiz-adv-x="1232" 
d="M644 759q126 0 217.5 -16.5t156 -44.5t104.5 -65.5t62.5 -78.5t30.5 -83.5t8 -81.5v-30q0 -38 -8 -80.5t-30.5 -84.5t-62.5 -79.5t-104.5 -66.5t-156.5 -46t-217 -17h-50q-125 0 -216.5 17t-156 46t-105 66.5t-63 79.5t-30.5 84.5t-8 80.5v30q0 39 8 81.5t30.5 83.5
t62.5 78.5t104.5 65.5t156 44.5t217.5 16.5h50zM831 383q0 24 -10.5 49t-35 45t-65.5 32.5t-102 12.5q-62 0 -103 -12.5t-65 -32.5t-34 -45t-10 -49v-12q0 -25 10.5 -51t35.5 -47.5t65.5 -35t100.5 -13.5q61 0 101.5 13t65.5 34t35.5 47t10.5 51v14z" />
    <glyph glyph-name="uni041F" unicode="&#x41f;" horiz-adv-x="1194" 
d="M28 744h1138v-744h-380v512h-378v-512h-380v744z" />
    <glyph glyph-name="uni0420" unicode="&#x420;" horiz-adv-x="1137" 
d="M411 203v-203h-380v744h739q108 0 178.5 -20t112 -54.5t58 -81t16.5 -98.5v-26q0 -52 -17 -99.5t-59 -83.5t-112.5 -57t-176.5 -21h-359zM411 428h266q39 0 53 14.5t14 33.5v2q0 20 -14 34t-53 14h-266v-98z" />
    <glyph glyph-name="uni0421" unicode="&#x421;" horiz-adv-x="1192" 
d="M594 -15q-127 0 -219.5 17t-156.5 45.5t-104 66.5t-62 79.5t-29.5 84t-7.5 81.5v30q0 39 7.5 81.5t29 83.5t61 78.5t104 65.5t157 44.5t220.5 16.5h35q123 0 212 -16t151 -41.5t100 -59t58.5 -68.5t27.5 -69.5t7 -61.5v-15h-385q-2 6 -8 21.5t-26 31.5t-58 28.5
t-102 12.5t-103 -12.5t-60.5 -32.5t-29 -45t-7.5 -49v-12q0 -24 8 -50t29.5 -47.5t60.5 -35.5t102 -14q66 0 104 13.5t57.5 31t25.5 34t7 23.5h385v-26q0 -26 -7 -59.5t-27.5 -68.5t-58.5 -68.5t-99.5 -60t-151 -42.5t-212.5 -16h-35z" />
    <glyph glyph-name="uni0422" unicode="&#x422;" horiz-adv-x="1056" 
d="M341 488h-321v256h1022v-256h-321v-488h-380v488z" />
    <glyph glyph-name="uni0423" unicode="&#x423;" horiz-adv-x="1172" 
d="M736 163q-39 -50 -70 -81.5t-68.5 -49.5t-87.5 -25t-127 -7h-155v234h131q14 0 20.5 6t6.5 14v1q0 5 -1.5 10t-8.5 13l-393 466h441l197 -255l174 255h394z" />
    <glyph glyph-name="uni0424" unicode="&#x424;" horiz-adv-x="1618" 
d="M619 754h380v-70h179q132 0 216 -25t133 -65t67.5 -91t18.5 -103v-26q0 -52 -18.5 -104t-67 -93.5t-132.5 -67.5t-216 -26h-180v-93h-380v93h-180q-132 0 -216 26t-132.5 67.5t-67 93.5t-18.5 104v26q0 52 18.5 103t67.5 91t133 65t216 25h179v70zM994 305h114
q37 0 59.5 8t34.5 20t16 25.5t4 24.5v2q0 11 -4 24.5t-16.5 25.5t-35 20t-59.5 8h-113v-158zM511 463q-37 0 -59.5 -8t-35 -20t-16.5 -25.5t-4 -24.5v-2q0 -11 4 -24.5t16 -25.5t34.5 -20t59.5 -8h114v158h-113z" />
    <glyph glyph-name="uni0425" unicode="&#x425;" horiz-adv-x="1209" 
d="M-14 0l287 393l-269 351h460l151 -221l151 221h432l-253 -352l284 -392h-457l-169 232l-170 -232h-447z" />
    <glyph glyph-name="uni0426" unicode="&#x426;" horiz-adv-x="1291" 
d="M28 744h380v-512h378v512h380v-512h120v-372h-350v140h-908v744z" />
    <glyph glyph-name="uni0427" unicode="&#x427;" horiz-adv-x="1151" 
d="M743 261q-28 -5 -90 -10.5t-156 -5.5q-123 0 -213.5 17.5t-150.5 58.5t-89 109.5t-29 170.5v143h380v-145q0 -38 12.5 -62t36.5 -37.5t59 -18t80 -4.5q53 0 95 4t65 7v256h380v-744h-380v261z" />
    <glyph glyph-name="uni0428" unicode="&#x428;" horiz-adv-x="1672" 
d="M28 744h380v-512h238v512h380v-512h238v512h380v-744h-1616v744z" />
    <glyph glyph-name="uni0429" unicode="&#x429;" horiz-adv-x="1769" 
d="M28 744h380v-512h238v512h380v-512h238v512h380v-512h120v-372h-350v140h-1386v744z" />
    <glyph glyph-name="uni042A" unicode="&#x42a;" horiz-adv-x="1416" 
d="M1046 541q108 0 178.5 -20t112 -54.5t58 -81t16.5 -98.5v-26q0 -52 -17 -99.5t-59 -83.5t-112.5 -57t-176.5 -21h-738v488h-291v256h670v-203h359zM953 218q39 0 53 16t14 36v2q0 21 -14 36t-53 15h-266v-105h266z" />
    <glyph glyph-name="uni042B" unicode="&#x42b;" horiz-adv-x="1579" 
d="M767 541q108 0 178.5 -20t112 -54.5t58 -81t16.5 -98.5v-26q0 -52 -17 -99.5t-59 -83.5t-112.5 -57t-176.5 -21h-738v744h379v-203h359zM674 218q39 0 53 16t14 36v2q0 21 -14 36t-53 15h-266v-105h266zM1553 0h-379v744h379v-744z" />
    <glyph glyph-name="uni042C" unicode="&#x42c;" horiz-adv-x="1137" 
d="M767 541q108 0 178.5 -20t112 -54.5t58 -81t16.5 -98.5v-26q0 -52 -17 -99.5t-59 -83.5t-112.5 -57t-176.5 -21h-738v744h379v-203h359zM674 218q39 0 53 16t14 36v2q0 21 -14 36t-53 15h-266v-105h266z" />
    <glyph glyph-name="uni042D" unicode="&#x42d;" horiz-adv-x="1194" 
d="M1182 359q0 -38 -7.5 -81t-29.5 -84.5t-62 -79.5t-104 -66.5t-156.5 -45.5t-219.5 -17h-35q-123 0 -212.5 14.5t-151 38.5t-99.5 54t-58.5 62t-27.5 62t-7 54v21h385q2 -15 13.5 -30.5t35.5 -28t62 -20.5t93 -8q86 0 129.5 21.5t60.5 56.5h-326v187h324q-19 33 -64.5 53
t-133.5 20q-49 0 -84.5 -6.5t-58.5 -17t-35.5 -25t-15.5 -30.5h-385v10q0 25 7 56t27.5 62.5t58.5 62t100 54t151 37.5t212 14h35q128 0 220.5 -16.5t157 -44.5t104 -65.5t61 -78.5t29 -83.5t7.5 -81.5v-30z" />
    <glyph glyph-name="uni042E" unicode="&#x42e;" horiz-adv-x="1686" 
d="M1674 359q0 -38 -8 -80.5t-30.5 -84.5t-62.5 -79.5t-104.5 -66.5t-156.5 -46t-217 -17h-30q-149 0 -250 24.5t-165 64.5t-97 90t-46 101h-99v-265h-380v744h380v-247h103q14 49 48.5 96t98.5 84t163.5 59.5t243.5 22.5h30q126 0 217.5 -16.5t156 -44.5t104.5 -65.5
t62.5 -78.5t30.5 -83.5t8 -81.5v-30zM1282 383q0 24 -10 49t-33.5 45t-62.5 32.5t-97 12.5q-59 0 -98 -12.5t-62 -32.5t-32.5 -45t-9.5 -49v-12q0 -25 10 -51t34 -47.5t62.5 -35t95.5 -13.5q58 0 97 13t62.5 34t33.5 47t10 51v14z" />
    <glyph glyph-name="uni042F" unicode="&#x42f;" horiz-adv-x="1162" 
d="M665 192l-213 -192h-447l262 222q-120 28 -178 90t-58 148v26q0 52 18.5 98.5t61 82t112.5 56.5t173 21h738v-744h-379v192h-90zM755 526h-250q-45 0 -64 -19.5t-19 -45.5v-2q0 -26 19 -45t65 -19h249v131z" />
    <glyph glyph-name="uni0430" unicode="&#x430;" horiz-adv-x="927" 
d="M519 251l-116 -31q-19 -5 -29 -13.5t-10 -24.5v-1q0 -14 12.5 -29t47.5 -15q47 0 71 23t24 55v36zM522 68q-10 -9 -30.5 -22.5t-52 -26t-75.5 -21t-101 -8.5h-6q-68 0 -114.5 14.5t-76 38.5t-42.5 54t-13 61v20q0 28 9 52.5t32 44t62 32.5t99 18l283 23q15 2 19.5 8
t4.5 14v1q0 13 -14 23.5t-60 10.5h-2q-30 0 -46 -5t-24 -12t-10 -14.5t-2 -12.5h-338v12q0 18 3.5 38.5t16.5 40.5t38 38t68.5 31.5t107.5 21.5t156 8h57q96 0 163.5 -8.5t113.5 -22.5t72 -32t40 -37t17.5 -38t3.5 -35v-184q0 -17 14 -17h31v-177h-313q-42 0 -64 19t-27 49z
" />
    <glyph glyph-name="uni0431" unicode="&#x431;" horiz-adv-x="992" 
d="M982 246q0 -20 -4 -47.5t-18 -56.5t-42.5 -57t-77.5 -50.5t-122.5 -36t-177.5 -13.5h-81q-135 0 -222 29.5t-137.5 77.5t-70 109.5t-19.5 126.5v3q0 205 119.5 304t343.5 99h75q41 0 55 7.5t14 15.5h344q0 -60 -17.5 -104t-58 -73.5t-106 -43.5t-160.5 -14h-96
q-108 0 -157 -27t-57 -81q42 33 114.5 53.5t177.5 20.5h18q120 0 191.5 -22t110 -56t50 -74.5t11.5 -76.5v-13zM499 154q36 0 59 10t36 24.5t17.5 31.5t4.5 32v1q0 14 -4.5 30.5t-17.5 30.5t-35.5 23.5t-59.5 9.5q-38 0 -61.5 -9.5t-36.5 -24t-18 -31.5t-5 -31v-1
q0 -15 4.5 -31.5t17.5 -31t37 -24t62 -9.5z" />
    <glyph glyph-name="uni0432" unicode="&#x432;" horiz-adv-x="961" 
d="M24 0v538h656q72 0 118.5 -10.5t73 -27.5t37 -39t10.5 -44v-4q0 -23 -11 -41t-28.5 -31.5t-40 -22t-46.5 -12.5q30 -5 59.5 -14t53 -25.5t37.5 -42t14 -61.5v-5q0 -32 -14 -60.5t-46.5 -50.5t-85.5 -34.5t-131 -12.5h-656zM503 346q30 0 43.5 6t13.5 20v2
q0 15 -13.5 19.5t-43.5 4.5h-126v-52h126zM515 145q42 0 55 9t13 25v1q0 15 -13 23t-55 8h-138v-66h138z" />
    <glyph glyph-name="uni0433" unicode="&#x433;" horiz-adv-x="678" 
d="M24 538h644v-195h-280v-343h-364v538z" />
    <glyph glyph-name="uni0434" unicode="&#x434;" horiz-adv-x="1089" 
d="M5 195h75q10 14 19.5 38.5t16.5 65t11 99t3 140.5h849v-343h100v-335h-320v140h-434v-140h-320v335zM625 195v153h-186q-2 -42 -8.5 -83t-17.5 -70h212z" />
    <glyph glyph-name="uni0435" unicode="&#x435;" horiz-adv-x="954" 
d="M589 347q-2 12 -8 23t-18 19.5t-32 13t-50 4.5q-32 0 -52 -5t-32 -13.5t-17 -19t-7 -22.5h216zM949 204q0 -19 -5 -43t-21 -48.5t-46 -47.5t-80 -40.5t-123 -28.5t-175 -11h-45q-103 0 -176 14t-122 37t-77.5 52.5t-43 61t-18.5 62t-4 55.5v14q0 25 4 55t19 60t43.5 58.5
t77.5 50.5t122 35t176 13h44q105 0 179.5 -13.5t124.5 -36.5t79 -53t44 -63.5t19 -68t4 -65.5v-14h-577q1 -15 6.5 -30.5t17.5 -28.5t33 -21t54 -8q36 0 56.5 7t31.5 16.5t14.5 18.5t4.5 13h359v-2z" />
    <glyph glyph-name="uni0436" unicode="&#x436;" horiz-adv-x="1356" 
d="M491 227l-125 -227h-380l158 289l-141 249h379l109 -192v192h364v-192l109 192h369l-130 -231l167 -307h-390l-125 227v-227h-364v227z" />
    <glyph glyph-name="uni0437" unicode="&#x437;" horiz-adv-x="934" 
d="M924 158q0 -35 -22.5 -66.5t-75 -55t-137.5 -37.5t-211 -14h-41q-95 0 -163.5 12.5t-116.5 32.5t-77.5 45.5t-45.5 52t-21.5 52t-5.5 44.5v3h349q0 -12 3 -28t14.5 -31t34 -25.5t62.5 -10.5q45 0 62.5 12t17.5 29v1q0 18 -17.5 29t-57.5 11h-91v114h87q31 0 44 11t13 28
v2q0 14 -15 26t-53 12q-54 0 -78.5 -24.5t-25.5 -61.5h-349v3q0 17 5 41t21 49t45 50t76.5 45t116.5 32t165 12h67q101 0 173.5 -8.5t119 -25.5t68.5 -42.5t22 -59.5v-4q0 -23 -12.5 -41t-32 -31.5t-43.5 -22t-48 -12.5q30 -5 61 -14t56 -25.5t41 -42t16 -61.5v-5z" />
    <glyph glyph-name="uni0438" unicode="&#x438;" horiz-adv-x="982" 
d="M24 538h364v-272l206 272h364v-538h-364v272l-206 -272h-364v538z" />
    <glyph glyph-name="uni0439" unicode="&#x439;" horiz-adv-x="982" 
d="M24 538h364v-272l206 272h364v-538h-364v272l-206 -272h-364v538zM762 742q0 -22 -10.5 -52.5t-37 -58t-72.5 -46.5t-118 -19h-54q-78 0 -125.5 19t-73 46.5t-33.5 58t-8 52.5v2h202v-1q0 -5 2.5 -12.5t9 -14.5t19.5 -12.5t34 -5.5h2q20 0 32.5 5.5t19 12.5t9 14.5
t2.5 12.5v1h200v-2v0z" />
    <glyph glyph-name="uni043A" unicode="&#x43a;" horiz-adv-x="909" 
d="M388 229v-229h-364v538h364v-195l119 195h382l-151 -224l185 -314h-400z" />
    <glyph glyph-name="uni043B" unicode="&#x43b;" horiz-adv-x="972" 
d="M564 343h-130q-2 -63 -5.5 -107t-9.5 -74.5t-15 -52t-23 -39.5q-18 -23 -38.5 -37t-45.5 -21.5t-56 -9.5t-68 -2h-168v214h12q50 0 69 34q6 10 10 27t7 49t4.5 83t1.5 131h819v-538h-364v343z" />
    <glyph glyph-name="uni043C" unicode="&#x43c;" horiz-adv-x="1252" 
d="M373 270v-270h-349v538h479l128 -229l135 229h462v-538h-362v268l-159 -268h-175z" />
    <glyph glyph-name="uni043D" unicode="&#x43d;" horiz-adv-x="972" 
d="M24 0v538h364v-174h196v174h364v-538h-364v169h-196v-169h-364z" />
    <glyph glyph-name="uni043E" unicode="&#x43e;" horiz-adv-x="999" 
d="M462 -15q-102 0 -175.5 14t-123.5 37t-79.5 52.5t-45 60.5t-20.5 61.5t-5 54.5v14q0 24 5 53.5t20.5 60t45.5 59.5t79.5 51.5t122.5 36t175 13.5h84q104 0 178 -13.5t123.5 -36t78.5 -51.5t44 -59t19 -59.5t4 -53.5v-16q0 -24 -4.5 -54t-19.5 -61t-44 -60.5t-79 -52.5
t-124 -37t-178 -14h-81zM504 154q37 0 60 12.5t36 30.5t18 39.5t5 39.5q0 16 -4.5 35t-17.5 35.5t-36.5 27.5t-60.5 11h-3q-37 0 -60 -11t-36 -27.5t-18 -35.5t-5 -35q0 -18 4.5 -39.5t17.5 -40t36 -30.5t61 -12h3z" />
    <glyph glyph-name="uni043F" unicode="&#x43f;" horiz-adv-x="962" 
d="M24 538h914v-538h-364v343h-186v-343h-364v538z" />
    <glyph glyph-name="uni0440" unicode="&#x440;" horiz-adv-x="976" 
d="M391 266q0 -17 5.5 -35t18 -34t33 -26t50.5 -10h6q28 0 46 10t29 25.5t15.5 34t4.5 34.5v4q0 18 -4.5 36.5t-15.5 34t-29 25.5t-46 10h-6q-30 0 -50.5 -9.5t-33 -24.5t-18 -33.5t-5.5 -37.5v-4zM391 538v-71q7 6 25 18t48.5 25t72.5 22.5t97 9.5h27q95 0 155 -23.5
t93.5 -60t46 -80.5t12.5 -85v-25q0 -45 -14 -93.5t-49.5 -88t-97 -65t-157.5 -25.5h-26q-51 0 -90.5 6.5t-69 15t-48 17t-25.5 12.5v-235h-364v726h364z" />
    <glyph glyph-name="uni0441" unicode="&#x441;" horiz-adv-x="953" 
d="M450 -15q-105 0 -178 14t-122 37t-76 52.5t-41 60.5t-17 61.5t-3 54.5v14q0 24 3 53.5t16.5 60t41 59.5t76 51.5t121.5 36t178 13.5h72q100 0 171 -13t118.5 -34.5t75 -48.5t41.5 -55t18 -53.5t4 -44.5v-3h-369q0 7 -3.5 21t-13.5 28t-28.5 25t-49.5 11h-5
q-32 0 -51.5 -10t-30 -26t-13.5 -35.5t-3 -37.5v-1q0 -20 3 -41.5t13.5 -39t30 -29t51.5 -11.5h5q31 0 49.5 12t28.5 27.5t13.5 30.5t3.5 22h369v-3q0 -17 -3 -43t-16.5 -54.5t-40.5 -57.5t-74.5 -52t-119.5 -37.5t-175 -14.5h-70z" />
    <glyph glyph-name="uni0442" unicode="&#x442;" horiz-adv-x="804" 
d="M220 343h-210v195h784v-195h-210v-343h-364v343z" />
    <glyph glyph-name="uni0443" unicode="&#x443;" horiz-adv-x="905" 
d="M118 -11h115q14 0 19 5.5t5 12.5v1q0 9 -5.5 20.5t-13.5 28.5l-249 481h386l105 -305l84 305h358l-215 -535q-41 -102 -95.5 -146.5t-129.5 -44.5h-364v177z" />
    <glyph glyph-name="uni0444" unicode="&#x444;" horiz-adv-x="1362" 
d="M863 -15v-173h-364v173h-50q-100 0 -171.5 14t-120.5 37t-78 52.5t-44.5 60.5t-20 61t-4.5 54v15q0 24 4.5 53.5t20 60t44.5 59.5t78 51.5t120 36t171 13.5h51v191h364v-191h40q100 0 172 -14t122 -37t80.5 -52.5t47 -60.5t22 -61t5.5 -54v-15q0 -24 -5.5 -53.5t-22 -60
t-47 -59.5t-80 -51.5t-121.5 -36t-172 -13.5h-41zM499 153v233h-16q-29 0 -49 -11t-32 -28t-17.5 -37t-5.5 -37v-3q0 -49 24 -82.5t80 -34.5h16zM863 386v-233h16q29 0 49 11t32 27.5t17.5 36.5t5.5 37v3q0 49 -24 83t-80 35h-16z" />
    <glyph glyph-name="uni0445" unicode="&#x445;" horiz-adv-x="951" 
d="M-7 0l184 284l-188 254h397l91 -144l78 144h392l-174 -250l195 -288h-401l-91 162l-95 -162h-388z" />
    <glyph glyph-name="uni0446" unicode="&#x446;" horiz-adv-x="1048" 
d="M1038 -140h-320v140h-694v538h364v-343h186v343h364v-343h100v-335z" />
    <glyph glyph-name="uni0447" unicode="&#x447;" horiz-adv-x="958" 
d="M934 538v-538h-364v162q-18 -4 -63 -10t-111 -6q-95 0 -167 13.5t-120.5 46.5t-73.5 87t-25 135v110h364v-104q0 -29 6.5 -47t18.5 -28t30.5 -13t42.5 -3q32 0 58 3t40 8v184h364z" />
    <glyph glyph-name="uni0448" unicode="&#x448;" horiz-adv-x="1352" 
d="M24 538h364v-343h106v343h364v-343h106v343h364v-538h-1304v538z" />
    <glyph glyph-name="uni0449" unicode="&#x449;" horiz-adv-x="1438" 
d="M24 538h364v-343h106v343h364v-343h106v343h364v-343h100v-335h-320v140h-1084v538z" />
    <glyph glyph-name="uni044A" unicode="&#x44a;" horiz-adv-x="1121" 
d="M10 538h554v-124h207q102 0 168.5 -15.5t105.5 -42t55 -61.5t16 -75v-20q0 -40 -16 -76.5t-56 -64t-106.5 -43.5t-166.5 -16h-571v343h-190v195zM680 157q40 0 53.5 16t13.5 34v1q0 19 -14 34t-54 15h-115v-100h116z" />
    <glyph glyph-name="uni044B" unicode="&#x44b;" horiz-adv-x="1358" 
d="M1337 0h-364v538h364v-538zM24 538h364v-124h207q102 0 168.5 -15.5t105.5 -42t55 -61.5t16 -75v-20q0 -40 -16 -76.5t-56 -64t-106.5 -43.5t-166.5 -16h-571v538zM504 157q40 0 53.5 16t13.5 34v1q0 19 -14 34t-54 15h-115v-100h116z" />
    <glyph glyph-name="uni044C" unicode="&#x44c;" horiz-adv-x="945" 
d="M24 538h364v-124h207q102 0 168.5 -15.5t105.5 -42t55 -61.5t16 -75v-20q0 -40 -16 -76.5t-56 -64t-106.5 -43.5t-166.5 -16h-571v538zM504 157q40 0 53.5 16t13.5 34v1q0 19 -14 34t-54 15h-115v-100h116z" />
    <glyph glyph-name="uni044D" unicode="&#x44d;" horiz-adv-x="952" 
d="M942 264q0 -24 -5.5 -54t-21.5 -61t-45.5 -60.5t-78 -52.5t-119 -37t-167.5 -14h-70q-92 0 -159.5 12.5t-115 32.5t-77.5 45.5t-47 52t-23 52t-6 44.5v3h369q2 -16 8 -32.5t18 -30.5t30 -23t44 -9h5q44 0 65.5 24.5t29.5 56.5h-172v115h174q-3 15 -10 29t-18.5 25.5
t-28 18t-40.5 6.5h-5q-26 0 -44.5 -8t-30 -20.5t-17.5 -27.5t-8 -30h-369v3q0 17 6 41t22 49t46 50t77 45t115 32t161 12h72q97 0 167 -13.5t118.5 -36t78 -51.5t45.5 -59.5t21.5 -60t5.5 -53.5v-15z" />
    <glyph glyph-name="uni044E" unicode="&#x44e;" horiz-adv-x="1389" 
d="M1379 264q0 -24 -5 -54t-20.5 -61t-45 -60.5t-78.5 -52.5t-120 -37t-170 -14h-61q-105 0 -179 16t-123.5 42.5t-77.5 59.5t-41 66h-70v-169h-364v538h364v-174h67q12 34 39 67.5t76.5 60.5t124.5 44t183 17h64q99 0 170 -13.5t119.5 -36t77.5 -51.5t44.5 -59t20.5 -59.5
t5 -53.5v-16zM908 385q-29 0 -48 -11t-30 -27t-16 -35t-5 -35v-1q0 -18 4.5 -39.5t15.5 -40t30.5 -30.5t48.5 -12h3q29 0 48 12t30.5 30.5t16 39.5t4.5 39v1q0 16 -4.5 35t-16 35.5t-30.5 27.5t-48 11h-3z" />
    <glyph glyph-name="uni044F" unicode="&#x44f;" horiz-adv-x="968" 
d="M524 134l-139 -134h-385l174 165q-40 12 -68 29t-45 38t-25 45t-8 49v10q0 40 16 77t56 64.5t106 44t167 16.5h571v-538h-364v134h-56zM460 371q-37 0 -50 -13.5t-13 -31.5v-1q0 -19 13 -31.5t50 -12.5h120v90h-120z" />
    <glyph glyph-name="uni0451" unicode="&#x451;" horiz-adv-x="960" 
d="M589 347q-2 12 -8 23t-18 19.5t-32 13t-50 4.5q-32 0 -52 -5t-32 -13.5t-17 -19t-7 -22.5h216zM949 204q0 -19 -5 -43t-21 -48.5t-46 -47.5t-80 -40.5t-123 -28.5t-175 -11h-45q-103 0 -176 14t-122 37t-77.5 52.5t-43 61t-18.5 62t-4 55.5v14q0 25 4 55t19 60t43.5 58.5
t77.5 50.5t122 35t176 13h44q105 0 179.5 -13.5t124.5 -36.5t79 -53t44 -63.5t19 -68t4 -65.5v-14h-577q1 -15 6.5 -30.5t17.5 -28.5t33 -21t54 -8q36 0 56.5 7t31.5 16.5t14.5 18.5t4.5 13h359v-2zM782 569h-281v175h281v-175zM463 569h-280v175h280v-175z" />
    <glyph glyph-name="uni0452" unicode="&#x452;" horiz-adv-x="982" 
d="M958 -33q0 -46 -11 -76t-29.5 -47.5t-42 -24.5t-48.5 -7h-293v168h27q21 0 27 6.5t6 29.5v225q0 19 -4.5 38t-16 33t-31.5 23t-51 9q-29 0 -48.5 -8.5t-31.5 -23t-17.5 -33t-5.5 -37.5v-242h-364v574h-53v124h53v46h364v-46h239v-124h-239v-137q9 9 31 27.5t58.5 37.5
t88.5 33.5t120 14.5h5q85 0 137.5 -22.5t81.5 -54t38.5 -64.5t9.5 -53v-389z" />
    <glyph glyph-name="uni0453" unicode="&#x453;" horiz-adv-x="678" 
d="M24 538h644v-195h-280v-343h-364v538zM264 744h342l-119 -175h-308z" />
    <glyph glyph-name="uni0454" unicode="&#x454;" horiz-adv-x="953" 
d="M945 224q0 -19 -5.5 -44.5t-21.5 -52t-45 -52t-77 -45.5t-116.5 -32.5t-162.5 -12.5h-70q-105 0 -178 14t-122 37t-76 52.5t-41 60.5t-17 61t-3 54v15q0 24 3 53.5t16.5 60t41 59.5t76 51.5t121.5 36t178 13.5h72q95 0 164 -12t116.5 -32t76.5 -45t44.5 -50t20.5 -49
t5 -41v-3h-369q0 12 -5 26.5t-16 28t-29 22.5t-44 9h-5q-51 0 -73.5 -23.5t-29.5 -55.5h184v-115h-183q8 -34 30 -57.5t72 -23.5h5q25 0 43 9.5t29 24t16.5 31t5.5 30.5h369v-3z" />
    <glyph glyph-name="uni0455" unicode="&#x455;" horiz-adv-x="875" 
d="M389 -15q-86 0 -147.5 9t-104.5 24.5t-69 35t-40.5 41t-19 42.5t-4.5 39v8h367q1 -18 13 -35t47 -17h2q32 0 44.5 10.5t12.5 24.5v1q0 17 -14.5 26t-59.5 11l-147 6q-79 4 -129 19.5t-78 38.5t-38.5 52.5t-10.5 60.5v7q0 37 16.5 67.5t59 52t115.5 33t186 11.5h78
q120 0 194.5 -13t116.5 -35t57 -51.5t15 -62.5v-9h-357q0 5 -1.5 12t-7.5 13t-18 10.5t-33 4.5h-2q-38 0 -49 -7.5t-11 -21.5q0 -6 3 -11.5t11 -10t23 -7.5t38 -4l147 -6q87 -4 141 -17t85 -35t42 -53t11 -71v-9q0 -36 -14 -69.5t-56.5 -59t-122 -40.5t-210.5 -15h-81v0z
" />
    <glyph glyph-name="uni0456" unicode="&#x456;" horiz-adv-x="412" 
d="M391 569h-364v175h364v-175zM391 0h-364v538h364v-538z" />
    <glyph glyph-name="uni0457" unicode="&#x457;" horiz-adv-x="412" 
d="M188 569h-180v175h180v-175zM397 569h-181v175h181v-175zM391 0h-364v538h364v-538z" />
    <glyph glyph-name="uni0458" unicode="&#x458;" horiz-adv-x="412" 
d="M391 569h-364v175h364v-175zM-6 -20q21 0 27 6t6 29v523h364v-562q0 -49 -11 -80.5t-29.5 -50t-42 -26t-48.5 -7.5h-293v168h27z" />
    <glyph glyph-name="uni0459" unicode="&#x459;" horiz-adv-x="1455" 
d="M918 538v-124h187q102 0 168.5 -15.5t105.5 -42t55 -61.5t16 -75v-20q0 -40 -16 -76.5t-56 -64t-106.5 -43.5t-166.5 -16h-551v343h-120q-2 -63 -5.5 -107t-9.5 -74t-14 -49.5t-18 -34.5q-19 -26 -40.5 -41.5t-47.5 -23.5t-57.5 -10.5t-68.5 -2.5h-168v214h12q50 0 69 34
q6 10 10 27t7 49t4.5 83t1.5 131h809zM1013 157q40 0 54 15.5t14 34.5v1q0 20 -13.5 34.5t-54.5 14.5h-95v-100h95z" />
    <glyph glyph-name="uni045A" unicode="&#x45a;" horiz-adv-x="1465" 
d="M24 0v538h364v-145h176v145h364v-145h187q102 0 168.5 -14.5t105.5 -39.5t55 -58.5t16 -70.5v-20q0 -38 -16 -72.5t-56 -60.5t-106.5 -41.5t-166.5 -15.5h-551v208h-176v-208h-364zM928 157h100q37 0 50 14t13 26v1q0 12 -13 25t-50 13h-100v-79z" />
    <glyph glyph-name="uni045B" unicode="&#x45b;" horiz-adv-x="988" 
d="M27 744h364v-46h239v-124h-239v-137q9 9 31 27.5t58.5 37.5t88.5 33.5t120 14.5h5q85 0 137.5 -22.5t81.5 -54t38.5 -64.5t9.5 -53v-356h-364v241q0 19 -4.5 38t-16 33t-31.5 23t-51 9q-29 0 -48.5 -8.5t-31.5 -23t-17.5 -33t-5.5 -37.5v-242h-364v574h-53v124h53v46z
" />
    <glyph glyph-name="uni045C" unicode="&#x45c;" horiz-adv-x="909" 
d="M374 744h342l-119 -175h-308zM388 229v-229h-364v538h364v-195l119 195h382l-151 -224l185 -314h-400z" />
    <glyph glyph-name="uni045E" unicode="&#x45e;" horiz-adv-x="905" 
d="M118 -11h115q14 0 19 5.5t5 12.5v1q0 9 -5.5 20.5t-13.5 28.5l-249 481h386l105 -305l84 305h358l-215 -535q-41 -102 -95.5 -146.5t-129.5 -44.5h-364v177zM738 742q0 -22 -10.5 -52.5t-37 -58t-72.5 -46.5t-118 -19h-54q-78 0 -125.5 19t-73 46.5t-33.5 58t-8 52.5v2
h202v-1q0 -5 2.5 -12.5t9 -14.5t19.5 -12.5t34 -5.5h2q20 0 32.5 5.5t19 12.5t9 14.5t2.5 12.5v1h200v-2v0z" />
    <glyph glyph-name="uni045F" unicode="&#x45f;" horiz-adv-x="962" 
d="M641 0v-140h-320v140h-297v538h364v-343h186v343h364v-538h-297z" />
    <glyph glyph-name="uni0490" unicode="&#x490;" horiz-adv-x="908" 
d="M28 744h510v140h350v-372h-480v-512h-380v744z" />
    <glyph glyph-name="uni0491" unicode="&#x491;" horiz-adv-x="678" 
d="M24 538h324v140h320v-335h-280v-343h-364v538z" />
    <glyph glyph-name="uni0492" unicode="&#x492;" horiz-adv-x="941" 
d="M61 744h860v-232h-480v-70h244v-175h-244v-267h-380v267h-59v175h59v302z" />
    <glyph glyph-name="uni0493" unicode="&#x493;" horiz-adv-x="715" 
d="M61 538h644v-195h-280v-51h151v-126h-151v-166h-364v166h-53v126h53v246z" />
    <glyph glyph-name="uni0496" unicode="&#x496;" horiz-adv-x="1891" 
d="M1537 -140v140h-146l-266 289v-289h-380v289l-266 -289h-492l412 406l-419 338h467l298 -258v258h380v-258l298 258h462l-414 -334l180 -178h236v-372h-350z" />
    <glyph glyph-name="uni0497" unicode="&#x497;" horiz-adv-x="1375" 
d="M491 227l-125 -227h-380l158 289l-141 249h379l109 -192v192h364v-192l109 192h369l-130 -231l61 -112h106v-335h-320v140h-70l-125 227v-227h-364v227z" />
    <glyph glyph-name="uni049A" unicode="&#x49a;" horiz-adv-x="1214" 
d="M860 -140v140h-146l-306 297v-297h-380v744h380v-264l338 264h462l-442 -334l193 -178h251v-372h-350z" />
    <glyph glyph-name="uni049B" unicode="&#x49b;" horiz-adv-x="929" 
d="M388 229v-229h-364v538h364v-195l119 195h382l-151 -224l70 -119h116v-335h-320v140h-81z" />
    <glyph glyph-name="uni04A2" unicode="&#x4a2;" horiz-adv-x="1316" 
d="M956 -140v140h-150v265h-398v-265h-380v744h380v-247h398v247h380v-512h120v-372h-350z" />
    <glyph glyph-name="uni04A3" unicode="&#x4a3;" horiz-adv-x="1058" 
d="M24 0v538h364v-174h196v174h364v-343h100v-335h-320v140h-144v169h-196v-169h-364z" />
    <glyph glyph-name="uni04AE" unicode="&#x4ae;" horiz-adv-x="1186" 
d="M408 264l-425 480h438l191 -224l194 224h403l-421 -485v-259h-380v264z" />
    <glyph glyph-name="uni04AF" unicode="&#x4af;" horiz-adv-x="933" 
d="M654 -188h-364v188l-304 538h389l97 -243l93 243h382l-293 -538v-188z" />
    <glyph glyph-name="uni04B0" unicode="&#x4b0;" horiz-adv-x="1186" 
d="M408 264l-425 480h438l191 -224l194 224h403l-417 -480h213v-157h-217v-107h-380v107h-223v157h223z" />
    <glyph glyph-name="uni04B1" unicode="&#x4b1;" horiz-adv-x="933" 
d="M654 -188h-364v64h-180v124h180l-304 538h389l97 -243l93 243h382l-293 -538h180v-124h-180v-64z" />
    <glyph glyph-name="uni04B2" unicode="&#x4b2;" horiz-adv-x="1230" 
d="M876 -140v140h-104l-169 232l-170 -232h-447l287 393l-269 351h460l151 -221l151 221h432l-253 -352l116 -160h165v-228l3 -4h-3v-140h-350z" />
    <glyph glyph-name="uni04B3" unicode="&#x4b3;" horiz-adv-x="970" 
d="M-7 0l184 284l-188 254h397l91 -144l78 144h392l-174 -250l63 -93h129v-191l3 -4h-3v-140h-320v140h-78l-91 162l-95 -162h-388z" />
    <glyph glyph-name="uni04BA" unicode="&#x4ba;" horiz-adv-x="1151" 
d="M408.045 483.016q27.999 5 89.9951 10.5q61.9961 5.49902 155.99 5.49902q122.992 0 213.487 -17.499q90.4941 -17.498 150.49 -58.4961q59.9971 -40.9971 88.9951 -109.493t28.998 -170.489v-142.992h-379.977v144.991q0 37.998 -12.5 61.9971
q-12.499 23.998 -36.4971 37.4971q-23.999 13.499 -58.9971 17.999q-34.9971 4.5 -79.9951 4.5q-52.9961 0 -94.9941 -4q-41.9971 -4 -64.9961 -7v-255.984h-379.977v743.955h379.977v-260.984z" />
    <glyph glyph-name="uni04BB" unicode="&#x4bb;" horiz-adv-x="982" 
d="M27 744h364v-307q9 9 31 27.5t58.5 37.5t88.5 33.5t120 14.5h5q85 0 137.5 -22.5t81.5 -54t38.5 -64.5t9.5 -53v-356h-364v241q0 19 -4.5 38t-16 33t-31.5 23t-51 9q-29 0 -48.5 -8.5t-31.5 -23t-17.5 -33t-5.5 -37.5v-242h-364v744z" />
    <glyph glyph-name="uni04C0" unicode="&#x4c0;" horiz-adv-x="435" 
d="M410 0h-379v744h379v-744z" />
    <glyph glyph-name="uni04CF" unicode="&#x4cf;" horiz-adv-x="412" 
d="M391 0h-364v744h364v-744z" />
    <glyph glyph-name="uni04D8" unicode="&#x4d8;" horiz-adv-x="1214" 
d="M1202 360q0 -64 -23 -130.5t-85.5 -121t-173.5 -89t-287 -34.5h-34q-121 0 -212 16t-156 43.5t-107.5 64.5t-67.5 78.5t-34.5 85.5t-9.5 87v83h790q-17 48 -61 74.5t-130 26.5q-58 0 -96 -8.5t-61 -20t-33 -23.5t-12 -19h-388v1q1 27 8.5 59t28.5 63.5t60 61t103 52
t156.5 36t220.5 13.5h33q172 0 282.5 -31t174.5 -82.5t89 -118t25 -137.5v-30zM417 291q11 -41 58 -69t132 -28q81 0 127 25t64 72h-381z" />
    <glyph glyph-name="uni04D9" unicode="&#x4d9;" horiz-adv-x="954" 
d="M367.036 191.021q2 -12 7.99902 -22.999q6 -10.999 17.999 -19.499q11.999 -8.49902 31.998 -12.999t49.9971 -4.5q31.998 0 51.9971 5t31.998 13.499q11.999 8.5 16.999 18.999q4.99902 10.499 6.99902 22.499h-215.986zM7.05762 334.013q0 18.999 5 42.9971
q5 23.999 20.999 48.4971q15.999 24.499 45.9971 47.4971q29.998 22.999 79.9951 40.498q49.9971 17.498 122.992 28.498q72.9961 10.999 174.989 10.999h44.9971q102.994 0 175.989 -13.999q72.9961 -13.999 121.993 -36.998q48.9971 -22.998 77.4951 -52.4961
q28.498 -29.499 42.9971 -60.9971t18.499 -61.9961t4 -55.4961v-13.999q0 -24.999 -4 -54.9971t-18.999 -59.9961t-43.4971 -58.4971q-28.498 -28.498 -77.4951 -50.4961q-48.9971 -21.999 -121.993 -34.998q-72.9951 -12.999 -175.989 -12.999h-43.9971
q-104.993 0 -179.489 13.499q-74.4951 13.499 -124.492 36.4971q-49.9971 22.999 -78.9951 52.9971t-43.9971 63.4961t-18.999 67.9961t-4 65.4961v13.999h576.965q-1 14.999 -6.49902 30.498q-5.5 15.499 -17.499 28.498t-32.998 20.999q-20.999 7.99902 -53.9971 7.99902
q-35.998 0 -56.4961 -6.99902q-20.499 -7 -31.498 -16.499q-11 -9.49902 -14.499 -18.499q-3.5 -8.99902 -4.5 -12.999h-358.979v2z" />
    <glyph glyph-name="uni04E8" unicode="&#x4e8;" horiz-adv-x="1232" 
d="M641 759q126 0 217.5 -16.5t156 -44.5t104.5 -65.5t62.5 -78.5t30.5 -83.5t8 -81.5v-30q0 -38 -8 -80.5t-30.5 -84.5t-62.5 -79.5t-104.5 -66.5t-156.5 -46t-217 -17h-50q-125 0 -216.5 17t-156 46t-105 66.5t-63 79.5t-30.5 84.5t-8 80.5v30q0 39 8 81.5t30.5 83.5
t62.5 78.5t104.5 65.5t156 44.5t217.5 16.5h50zM615 534q-50 0 -86.5 -5.5t-62 -16t-41.5 -24.5t-25 -31h430q-18 34 -67 55.5t-148 21.5zM615 212q48 0 84 5.5t61.5 16t42 25t26.5 31.5h-425q10 -17 26.5 -31t41.5 -24.5t60.5 -16.5t82.5 -6z" />
    <glyph glyph-name="uni04E9" unicode="&#x4e9;" horiz-adv-x="999" 
d="M462 -15q-102 0 -175.5 14t-123.5 37t-79.5 52.5t-45 60.5t-20.5 61.5t-5 54.5v14q0 24 5 53.5t20.5 60t45.5 59.5t79.5 51.5t122.5 36t175 13.5h84q104 0 178 -13.5t123.5 -36t78.5 -51.5t44 -59t19 -59.5t4 -53.5v-16q0 -24 -4.5 -54t-19.5 -61t-44 -60.5t-79 -52.5
t-124 -37t-178 -14h-81zM504 154q37 0 60 12.5t36 30.5q6 8 10 17h-216q4 -9 10 -18q13 -18 36 -30t61 -12h3zM601 346q-13 17 -36.5 28t-60.5 11h-3q-37 0 -60 -11t-36 -28q-7 -8 -12 -17h219q-5 9 -11 17z" />
    <glyph glyph-name="Wgrave" unicode="&#x1e80;" horiz-adv-x="1750" 
d="M247 0l-260 744h436l125 -439l117 439h455l115 -447l118 447h410l-267 -744h-509l-111 413l-114 -413h-515zM1052 776h-318l-95 164h354z" />
    <glyph glyph-name="wgrave" unicode="&#x1e81;" horiz-adv-x="1366" 
d="M182 0l-192 538h379l73 -321l69 321h367l67 -318l71 318h360l-184 -538h-435l-62 258l-62 -258h-451zM536 569l-119 175h342l85 -175h-308z" />
    <glyph glyph-name="Wacute" unicode="&#x1e82;" horiz-adv-x="1750" 
d="M247 0l-260 744h436l125 -439l117 439h455l115 -447l118 447h410l-267 -744h-509l-111 413l-114 -413h-515zM784 940h354l-94 -164h-318z" />
    <glyph glyph-name="wacute" unicode="&#x1e83;" horiz-adv-x="1366" 
d="M182 0l-192 538h379l73 -321l69 321h367l67 -318l71 318h360l-184 -538h-435l-62 258l-62 -258h-451zM628 744h342l-119 -175h-308z" />
    <glyph glyph-name="Wdieresis" unicode="&#x1e84;" horiz-adv-x="1750" 
d="M247 0l-260 744h436l125 -439l117 439h455l115 -447l118 447h410l-267 -744h-509l-111 413l-114 -413h-515zM1195 776h-291v164h291v-164zM864 776h-290v164h290v-164z" />
    <glyph glyph-name="wdieresis" unicode="&#x1e85;" horiz-adv-x="1366" 
d="M182 0l-192 538h379l73 -321l69 321h367l67 -318l71 318h360l-184 -538h-435l-62 258l-62 -258h-451zM990 569h-281v175h281v-175zM671 569h-280v175h280v-175z" />
    <glyph glyph-name="Ygrave" unicode="&#x1ef2;" horiz-adv-x="1192" 
d="M408 264l-425 480h438l191 -224l194 224h403l-421 -485v-259h-380v264zM772 776h-318l-95 164h354z" />
    <glyph glyph-name="ygrave" unicode="&#x1ef3;" horiz-adv-x="911" 
d="M118 -11h115q14 0 19 5.5t5 12.5v1q0 9 -5.5 20.5t-13.5 28.5l-249 481h386l105 -305l84 305h358l-215 -535q-41 -102 -95.5 -146.5t-129.5 -44.5h-364v177zM315 569l-119 175h342l85 -175h-308z" />
    <glyph glyph-name="uni2009" unicode="&#x2009;" horiz-adv-x="5" 
 />
    <glyph glyph-name="endash" unicode="&#x2013;" horiz-adv-x="975" 
d="M951 378v-163h-927v163h927z" />
    <glyph glyph-name="emdash" unicode="&#x2014;" horiz-adv-x="1500" 
d="M1476 378v-163h-1452v163h1452z" />
    <glyph glyph-name="quoteleft" unicode="&#x2018;" horiz-adv-x="382" 
d="M271 744q-6 -12 -13.5 -28t-14 -32.5t-12 -32.5t-7.5 -29h134v-191h-334v150q0 22 8 45.5t19 45.5t24 41t24 31h172z" />
    <glyph glyph-name="quoteright" unicode="&#x2019;" horiz-adv-x="382" 
d="M111 431q6 12 13.5 28t14 32.5t12 32.5t7.5 29h-134v191h334v-150q0 -22 -8 -45.5t-19 -45.5t-24.5 -41t-23.5 -31h-172z" />
    <glyph glyph-name="quotesinglbase" unicode="&#x201a;" horiz-adv-x="382" 
d="M111 -122q6 12 13.5 28t14 32.5t12 32.5t7.5 29h-134v191h334v-150q0 -22 -8 -45.5t-19 -45.5t-24.5 -41t-23.5 -31h-172z" />
    <glyph glyph-name="quotedblleft" unicode="&#x201c;" horiz-adv-x="746" 
d="M271 744q-6 -12 -13.5 -28t-14 -32.5t-12 -32.5t-7.5 -29h134v-191h-334v150q0 22 8 45.5t19 45.5t24 41t24 31h172zM635 744q-6 -12 -13.5 -28t-14 -32.5t-12 -32.5t-7.5 -29h134v-191h-334v150q0 22 8 45.5t19 45.5t24 41t24 31h172z" />
    <glyph glyph-name="quotedblright" unicode="&#x201d;" horiz-adv-x="746" 
d="M111 431q6 12 13.5 28t14 32.5t12 32.5t7.5 29h-134v191h334v-150q0 -22 -8 -45.5t-19 -45.5t-24.5 -41t-23.5 -31h-172zM475 431q6 12 13.5 28t14 32.5t12 32.5t7.5 29h-134v191h334v-150q0 -22 -8 -45.5t-19 -45.5t-24.5 -41t-23.5 -31h-172z" />
    <glyph glyph-name="quotedblbase" unicode="&#x201e;" horiz-adv-x="746" 
d="M475 -122q6 12 13.5 28t14 32.5t12 32.5t7.5 29h-134v191h334v-150q0 -22 -8 -45.5t-19 -45.5t-24.5 -41t-23.5 -31h-172zM111 -122q6 12 13.5 28t14 32.5t12 32.5t7.5 29h-134v191h334v-150q0 -22 -8 -45.5t-19 -45.5t-24.5 -41t-23.5 -31h-172z" />
    <glyph glyph-name="dagger" unicode="&#x2020;" horiz-adv-x="603" 
d="M134 386h-120v234h120v124h335v-124h120v-234h-120v-386h-335v386z" />
    <glyph glyph-name="daggerdbl" unicode="&#x2021;" horiz-adv-x="599" 
d="M14 123v208h120v87h-120v208h120v118h331v-118h120v-208h-120v-87h120v-208h-120v-123h-331v123h-120z" />
    <glyph glyph-name="bullet" unicode="&#x2022;" horiz-adv-x="541" 
d="M528 329q0 -54 -20 -100t-54.5 -79t-82 -52t-101.5 -19t-101 19t-81.5 52t-54.5 79t-20 100t20 100t54.5 79.5t81.5 52t101 18.5t101.5 -18.5t82 -52t54.5 -79.5t20 -100z" />
    <glyph glyph-name="ellipsis" unicode="&#x2026;" horiz-adv-x="1209" 
d="M383 0h-359v232h359v-232zM784 0h-359v232h359v-232zM1185 0h-359v232h359v-232z" />
    <glyph glyph-name="perthousand" unicode="&#x2030;" horiz-adv-x="2216" 
d="M338 322q-105 0 -169 21t-98.5 52.5t-46 68.5t-11.5 69v13q0 32 11.5 68t46.5 66.5t99.5 50.5t169.5 20h16q105 0 169.5 -20t99.5 -50.5t46.5 -66.5t11.5 -68v-13q0 -32 -11.5 -69t-46 -68.5t-98.5 -52.5t-169 -21h-20zM1308 744l-843 -744h-247l842 744h248zM348 470
q44 0 62.5 20.5t18.5 46.5v3q0 13 -4.5 25t-14 21t-25 14.5t-37.5 5.5t-37.5 -5.5t-25 -14.5t-14 -21t-4.5 -25v-3q0 -26 18.5 -46.5t62.5 -20.5zM1170 -8q-105 0 -169 21t-98.5 52.5t-46 68.5t-11.5 69v13q0 32 11.5 68t46.5 66.5t99.5 50.5t169.5 20h16q105 0 169.5 -20
t99.5 -50.5t46.5 -66.5t11.5 -68v-13q0 -32 -11.5 -69t-46 -68.5t-98.5 -52.5t-169 -21h-20zM1858 -8q-105 0 -169 21t-98.5 52.5t-46 68.5t-11.5 69v13q0 32 11.5 68t46.5 66.5t99.5 50.5t169.5 20h16q105 0 169.5 -20t99.5 -50.5t46.5 -66.5t11.5 -68v-13q0 -32 -11.5 -69
t-46 -68.5t-98.5 -52.5t-169 -21h-20zM1180 140q44 0 62.5 20.5t18.5 46.5v3q0 13 -4.5 25t-14 21t-25 14.5t-37.5 5.5t-37.5 -5.5t-25 -14.5t-14 -21t-4.5 -25v-3q0 -26 18.5 -46.5t62.5 -20.5zM1868 140q44 0 62.5 20.5t18.5 46.5v3q0 13 -4.5 25t-14 21t-25 14.5
t-37.5 5.5t-37.5 -5.5t-25 -14.5t-14 -21t-4.5 -25v-3q0 -26 18.5 -46.5t62.5 -20.5z" />
    <glyph glyph-name="uni2032" unicode="&#x2032;" horiz-adv-x="352" 
d="M281 453h-278l68 291h278z" />
    <glyph glyph-name="uni2033" unicode="&#x2033;" horiz-adv-x="665" 
d="M280 453h-277l69 291h277zM316 453l69 291h277l-69 -291h-277z" />
    <glyph glyph-name="guilsinglleft" unicode="&#x2039;" horiz-adv-x="379" 
d="M120 107l-114 179l114 175h249l-109 -175l110 -179h-250z" />
    <glyph glyph-name="guilsinglright" unicode="&#x203a;" horiz-adv-x="379" 
d="M9 107l110 179l-109 175h249l114 -175l-114 -179h-250z" />
    <glyph glyph-name="fraction" unicode="&#x2044;" horiz-adv-x="1132" 
d="M1129 744l-894 -744h-232l887 744h239z" />
    <glyph glyph-name="zero.sup" unicode="&#x2070;" horiz-adv-x="693" 
d="M358 755q108 0 171.5 -18t97.5 -46t44 -61t10 -63v-15q0 -20 -4 -41.5t-16 -42.5t-34 -40t-58 -33t-87.5 -22.5t-123.5 -8.5h-24q-71 0 -123 8.5t-87.5 22.5t-57.5 33t-33.5 40t-15.5 42.5t-4 41.5v15q0 30 10 63t43.5 61t97 46t170.5 18h24zM416 565q0 10 -3 22.5
t-10.5 23t-21 17.5t-35.5 7t-36 -7t-21.5 -17.5t-10 -23t-2.5 -22.5v-6q0 -11 3 -23.5t10.5 -23.5t21 -18t35.5 -7t36 7t21.5 18t10 23.5t2.5 23.5v6z" />
    <glyph glyph-name="four.sup" unicode="&#x2074;" horiz-adv-x="622" 
d="M285 744h262v-168h67v-121h-67v-79h-253v79h-287v117zM294 576v77l-127 -77h127z" />
    <glyph glyph-name="five.sup" unicode="&#x2075;" horiz-adv-x="628" 
d="M300 364q-70 0 -118.5 6.5t-80 17.5t-49.5 24.5t-26.5 27.5t-10.5 27t-2 22v3h234q0 -2 2.5 -5t9 -6t18 -5.5t30.5 -2.5q38 0 50.5 8t12.5 19v3q0 11 -13.5 19t-49.5 8q-37 0 -48 -7t-12 -10h-227v231h566v-102h-338v-56q3 3 12.5 8.5t28 11t48 10t74.5 4.5q63 0 103 -8
t63 -22.5t31.5 -35t8.5 -45.5v-6q0 -25 -9.5 -49.5t-41 -44.5t-91.5 -32.5t-160 -12.5h-15z" />
    <glyph glyph-name="six.sup" unicode="&#x2076;" horiz-adv-x="678" 
d="M335 364q-73 0 -125 9t-88 24t-57.5 35t-33 41t-15 42t-3.5 39v14q0 29 10 62t43.5 60.5t96 46t167.5 18.5h21q102 0 162 -13.5t91.5 -33.5t40.5 -43t9 -42h-241q-1 1 -3.5 4.5t-9.5 7.5t-19 7t-32 3q-30 0 -47 -9t-25.5 -21t-10 -25.5t-1.5 -22.5v-1q4 3 15.5 9t32.5 12
t53.5 10.5t79.5 4.5h5q71 0 114.5 -7.5t67 -21.5t31.5 -33t8 -43v-7q0 -21 -9.5 -43.5t-42 -41t-93.5 -30t-164 -11.5h-28zM275 495q0 -4 1.5 -9t9 -9.5t21.5 -8t40 -3.5t40.5 3.5t21.5 8t8.5 9.5t1.5 9v1q0 4 -1.5 9t-8.5 9.5t-21.5 7.5t-40.5 3t-40 -3t-21.5 -7.5t-9 -9.5
t-1.5 -9v-1z" />
    <glyph glyph-name="seven.sup" unicode="&#x2077;" horiz-adv-x="625" 
d="M613 744v-103q-5 -5 -14.5 -14t-20.5 -21t-23.5 -25.5t-24.5 -28.5q-17 -21 -26.5 -38t-15 -36.5t-7 -43t-1.5 -57.5v-1h-300v59q0 18 5 31t17 25.5t31.5 25.5t48.5 31q58 35 85 52.5t27 26.5h-140v-67h-238v184h597z" />
    <glyph glyph-name="eight.sup" unicode="&#x2078;" horiz-adv-x="660" 
d="M642 654q0 -19 -9.5 -33t-24.5 -24t-34.5 -16t-40.5 -9q21 -3 43 -9t39 -16.5t28 -25.5t11 -36v-8q0 -18 -8.5 -37.5t-40 -36t-93.5 -27t-170 -10.5h-24q-108 0 -170 10.5t-93.5 27t-40 36t-8.5 37.5v8q0 21 10.5 36t28 25.5t39 16.5t43.5 9q-21 3 -40.5 9t-34.5 16
t-24.5 24t-9.5 33v6q0 19 9.5 36.5t41 30.5t91 20.5t158.5 7.5h24q99 0 158.5 -7.5t91 -20.5t41 -30.5t9.5 -36.5v-6zM389 638q0 11 -11 17.5t-48 6.5t-48 -6.5t-11 -17.5v-2q0 -11 11 -18.5t48 -7.5t48 7.5t11 18.5v2zM394 502q0 14 -12.5 22t-51.5 8q-40 0 -52 -8t-12 -22
v-1q0 -14 12 -22.5t52 -8.5q39 0 51.5 8.5t12.5 22.5v1z" />
    <glyph glyph-name="nine.sup" unicode="&#x2079;" horiz-adv-x="680" 
d="M405 624q0 4 -1.5 9.5t-8.5 10t-21.5 7.5t-40.5 3t-40 -3t-21.5 -7.5t-9 -10t-1.5 -9.5v-1q0 -4 1.5 -9t9 -9.5t21.5 -7.5t40 -3t40.5 3t21.5 7.5t8.5 9.5t1.5 9v1zM332 364q-103 0 -163.5 13.5t-92 34t-40.5 43.5t-9 41h241q0 -1 3 -4.5t9.5 -7.5t18.5 -7t32 -3
q31 0 48 9t25 21t10 25.5t2 22.5v1q-5 -3 -16.5 -9t-32.5 -12t-52.5 -10.5t-76.5 -4.5h-6q-69 0 -112.5 9t-68 23.5t-34 33.5t-9.5 40v6q0 21 8.5 43.5t39.5 40.5t91 30t164 12h28q109 0 174.5 -19t99.5 -47t44.5 -60.5t10.5 -58.5v-14q0 -28 -10 -61.5t-42.5 -62.5
t-94.5 -48.5t-167 -19.5h-22z" />
    <glyph glyph-name="zero.sub" unicode="&#x2080;" horiz-adv-x="693" 
d="M358 285q108 0 171.5 -18t97.5 -46t44 -61t10 -63v-15q0 -20 -4 -41.5t-16 -42.5t-34 -40t-58 -33t-87.5 -22.5t-123.5 -8.5h-24q-71 0 -123 8.5t-87.5 22.5t-57.5 33t-33.5 40t-15.5 42.5t-4 41.5v15q0 30 10 63t43.5 61t97 46t170.5 18h24zM416 95q0 10 -3 22.5
t-10.5 23t-21 17.5t-35.5 7t-36 -7t-21.5 -17.5t-10 -23t-2.5 -22.5v-6q0 -11 3 -23.5t10.5 -23.5t21 -18t35.5 -7t36 7t21.5 18t10 23.5t2.5 23.5v6z" />
    <glyph glyph-name="one.sub" unicode="&#x2081;" horiz-adv-x="411" 
d="M14 96v114q43 1 70 6.5t43 14.5t24.5 20.5t13.5 22.5h221v-368h-262v190h-110z" />
    <glyph glyph-name="two.sub" unicode="&#x2082;" horiz-adv-x="631" 
d="M12 -94v56q0 29 6.5 54t34.5 46.5t85.5 39t159.5 32.5q24 3 38.5 6.5t22 7t10 7t2.5 8.5v1q0 8 -9.5 14t-44.5 6q-20 0 -31.5 -4t-17.5 -9t-8 -11t-2 -10h-241v3q0 17 6 39.5t34.5 43t87.5 35t164 14.5h18q93 0 150.5 -9.5t90 -25.5t44 -37.5t11.5 -45.5v-5
q0 -24 -11.5 -43t-42.5 -32.5t-86 -22.5t-143 -15q-66 -5 -96 -10t-38 -12h414v-121h-608z" />
    <glyph glyph-name="three.sub" unicode="&#x2083;" horiz-adv-x="649" 
d="M298 -106q-98 0 -156 15t-88 37t-39 45.5t-9 41.5v5h238q0 -3 2.5 -7.5t10 -9.5t20.5 -8.5t34 -3.5q44 0 57 6.5t13 16.5v1q0 9 -8 13.5t-31 4.5h-94v94h91q20 0 27 4t7 11v1q0 8 -11 14.5t-51 6.5q-22 0 -34.5 -3t-19 -7t-8.5 -8t-2 -6h-234v6q0 5 1.5 15.5t9.5 24
t25 28t48 26.5t77.5 19.5t114.5 7.5h40q97 0 154.5 -7.5t88 -20t39.5 -29t9 -33.5v-5q0 -17 -8 -29.5t-21 -20.5t-29 -12.5t-32 -6.5q23 -3 43.5 -10t36 -18.5t24.5 -28t9 -38.5v-3q0 -23 -9 -45.5t-41.5 -41.5t-94 -30.5t-166.5 -11.5h-34z" />
    <glyph glyph-name="four.sub" unicode="&#x2084;" horiz-adv-x="622" 
d="M285 274h262v-168h67v-121h-67v-79h-253v79h-287v117zM294 106v77l-127 -77h127z" />
    <glyph glyph-name="five.sub" unicode="&#x2085;" horiz-adv-x="628" 
d="M300 -106q-70 0 -118.5 6.5t-80 17.5t-49.5 24.5t-26.5 27.5t-10.5 27t-2 22v3h234q0 -2 2.5 -5t9 -6t18 -5.5t30.5 -2.5q38 0 50.5 8t12.5 19v3q0 11 -13.5 19t-49.5 8q-37 0 -48 -7t-12 -10h-227v231h566v-102h-338v-56q3 3 12.5 8.5t28 11t48 10t74.5 4.5q63 0 103 -8
t63 -22.5t31.5 -35t8.5 -45.5v-6q0 -25 -9.5 -49.5t-41 -44.5t-91.5 -32.5t-160 -12.5h-15z" />
    <glyph glyph-name="six.sub" unicode="&#x2086;" horiz-adv-x="678" 
d="M335 -106q-73 0 -125 9t-88 24t-57.5 35t-33 41t-15 42t-3.5 39v14q0 29 10 62t43.5 60.5t96 46t167.5 18.5h21q102 0 162 -13.5t91.5 -33.5t40.5 -43t9 -42h-241q-1 1 -3.5 4.5t-9.5 7.5t-19 7t-32 3q-30 0 -47 -9t-25.5 -21t-10 -25.5t-1.5 -22.5v-1q4 3 15.5 9
t32.5 12t53.5 10.5t79.5 4.5h5q71 0 114.5 -7.5t67 -21.5t31.5 -33t8 -43v-7q0 -21 -9.5 -43.5t-42 -41t-93.5 -30t-164 -11.5h-28zM275 25q0 -4 1.5 -9t9 -9.5t21.5 -8t40 -3.5t40.5 3.5t21.5 8t8.5 9.5t1.5 9v1q0 4 -1.5 9t-8.5 9.5t-21.5 7.5t-40.5 3t-40 -3t-21.5 -7.5
t-9 -9.5t-1.5 -9v-1z" />
    <glyph glyph-name="seven.sub" unicode="&#x2087;" horiz-adv-x="625" 
d="M613 274v-103q-5 -5 -14.5 -14t-20.5 -21t-23.5 -25.5t-24.5 -28.5q-17 -21 -26.5 -38t-15 -36.5t-7 -43t-1.5 -57.5v-1h-300v59q0 18 5 31t17 25.5t31.5 25.5t48.5 31q58 35 85 52.5t27 26.5h-140v-67h-238v184h597z" />
    <glyph glyph-name="eight.sub" unicode="&#x2088;" horiz-adv-x="660" 
d="M642 184q0 -19 -9.5 -33t-24.5 -24t-34.5 -16t-40.5 -9q21 -3 43 -9t39 -16.5t28 -25.5t11 -36v-8q0 -18 -8.5 -37.5t-40 -36t-93.5 -27t-170 -10.5h-24q-108 0 -170 10.5t-93.5 27t-40 36t-8.5 37.5v8q0 21 10.5 36t28 25.5t39 16.5t43.5 9q-21 3 -40.5 9t-34.5 16
t-24.5 24t-9.5 33v6q0 19 9.5 36.5t41 30.5t91 20.5t158.5 7.5h24q99 0 158.5 -7.5t91 -20.5t41 -30.5t9.5 -36.5v-6zM389 168q0 11 -11 17.5t-48 6.5t-48 -6.5t-11 -17.5v-2q0 -11 11 -18.5t48 -7.5t48 7.5t11 18.5v2zM394 32q0 14 -12.5 22t-51.5 8q-40 0 -52 -8t-12 -22
v-1q0 -14 12 -22.5t52 -8.5q39 0 51.5 8.5t12.5 22.5v1z" />
    <glyph glyph-name="nine.sub" unicode="&#x2089;" horiz-adv-x="680" 
d="M405 154q0 4 -1.5 9.5t-8.5 10t-21.5 7.5t-40.5 3t-40 -3t-21.5 -7.5t-9 -10t-1.5 -9.5v-1q0 -4 1.5 -9t9 -9.5t21.5 -7.5t40 -3t40.5 3t21.5 7.5t8.5 9.5t1.5 9v1zM332 -106q-103 0 -163.5 13.5t-92 34t-40.5 43.5t-9 41h241q0 -1 3 -4.5t9.5 -7.5t18.5 -7t32 -3
q31 0 48 9t25 21t10 25.5t2 22.5v1q-5 -3 -16.5 -9t-32.5 -12t-52.5 -10.5t-76.5 -4.5h-6q-69 0 -112.5 9t-68 23.5t-34 33.5t-9.5 40v6q0 21 8.5 43.5t39.5 40.5t91 30t164 12h28q109 0 174.5 -19t99.5 -47t44.5 -60.5t10.5 -58.5v-14q0 -28 -10 -61.5t-42.5 -62.5
t-94.5 -48.5t-167 -19.5h-22z" />
    <glyph glyph-name="Euro" unicode="&#x20ac;" horiz-adv-x="1223" 
d="M640 -15q-144 0 -241.5 25t-159.5 65.5t-93.5 92t-43.5 103.5h-91v89h81v36h-81v86h91q12 51 44 101t94.5 89t159.5 63t240 24h35q112 0 195.5 -15t143 -39.5t97.5 -56.5t60 -66t30.5 -67.5t8.5 -61.5v-15h-385q-2 9 -8.5 25.5t-25.5 33t-53 28.5t-89 12
q-67 0 -106.5 -13t-58.5 -42h262v-86h-285v-36h285v-89h-263q20 -32 60 -47t106 -15q57 0 91.5 13.5t53 31t24.5 35t7 26.5h385v-15q0 -26 -8.5 -60t-30 -69t-59.5 -68.5t-97.5 -59.5t-143 -42t-196.5 -16h-35v0z" />
    <glyph glyph-name="uni20B4" unicode="&#x20b4;" horiz-adv-x="1279" 
d="M1269 403h-1259v88h694l-12 1q29 0 44.5 12t15.5 33v2q0 9 -4 18t-16 16t-33 11t-55 4q-37 0 -59 -6t-34 -15t-16 -19.5t-5 -19.5h-436v5q0 48 21 89t75.5 71t150 47t245.5 17h127q128 0 217.5 -14t146 -40.5t82.5 -64.5t26 -87v-9q0 -12 -4.5 -25t-12.5 -26h101v-88z
M1197 235q0 -24 -5 -52t-22 -55.5t-49.5 -53.5t-87.5 -45.5t-135 -31.5t-193 -12h-131q-150 0 -248.5 19t-156 50t-80.5 71.5t-23 82.5v11q0 30 13 61h-69v88h1259v-88h-726q-14 -9 -18.5 -23.5t-4.5 -28.5v-3q0 -10 5.5 -21t18 -20t34.5 -15t55 -6h1q39 0 62.5 8t35.5 20
t16 26t4 26h445v-8z" />
    <glyph glyph-name="uni20B8" unicode="&#x20b8;" horiz-adv-x="1056" 
d="M17 744h1022v-87h-1022v87zM17 622h1022v-256h-321v-366h-380v366h-321v256z" />
    <glyph glyph-name="uni20BD" unicode="&#x20bd;" horiz-adv-x="1197" 
d="M1192 464q0 -52 -17 -99.5t-59 -83.5t-112.5 -57t-176.5 -21h-359v-35h416v-89h-416v-79h-380v79h-80v89h80v35h-80v87h80v454h739q108 0 178.5 -20t112 -54.5t58 -81t16.5 -98.5v-26zM468 404h266q39 0 53 18.5t14 41.5v2q0 25 -14 42.5t-53 17.5h-266v-122z" />
    <glyph glyph-name="uni2116" unicode="&#x2116;" horiz-adv-x="1902" 
d="M1545 322q-105 0 -169 21t-98.5 52.5t-46 68.5t-11.5 69v13q0 32 11.5 68t46.5 66.5t99.5 50.5t169.5 20h16q105 0 169.5 -20t99.5 -50.5t46.5 -66.5t11.5 -68v-13q0 -32 -11.5 -69t-46 -68.5t-98.5 -52.5t-169 -21h-20zM1555 470q44 0 62.5 20.5t18.5 46.5v3
q0 13 -4.5 25t-14 21t-25 14.5t-37.5 5.5t-37.5 -5.5t-25 -14.5t-14 -21t-4.5 -25v-3q0 -26 18.5 -46.5t62.5 -20.5zM1231 289h648v-175h-648v175zM460 744l350 -338v338h380v-744h-387l-392 372v-372h-380v744h429z" />
    <glyph glyph-name="trademark" unicode="&#x2122;" horiz-adv-x="1124" 
d="M344 609v-223h-229v223h-106v135h441v-135h-106zM476 744h286l34 -151l35 151h271v-358h-195v184l-57 -184h-125l-56 184v-184h-193v358z" />
    <glyph glyph-name="onethird" unicode="&#x2153;" horiz-adv-x="1266" 
d="M14 566v114q43 1 70 6.5t43 14.5t24.5 20.5t13.5 22.5h221v-368h-262v190h-110zM1111 744l-894 -744h-232l887 744h239zM915 -12q-98 0 -156 15t-88 37t-39 45.5t-9 41.5v5h238q0 -3 2.5 -7.5t10 -9.5t20.5 -8.5t34 -3.5q44 0 57 6.5t13 16.5v1q0 9 -8 13.5t-31 4.5h-94
v94h91q20 0 27 4t7 11v1q0 8 -11 14.5t-51 6.5q-22 0 -34.5 -3t-19 -7t-8.5 -8t-2 -6h-234v6q0 5 1.5 15.5t9.5 24t25 28t48 26.5t77.5 19.5t114.5 7.5h40q97 0 154.5 -7.5t88 -20t39.5 -29t9 -33.5v-5q0 -17 -8 -29.5t-21 -20.5t-29 -12.5t-32 -6.5q23 -3 43.5 -10
t36 -18.5t24.5 -28t9 -38.5v-3q0 -23 -9 -45.5t-41.5 -41.5t-94 -30.5t-166.5 -11.5h-34z" />
    <glyph glyph-name="twothirds" unicode="&#x2154;" horiz-adv-x="1485" 
d="M12 376v56q0 29 6.5 54t34.5 46.5t85.5 39t159.5 32.5q24 3 38.5 6.5t22 7t10 7t2.5 8.5v1q0 8 -9.5 14t-44.5 6q-20 0 -31.5 -4t-17.5 -9t-8 -11t-2 -10h-241v3q0 17 6 39.5t34.5 43t87.5 35t164 14.5h18q93 0 150.5 -9.5t90 -25.5t44 -37.5t11.5 -45.5v-5
q0 -24 -11.5 -43t-42.5 -32.5t-86 -22.5t-143 -15q-66 -5 -96 -10t-38 -12h414v-121h-608zM1332 744l-894 -744h-232l887 744h239zM1134 -12q-98 0 -156 15t-88 37t-39 45.5t-9 41.5v5h238q0 -3 2.5 -7.5t10 -9.5t20.5 -8.5t34 -3.5q44 0 57 6.5t13 16.5v1q0 9 -8 13.5
t-31 4.5h-94v94h91q20 0 27 4t7 11v1q0 8 -11 14.5t-51 6.5q-22 0 -34.5 -3t-19 -7t-8.5 -8t-2 -6h-234v6q0 5 1.5 15.5t9.5 24t25 28t48 26.5t77.5 19.5t114.5 7.5h40q97 0 154.5 -7.5t88 -20t39.5 -29t9 -33.5v-5q0 -17 -8 -29.5t-21 -20.5t-29 -12.5t-32 -6.5
q23 -3 43.5 -10t36 -18.5t24.5 -28t9 -38.5v-3q0 -23 -9 -45.5t-41.5 -41.5t-94 -30.5t-166.5 -11.5h-34z" />
    <glyph glyph-name="oneeighth" unicode="&#x215b;" horiz-adv-x="1289" 
d="M14 566v114q43 1 70 6.5t43 14.5t24.5 20.5t13.5 22.5h221v-368h-262v190h-110zM1111 744l-894 -744h-232l887 744h239zM1271 278q0 -19 -9.5 -33t-24.5 -24t-34.5 -16t-40.5 -9q21 -3 43 -9t39 -16.5t28 -25.5t11 -36v-8q0 -18 -8.5 -37.5t-40 -36t-93.5 -27t-170 -10.5
h-24q-108 0 -170 10.5t-93.5 27t-40 36t-8.5 37.5v8q0 21 10.5 36t28 25.5t39 16.5t43.5 9q-21 3 -40.5 9t-34.5 16t-24.5 24t-9.5 33v6q0 19 9.5 36.5t41 30.5t91 20.5t158.5 7.5h24q99 0 158.5 -7.5t91 -20.5t41 -30.5t9.5 -36.5v-6zM1018 262q0 11 -11 17.5t-48 6.5
t-48 -6.5t-11 -17.5v-2q0 -11 11 -18.5t48 -7.5t48 7.5t11 18.5v2zM1023 126q0 14 -12.5 22t-51.5 8q-40 0 -52 -8t-12 -22v-1q0 -14 12 -22.5t52 -8.5q39 0 51.5 8.5t12.5 22.5v1z" />
    <glyph glyph-name="threeeighths" unicode="&#x215c;" horiz-adv-x="1470" 
d="M1291 744l-894 -744h-232l887 744h239zM298 365q-98 0 -156 15t-88 37t-39 45.5t-9 41.5v5h238q0 -3 2.5 -7.5t10 -9.5t20.5 -8.5t34 -3.5q44 0 57 6.5t13 16.5v1q0 9 -8 13.5t-31 4.5h-94v94h91q20 0 27 4t7 11v1q0 8 -11 14.5t-51 6.5q-22 0 -34.5 -3t-19 -7t-8.5 -8
t-2 -6h-234v6q0 5 1.5 15.5t9.5 24t25 28t48 26.5t77.5 19.5t114.5 7.5h40q97 0 154.5 -7.5t88 -20t39.5 -29t9 -33.5v-5q0 -17 -8 -29.5t-21 -20.5t-29 -12.5t-32 -6.5q23 -3 43.5 -10t36 -18.5t24.5 -28t9 -38.5v-3q0 -23 -9 -45.5t-41.5 -41.5t-94 -30.5t-166.5 -11.5
h-34zM1452 278q0 -19 -9.5 -33t-24.5 -24t-34.5 -16t-40.5 -9q21 -3 43 -9t39 -16.5t28 -25.5t11 -36v-8q0 -18 -8.5 -37.5t-40 -36t-93.5 -27t-170 -10.5h-24q-108 0 -170 10.5t-93.5 27t-40 36t-8.5 37.5v8q0 21 10.5 36t28 25.5t39 16.5t43.5 9q-21 3 -40.5 9t-34.5 16
t-24.5 24t-9.5 33v6q0 19 9.5 36.5t41 30.5t91 20.5t158.5 7.5h24q99 0 158.5 -7.5t91 -20.5t41 -30.5t9.5 -36.5v-6zM1199 262q0 11 -11 17.5t-48 6.5t-48 -6.5t-11 -17.5v-2q0 -11 11 -18.5t48 -7.5t48 7.5t11 18.5v2zM1204 126q0 14 -12.5 22t-51.5 8q-40 0 -52 -8
t-12 -22v-1q0 -14 12 -22.5t52 -8.5q39 0 51.5 8.5t12.5 22.5v1z" />
    <glyph glyph-name="fiveeighths" unicode="&#x215d;" horiz-adv-x="1441" 
d="M1262 744l-894 -744h-232l887 744h239zM300 364q-70 0 -118.5 6.5t-80 17.5t-49.5 24.5t-26.5 27.5t-10.5 27t-2 22v3h234q0 -2 2.5 -5t9 -6t18 -5.5t30.5 -2.5q38 0 50.5 8t12.5 19v3q0 11 -13.5 19t-49.5 8q-37 0 -48 -7t-12 -10h-227v231h566v-102h-338v-56
q3 3 12.5 8.5t28 11t48 10t74.5 4.5q63 0 103 -8t63 -22.5t31.5 -35t8.5 -45.5v-6q0 -25 -9.5 -49.5t-41 -44.5t-91.5 -32.5t-160 -12.5h-15zM1423 278q0 -19 -9.5 -33t-24.5 -24t-34.5 -16t-40.5 -9q21 -3 43 -9t39 -16.5t28 -25.5t11 -36v-8q0 -18 -8.5 -37.5t-40 -36
t-93.5 -27t-170 -10.5h-24q-108 0 -170 10.5t-93.5 27t-40 36t-8.5 37.5v8q0 21 10.5 36t28 25.5t39 16.5t43.5 9q-21 3 -40.5 9t-34.5 16t-24.5 24t-9.5 33v6q0 19 9.5 36.5t41 30.5t91 20.5t158.5 7.5h24q99 0 158.5 -7.5t91 -20.5t41 -30.5t9.5 -36.5v-6zM1170 262
q0 11 -11 17.5t-48 6.5t-48 -6.5t-11 -17.5v-2q0 -11 11 -18.5t48 -7.5t48 7.5t11 18.5v2zM1175 126q0 14 -12.5 22t-51.5 8q-40 0 -52 -8t-12 -22v-1q0 -14 12 -22.5t52 -8.5q39 0 51.5 8.5t12.5 22.5v1z" />
    <glyph glyph-name="seveneighths" unicode="&#x215e;" horiz-adv-x="1368" 
d="M613 744v-103q-5 -5 -14.5 -14t-20.5 -21t-23.5 -25.5t-24.5 -28.5q-17 -21 -26.5 -38t-15 -36.5t-7 -43t-1.5 -57.5v-1h-300v59q0 18 5 31t17 25.5t31.5 25.5t48.5 31q58 35 85 52.5t27 26.5h-140v-67h-238v184h597zM1189 744l-894 -744h-232l887 744h239zM1350 278
q0 -19 -9.5 -33t-24.5 -24t-34.5 -16t-40.5 -9q21 -3 43 -9t39 -16.5t28 -25.5t11 -36v-8q0 -18 -8.5 -37.5t-40 -36t-93.5 -27t-170 -10.5h-24q-108 0 -170 10.5t-93.5 27t-40 36t-8.5 37.5v8q0 21 10.5 36t28 25.5t39 16.5t43.5 9q-21 3 -40.5 9t-34.5 16t-24.5 24
t-9.5 33v6q0 19 9.5 36.5t41 30.5t91 20.5t158.5 7.5h24q99 0 158.5 -7.5t91 -20.5t41 -30.5t9.5 -36.5v-6zM1097 262q0 11 -11 17.5t-48 6.5t-48 -6.5t-11 -17.5v-2q0 -11 11 -18.5t48 -7.5t48 7.5t11 18.5v2zM1102 126q0 14 -12.5 22t-51.5 8q-40 0 -52 -8t-12 -22v-1
q0 -14 12 -22.5t52 -8.5q39 0 51.5 8.5t12.5 22.5v1z" />
    <glyph glyph-name="minus" unicode="&#x2212;" horiz-adv-x="591" 
d="M577 397v-176h-563v176h563z" />
    <glyph glyph-name="uni24C5" unicode="&#x24c5;" horiz-adv-x="1223" 
d="M1208 359q0 -48 -11 -94.5t-37.5 -88t-70.5 -76.5t-109.5 -60.5t-156 -40t-208.5 -14.5h-8q-177 0 -292 31.5t-181.5 84t-92.5 120t-26 138.5v28q0 47 11 93t37 87t69.5 76.5t109 61t155 40t207.5 14.5h13q178 0 292.5 -32t181 -84.5t92 -119.5t25.5 -136v-28zM617 84
q128 1 212.5 20.5t134.5 55.5t70.5 86.5t20.5 112.5v28q0 61 -20.5 111t-70.5 86t-134.5 56t-212.5 20h-13q-127 0 -211 -20t-134 -56t-70.5 -86t-20.5 -111v-28q0 -61 20 -111.5t70 -86.5t134 -56t212 -21h13zM580 276v-118h-270v431h414q75 0 124.5 -10t78.5 -29
t40.5 -46.5t11.5 -61.5v-15q0 -35 -12 -62.5t-41.5 -47.5t-78.5 -30.5t-123 -10.5h-144zM580 399h84q23 0 32.5 9t9.5 26v2q0 16 -9.5 25t-32.5 9h-84v-71z" />
    <glyph glyph-name="zero.den" unicode="&#xe402;" horiz-adv-x="693" 
d="M358 379q108 0 171.5 -18t97.5 -46t44 -61t10 -63v-15q0 -20 -4 -41.5t-16 -42.5t-34 -40t-58 -33t-87.5 -22.5t-123.5 -8.5h-24q-71 0 -123 8.5t-87.5 22.5t-57.5 33t-33.5 40t-15.5 42.5t-4 41.5v15q0 30 10 63t43.5 61t97 46t170.5 18h24zM416 189q0 10 -3 22.5
t-10.5 23t-21 17.5t-35.5 7t-36 -7t-21.5 -17.5t-10 -23t-2.5 -22.5v-6q0 -11 3 -23.5t10.5 -23.5t21 -18t35.5 -7t36 7t21.5 18t10 23.5t2.5 23.5v6z" />
    <glyph glyph-name="one.den" unicode="&#xe403;" horiz-adv-x="411" 
d="M14 190v114q43 1 70 6.5t43 14.5t24.5 20.5t13.5 22.5h221v-368h-262v190h-110z" />
    <glyph glyph-name="two.den" unicode="&#xe404;" horiz-adv-x="631" 
d="M12 0v56q0 29 6.5 54t34.5 46.5t85.5 39t159.5 32.5q24 3 38.5 6.5t22 7t10 7t2.5 8.5v1q0 8 -9.5 14t-44.5 6q-20 0 -31.5 -4t-17.5 -9t-8 -11t-2 -10h-241v3q0 17 6 39.5t34.5 43t87.5 35t164 14.5h18q93 0 150.5 -9.5t90 -25.5t44 -37.5t11.5 -45.5v-5
q0 -24 -11.5 -43t-42.5 -32.5t-86 -22.5t-143 -15q-66 -5 -96 -10t-38 -12h414v-121h-608z" />
    <glyph glyph-name="three.den" unicode="&#xe405;" horiz-adv-x="649" 
d="M298 -12q-98 0 -156 15t-88 37t-39 45.5t-9 41.5v5h238q0 -3 2.5 -7.5t10 -9.5t20.5 -8.5t34 -3.5q44 0 57 6.5t13 16.5v1q0 9 -8 13.5t-31 4.5h-94v94h91q20 0 27 4t7 11v1q0 8 -11 14.5t-51 6.5q-22 0 -34.5 -3t-19 -7t-8.5 -8t-2 -6h-234v6q0 5 1.5 15.5t9.5 24t25 28
t48 26.5t77.5 19.5t114.5 7.5h40q97 0 154.5 -7.5t88 -20t39.5 -29t9 -33.5v-5q0 -17 -8 -29.5t-21 -20.5t-29 -12.5t-32 -6.5q23 -3 43.5 -10t36 -18.5t24.5 -28t9 -38.5v-3q0 -23 -9 -45.5t-41.5 -41.5t-94 -30.5t-166.5 -11.5h-34z" />
    <glyph glyph-name="four.den" unicode="&#xe406;" horiz-adv-x="622" 
d="M285 368h262v-168h67v-121h-67v-79h-253v79h-287v117zM294 200v77l-127 -77h127z" />
    <glyph glyph-name="five.den" unicode="&#xe407;" horiz-adv-x="628" 
d="M300 -12q-70 0 -118.5 6.5t-80 17.5t-49.5 24.5t-26.5 27.5t-10.5 27t-2 22v3h234q0 -2 2.5 -5t9 -6t18 -5.5t30.5 -2.5q38 0 50.5 8t12.5 19v3q0 11 -13.5 19t-49.5 8q-37 0 -48 -7t-12 -10h-227v231h566v-102h-338v-56q3 3 12.5 8.5t28 11t48 10t74.5 4.5q63 0 103 -8
t63 -22.5t31.5 -35t8.5 -45.5v-6q0 -25 -9.5 -49.5t-41 -44.5t-91.5 -32.5t-160 -12.5h-15z" />
    <glyph glyph-name="six.den" unicode="&#xe408;" horiz-adv-x="678" 
d="M335 -12q-73 0 -125 9t-88 24t-57.5 35t-33 41t-15 42t-3.5 39v14q0 29 10 62t43.5 60.5t96 46t167.5 18.5h21q102 0 162 -13.5t91.5 -33.5t40.5 -43t9 -42h-241q-1 1 -3.5 4.5t-9.5 7.5t-19 7t-32 3q-30 0 -47 -9t-25.5 -21t-10 -25.5t-1.5 -22.5v-1q4 3 15.5 9t32.5 12
t53.5 10.5t79.5 4.5h5q71 0 114.5 -7.5t67 -21.5t31.5 -33t8 -43v-7q0 -21 -9.5 -43.5t-42 -41t-93.5 -30t-164 -11.5h-28zM275 119q0 -4 1.5 -9t9 -9.5t21.5 -8t40 -3.5t40.5 3.5t21.5 8t8.5 9.5t1.5 9v1q0 4 -1.5 9t-8.5 9.5t-21.5 7.5t-40.5 3t-40 -3t-21.5 -7.5t-9 -9.5
t-1.5 -9v-1z" />
    <glyph glyph-name="seven.den" unicode="&#xe409;" horiz-adv-x="625" 
d="M613 368v-103q-5 -5 -14.5 -14t-20.5 -21t-23.5 -25.5t-24.5 -28.5q-17 -21 -26.5 -38t-15 -36.5t-7 -43t-1.5 -57.5v-1h-300v59q0 18 5 31t17 25.5t31.5 25.5t48.5 31q58 35 85 52.5t27 26.5h-140v-67h-238v184h597z" />
    <glyph glyph-name="eight.den" unicode="&#xe40a;" horiz-adv-x="660" 
d="M642 278q0 -19 -9.5 -33t-24.5 -24t-34.5 -16t-40.5 -9q21 -3 43 -9t39 -16.5t28 -25.5t11 -36v-8q0 -18 -8.5 -37.5t-40 -36t-93.5 -27t-170 -10.5h-24q-108 0 -170 10.5t-93.5 27t-40 36t-8.5 37.5v8q0 21 10.5 36t28 25.5t39 16.5t43.5 9q-21 3 -40.5 9t-34.5 16
t-24.5 24t-9.5 33v6q0 19 9.5 36.5t41 30.5t91 20.5t158.5 7.5h24q99 0 158.5 -7.5t91 -20.5t41 -30.5t9.5 -36.5v-6zM389 262q0 11 -11 17.5t-48 6.5t-48 -6.5t-11 -17.5v-2q0 -11 11 -18.5t48 -7.5t48 7.5t11 18.5v2zM394 126q0 14 -12.5 22t-51.5 8q-40 0 -52 -8t-12 -22
v-1q0 -14 12 -22.5t52 -8.5q39 0 51.5 8.5t12.5 22.5v1z" />
    <glyph glyph-name="nine.den" unicode="&#xe40b;" horiz-adv-x="680" 
d="M405 248q0 4 -1.5 9.5t-8.5 10t-21.5 7.5t-40.5 3t-40 -3t-21.5 -7.5t-9 -10t-1.5 -9.5v-1q0 -4 1.5 -9t9 -9.5t21.5 -7.5t40 -3t40.5 3t21.5 7.5t8.5 9.5t1.5 9v1zM332 -12q-103 0 -163.5 13.5t-92 34t-40.5 43.5t-9 41h241q0 -1 3 -4.5t9.5 -7.5t18.5 -7t32 -3
q31 0 48 9t25 21t10 25.5t2 22.5v1q-5 -3 -16.5 -9t-32.5 -12t-52.5 -10.5t-76.5 -4.5h-6q-69 0 -112.5 9t-68 23.5t-34 33.5t-9.5 40v6q0 21 8.5 43.5t39.5 40.5t91 30t164 12h28q109 0 174.5 -19t99.5 -47t44.5 -60.5t10.5 -58.5v-14q0 -28 -10 -61.5t-42.5 -62.5
t-94.5 -48.5t-167 -19.5h-22z" />
    <glyph glyph-name="zero.num" unicode="&#xe416;" horiz-adv-x="693" 
d="M358 755q108 0 171.5 -18t97.5 -46t44 -61t10 -63v-15q0 -20 -4 -41.5t-16 -42.5t-34 -40t-58 -33t-87.5 -22.5t-123.5 -8.5h-24q-71 0 -123 8.5t-87.5 22.5t-57.5 33t-33.5 40t-15.5 42.5t-4 41.5v15q0 30 10 63t43.5 61t97 46t170.5 18h24zM416 565q0 10 -3 22.5
t-10.5 23t-21 17.5t-35.5 7t-36 -7t-21.5 -17.5t-10 -23t-2.5 -22.5v-6q0 -11 3 -23.5t10.5 -23.5t21 -18t35.5 -7t36 7t21.5 18t10 23.5t2.5 23.5v6z" />
    <glyph glyph-name="one.num" unicode="&#xe417;" horiz-adv-x="411" 
d="M14 566v114q43 1 70 6.5t43 14.5t24.5 20.5t13.5 22.5h221v-368h-262v190h-110z" />
    <glyph glyph-name="two.num" unicode="&#xe418;" horiz-adv-x="631" 
d="M12 376v56q0 29 6.5 54t34.5 46.5t85.5 39t159.5 32.5q24 3 38.5 6.5t22 7t10 7t2.5 8.5v1q0 8 -9.5 14t-44.5 6q-20 0 -31.5 -4t-17.5 -9t-8 -11t-2 -10h-241v3q0 17 6 39.5t34.5 43t87.5 35t164 14.5h18q93 0 150.5 -9.5t90 -25.5t44 -37.5t11.5 -45.5v-5
q0 -24 -11.5 -43t-42.5 -32.5t-86 -22.5t-143 -15q-66 -5 -96 -10t-38 -12h414v-121h-608z" />
    <glyph glyph-name="three.num" unicode="&#xe419;" horiz-adv-x="649" 
d="M298 364q-98 0 -156 15t-88 37t-39 45.5t-9 41.5v5h238q0 -3 2.5 -7.5t10 -9.5t20.5 -8.5t34 -3.5q44 0 57 6.5t13 16.5v1q0 9 -8 13.5t-31 4.5h-94v94h91q20 0 27 4t7 11v1q0 8 -11 14.5t-51 6.5q-22 0 -34.5 -3t-19 -7t-8.5 -8t-2 -6h-234v6q0 5 1.5 15.5t9.5 24t25 28
t48 26.5t77.5 19.5t114.5 7.5h40q97 0 154.5 -7.5t88 -20t39.5 -29t9 -33.5v-5q0 -17 -8 -29.5t-21 -20.5t-29 -12.5t-32 -6.5q23 -3 43.5 -10t36 -18.5t24.5 -28t9 -38.5v-3q0 -23 -9 -45.5t-41.5 -41.5t-94 -30.5t-166.5 -11.5h-34z" />
    <glyph glyph-name="four.num" unicode="&#xe41a;" horiz-adv-x="622" 
d="M285 744h262v-168h67v-121h-67v-79h-253v79h-287v117zM294 576v77l-127 -77h127z" />
    <glyph glyph-name="five.num" unicode="&#xe41b;" horiz-adv-x="628" 
d="M300 364q-70 0 -118.5 6.5t-80 17.5t-49.5 24.5t-26.5 27.5t-10.5 27t-2 22v3h234q0 -2 2.5 -5t9 -6t18 -5.5t30.5 -2.5q38 0 50.5 8t12.5 19v3q0 11 -13.5 19t-49.5 8q-37 0 -48 -7t-12 -10h-227v231h566v-102h-338v-56q3 3 12.5 8.5t28 11t48 10t74.5 4.5q63 0 103 -8
t63 -22.5t31.5 -35t8.5 -45.5v-6q0 -25 -9.5 -49.5t-41 -44.5t-91.5 -32.5t-160 -12.5h-15z" />
    <glyph glyph-name="six.num" unicode="&#xe41c;" horiz-adv-x="678" 
d="M335 364q-73 0 -125 9t-88 24t-57.5 35t-33 41t-15 42t-3.5 39v14q0 29 10 62t43.5 60.5t96 46t167.5 18.5h21q102 0 162 -13.5t91.5 -33.5t40.5 -43t9 -42h-241q-1 1 -3.5 4.5t-9.5 7.5t-19 7t-32 3q-30 0 -47 -9t-25.5 -21t-10 -25.5t-1.5 -22.5v-1q4 3 15.5 9t32.5 12
t53.5 10.5t79.5 4.5h5q71 0 114.5 -7.5t67 -21.5t31.5 -33t8 -43v-7q0 -21 -9.5 -43.5t-42 -41t-93.5 -30t-164 -11.5h-28zM275 495q0 -4 1.5 -9t9 -9.5t21.5 -8t40 -3.5t40.5 3.5t21.5 8t8.5 9.5t1.5 9v1q0 4 -1.5 9t-8.5 9.5t-21.5 7.5t-40.5 3t-40 -3t-21.5 -7.5t-9 -9.5
t-1.5 -9v-1z" />
    <glyph glyph-name="seven.num" unicode="&#xe41d;" horiz-adv-x="625" 
d="M613 744v-103q-5 -5 -14.5 -14t-20.5 -21t-23.5 -25.5t-24.5 -28.5q-17 -21 -26.5 -38t-15 -36.5t-7 -43t-1.5 -57.5v-1h-300v59q0 18 5 31t17 25.5t31.5 25.5t48.5 31q58 35 85 52.5t27 26.5h-140v-67h-238v184h597z" />
    <glyph glyph-name="eight.num" unicode="&#xe41e;" horiz-adv-x="660" 
d="M642 654q0 -19 -9.5 -33t-24.5 -24t-34.5 -16t-40.5 -9q21 -3 43 -9t39 -16.5t28 -25.5t11 -36v-8q0 -18 -8.5 -37.5t-40 -36t-93.5 -27t-170 -10.5h-24q-108 0 -170 10.5t-93.5 27t-40 36t-8.5 37.5v8q0 21 10.5 36t28 25.5t39 16.5t43.5 9q-21 3 -40.5 9t-34.5 16
t-24.5 24t-9.5 33v6q0 19 9.5 36.5t41 30.5t91 20.5t158.5 7.5h24q99 0 158.5 -7.5t91 -20.5t41 -30.5t9.5 -36.5v-6zM389 638q0 11 -11 17.5t-48 6.5t-48 -6.5t-11 -17.5v-2q0 -11 11 -18.5t48 -7.5t48 7.5t11 18.5v2zM394 502q0 14 -12.5 22t-51.5 8q-40 0 -52 -8t-12 -22
v-1q0 -14 12 -22.5t52 -8.5q39 0 51.5 8.5t12.5 22.5v1z" />
    <glyph glyph-name="nine.num" unicode="&#xe41f;" horiz-adv-x="680" 
d="M405 624q0 4 -1.5 9.5t-8.5 10t-21.5 7.5t-40.5 3t-40 -3t-21.5 -7.5t-9 -10t-1.5 -9.5v-1q0 -4 1.5 -9t9 -9.5t21.5 -7.5t40 -3t40.5 3t21.5 7.5t8.5 9.5t1.5 9v1zM332 364q-103 0 -163.5 13.5t-92 34t-40.5 43.5t-9 41h241q0 -1 3 -4.5t9.5 -7.5t18.5 -7t32 -3
q31 0 48 9t25 21t10 25.5t2 22.5v1q-5 -3 -16.5 -9t-32.5 -12t-52.5 -10.5t-76.5 -4.5h-6q-69 0 -112.5 9t-68 23.5t-34 33.5t-9.5 40v6q0 21 8.5 43.5t39.5 40.5t91 30t164 12h28q109 0 174.5 -19t99.5 -47t44.5 -60.5t10.5 -58.5v-14q0 -28 -10 -61.5t-42.5 -62.5
t-94.5 -48.5t-167 -19.5h-22z" />
    <glyph glyph-name="f_f_i" unicode="&#xfb03;" horiz-adv-x="1517" 
d="M123 0v340h-112v198h112v32q0 89 51 131.5t165 42.5h255v-166h-79q-17 0 -22 -7t-5 -22v-11h140v32q0 89 51 131.5t165 42.5h251v-166h-75q-17 0 -22 -7t-5 -22v-11h102v-198h-102v-340h-365v340h-140v-340h-365zM1496 569h-364v175h364v-175zM1496 0h-364v538h364v-538z
" />
    <glyph glyph-name="f_f_l" unicode="&#xfb04;" horiz-adv-x="1517" 
d="M123 0v340h-112v198h112v32q0 89 51 131.5t165 42.5h255v-166h-79q-17 0 -22 -7t-5 -22v-11h140v32q0 89 51 131.5t165 42.5h251v-166h-75q-17 0 -22 -7t-5 -22v-11h102v-198h-102v-340h-365v340h-140v-340h-365zM1496 0h-364v744h364v-744z" />
    <glyph glyph-name="idotaccent" horiz-adv-x="418" 
d="M391 569h-364v175h364v-175zM391 0h-364v538h364v-538z" />
    <glyph glyph-name="space_uni0326" 
d="M281 -320q7 10 15 26t14.5 32t11.5 31t6 24h-137v176h323v-135q0 -18 -7.5 -39.5t-18 -43t-23 -40.5t-22.5 -31h-162z" />
    <glyph glyph-name="J.alt" horiz-adv-x="590" 
d="M21 264h72q48 0 68.5 24t20.5 75v381h382v-466q0 -75 -20 -128t-60 -86.5t-99.5 -48.5t-137.5 -15h-226v264z" />
    <glyph glyph-name="IJ.alt" horiz-adv-x="1025" 
d="M410 0h-379v744h379v-744zM456 264h72q48 0 68.5 24t20.5 75v381h382v-466q0 -75 -20 -128t-60 -86.5t-99.5 -48.5t-137.5 -15h-226v264z" />
    <glyph glyph-name="a.alt" horiz-adv-x="909" 
d="M519 251l-116 -31q-19 -5 -29 -13.5t-10 -24.5v-1q0 -14 12.5 -29t47.5 -15q47 0 71 23t24 55v36zM522 68q-10 -9 -30.5 -22.5t-52 -26t-75.5 -21t-101 -8.5h-6q-68 0 -114.5 14.5t-76 38.5t-42.5 54t-13 61v20q0 28 9 52.5t32 44t62 32.5t99 18l283 23q15 2 19.5 8
t4.5 14v1q0 13 -14 23.5t-60 10.5h-2q-30 0 -46 -5t-24 -12t-10 -14.5t-2 -12.5h-338v12q0 18 3.5 38.5t16.5 40.5t38 38t68.5 31.5t107.5 21.5t156 8h57q95 0 163 -8t113.5 -22t72 -32t40 -37.5t17.5 -39.5t4 -37v-193q0 -40 1 -68.5t3 -49t4.5 -34t6.5 -24.5v-6h-361
q-4 6 -8.5 22.5t-4.5 45.5z" />
    <glyph glyph-name="a.alt2" horiz-adv-x="961" 
d="M570 279q0 15 -5.5 32t-16.5 31t-29 23.5t-43 9.5h-5q-24 0 -40.5 -9t-27.5 -23t-16 -31.5t-5 -34.5v-5q0 -18 5 -37t15.5 -34t27.5 -24.5t40 -9.5h5q25 0 43.5 9.5t29.5 24.5t16.5 33.5t5.5 36.5v8zM934 538v-538h-364v71q-9 -8 -28 -21t-48.5 -25t-71.5 -20.5t-97 -8.5
h-22q-78 0 -132.5 23t-89.5 60t-51 84.5t-16 95.5v25q0 46 15.5 92.5t49.5 83t88 59.5t131 23h23q55 0 96.5 -7t72 -16.5t50 -20.5t30.5 -19v59h364z" />
    <glyph glyph-name="r.alt" horiz-adv-x="671" 
d="M393 0h-366v538h364v-135q12 22 30.5 47.5t49 47.5t74 37t104.5 15v-306q-14 2 -37.5 5t-71.5 3q-42 0 -70.5 -5.5t-45.5 -17.5t-24 -30t-7 -42v-157z" />
    <glyph glyph-name="Jcircumflex.alt" horiz-adv-x="590" 
d="M21 264h72q48 0 68.5 24t20.5 75v381h382v-466q0 -75 -20 -128t-60 -86.5t-99.5 -48.5t-137.5 -15h-226v264zM707 775h-288l-54 58l-55 -58h-285l169 165h342z" />
    <glyph glyph-name="aacute.alt" horiz-adv-x="909" 
d="M371 744h342l-117 -170h-308zM519 251l-116 -31q-19 -5 -29 -13.5t-10 -24.5v-1q0 -14 12.5 -29t47.5 -15q47 0 71 23t24 55v36zM522 68q-10 -9 -30.5 -22.5t-52 -26t-75.5 -21t-101 -8.5h-6q-68 0 -114.5 14.5t-76 38.5t-42.5 54t-13 61v20q0 28 9 52.5t32 44t62 32.5
t99 18l283 23q15 2 19.5 8t4.5 14v1q0 13 -14 23.5t-60 10.5h-2q-30 0 -46 -5t-24 -12t-10 -14.5t-2 -12.5h-338v12q0 18 3.5 38.5t16.5 40.5t38 38t68.5 31.5t107.5 21.5t156 8h57q95 0 163 -8t113.5 -22t72 -32t40 -37.5t17.5 -39.5t4 -37v-193q0 -40 1 -68.5t3 -49
t4.5 -34t6.5 -24.5v-6h-361q-4 6 -8.5 22.5t-4.5 45.5z" />
    <glyph glyph-name="aacute.alt2" horiz-adv-x="961" 
d="M570 279q0 15 -5.5 32t-16.5 31t-29 23.5t-43 9.5h-5q-24 0 -40.5 -9t-27.5 -23t-16 -31.5t-5 -34.5v-5q0 -18 5 -37t15.5 -34t27.5 -24.5t40 -9.5h5q25 0 43.5 9.5t29.5 24.5t16.5 33.5t5.5 36.5v8zM934 538v-538h-364v71q-9 -8 -28 -21t-48.5 -25t-71.5 -20.5t-97 -8.5
h-22q-78 0 -132.5 23t-89.5 60t-51 84.5t-16 95.5v25q0 46 15.5 92.5t49.5 83t88 59.5t131 23h23q55 0 96.5 -7t72 -16.5t50 -20.5t30.5 -19v59h364zM394 744h342l-119 -175h-308z" />
    <glyph glyph-name="abreve.alt" horiz-adv-x="909" 
d="M419 571q-77 0 -124 19t-73 46t-34.5 56t-8.5 50v2h202q0 -5 3 -12t10 -13.5t19.5 -11.5t32.5 -5h2q19 0 31 5t19 11.5t9.5 13.5t3.5 12h200v-2q0 -21 -11 -50t-38 -56t-73 -46t-116 -19h-54v0zM519 251l-116 -31q-19 -5 -29 -13.5t-10 -24.5v-1q0 -14 12.5 -29t47.5 -15
q47 0 71 23t24 55v36zM522 68q-10 -9 -30.5 -22.5t-52 -26t-75.5 -21t-101 -8.5h-6q-68 0 -114.5 14.5t-76 38.5t-42.5 54t-13 61v20q0 28 9 52.5t32 44t62 32.5t99 18l283 23q15 2 19.5 8t4.5 14v1q0 13 -14 23.5t-60 10.5h-2q-30 0 -46 -5t-24 -12t-10 -14.5t-2 -12.5
h-338v12q0 18 3.5 38.5t16.5 40.5t38 38t68.5 31.5t107.5 21.5t156 8h57q95 0 163 -8t113.5 -22t72 -32t40 -37.5t17.5 -39.5t4 -37v-193q0 -40 1 -68.5t3 -49t4.5 -34t6.5 -24.5v-6h-361q-4 6 -8.5 22.5t-4.5 45.5z" />
    <glyph glyph-name="abreve.alt2" horiz-adv-x="961" 
d="M570 279q0 15 -5.5 32t-16.5 31t-29 23.5t-43 9.5h-5q-24 0 -40.5 -9t-27.5 -23t-16 -31.5t-5 -34.5v-5q0 -18 5 -37t15.5 -34t27.5 -24.5t40 -9.5h5q25 0 43.5 9.5t29.5 24.5t16.5 33.5t5.5 36.5v8zM934 538v-538h-364v71q-9 -8 -28 -21t-48.5 -25t-71.5 -20.5t-97 -8.5
h-22q-78 0 -132.5 23t-89.5 60t-51 84.5t-16 95.5v25q0 46 15.5 92.5t49.5 83t88 59.5t131 23h23q55 0 96.5 -7t72 -16.5t50 -20.5t30.5 -19v59h364zM718 742q0 -22 -10.5 -52.5t-37 -58t-72.5 -46.5t-118 -19h-54q-78 0 -125.5 19t-73 46.5t-33.5 58t-8 52.5v2h202v-1
q0 -5 2.5 -12.5t9 -14.5t19.5 -12.5t34 -5.5h2q20 0 32.5 5.5t19 12.5t9 14.5t2.5 12.5v1h200v-2v0z" />
    <glyph glyph-name="acircumflex.alt" horiz-adv-x="909" 
d="M773 574h-278l-52 65l-51 -65h-275l156 170h345zM519 251l-116 -31q-19 -5 -29 -13.5t-10 -24.5v-1q0 -14 12.5 -29t47.5 -15q47 0 71 23t24 55v36zM522 68q-10 -9 -30.5 -22.5t-52 -26t-75.5 -21t-101 -8.5h-6q-68 0 -114.5 14.5t-76 38.5t-42.5 54t-13 61v20
q0 28 9 52.5t32 44t62 32.5t99 18l283 23q15 2 19.5 8t4.5 14v1q0 13 -14 23.5t-60 10.5h-2q-30 0 -46 -5t-24 -12t-10 -14.5t-2 -12.5h-338v12q0 18 3.5 38.5t16.5 40.5t38 38t68.5 31.5t107.5 21.5t156 8h57q95 0 163 -8t113.5 -22t72 -32t40 -37.5t17.5 -39.5t4 -37v-193
q0 -40 1 -68.5t3 -49t4.5 -34t6.5 -24.5v-6h-361q-4 6 -8.5 22.5t-4.5 45.5z" />
    <glyph glyph-name="acircumflex.alt2" horiz-adv-x="961" 
d="M570 279q0 15 -5.5 32t-16.5 31t-29 23.5t-43 9.5h-5q-24 0 -40.5 -9t-27.5 -23t-16 -31.5t-5 -34.5v-5q0 -18 5 -37t15.5 -34t27.5 -24.5t40 -9.5h5q25 0 43.5 9.5t29.5 24.5t16.5 33.5t5.5 36.5v8zM934 538v-538h-364v71q-9 -8 -28 -21t-48.5 -25t-71.5 -20.5t-97 -8.5
h-22q-78 0 -132.5 23t-89.5 60t-51 84.5t-16 95.5v25q0 46 15.5 92.5t49.5 83t88 59.5t131 23h23q55 0 96.5 -7t72 -16.5t50 -20.5t30.5 -19v59h364zM800 569h-278l-52 70l-51 -70h-275l156 175h345z" />
    <glyph glyph-name="adieresis.alt" horiz-adv-x="909" 
d="M746 574h-282v170h282v-170zM426 574h-281v170h281v-170zM519 251l-116 -31q-19 -5 -29 -13.5t-10 -24.5v-1q0 -14 12.5 -29t47.5 -15q47 0 71 23t24 55v36zM522 68q-10 -9 -30.5 -22.5t-52 -26t-75.5 -21t-101 -8.5h-6q-68 0 -114.5 14.5t-76 38.5t-42.5 54t-13 61v20
q0 28 9 52.5t32 44t62 32.5t99 18l283 23q15 2 19.5 8t4.5 14v1q0 13 -14 23.5t-60 10.5h-2q-30 0 -46 -5t-24 -12t-10 -14.5t-2 -12.5h-338v12q0 18 3.5 38.5t16.5 40.5t38 38t68.5 31.5t107.5 21.5t156 8h57q95 0 163 -8t113.5 -22t72 -32t40 -37.5t17.5 -39.5t4 -37v-193
q0 -40 1 -68.5t3 -49t4.5 -34t6.5 -24.5v-6h-361q-4 6 -8.5 22.5t-4.5 45.5z" />
    <glyph glyph-name="adieresis.alt2" horiz-adv-x="961" 
d="M570 279q0 15 -5.5 32t-16.5 31t-29 23.5t-43 9.5h-5q-24 0 -40.5 -9t-27.5 -23t-16 -31.5t-5 -34.5v-5q0 -18 5 -37t15.5 -34t27.5 -24.5t40 -9.5h5q25 0 43.5 9.5t29.5 24.5t16.5 33.5t5.5 36.5v8zM934 538v-538h-364v71q-9 -8 -28 -21t-48.5 -25t-71.5 -20.5t-97 -8.5
h-22q-78 0 -132.5 23t-89.5 60t-51 84.5t-16 95.5v25q0 46 15.5 92.5t49.5 83t88 59.5t131 23h23q55 0 96.5 -7t72 -16.5t50 -20.5t30.5 -19v59h364zM771 569h-281v175h281v-175zM452 569h-280v175h280v-175z" />
    <glyph glyph-name="agrave.alt" horiz-adv-x="909" 
d="M299 574l-117 170h342l83 -170h-308zM519 251l-116 -31q-19 -5 -29 -13.5t-10 -24.5v-1q0 -14 12.5 -29t47.5 -15q47 0 71 23t24 55v36zM522 68q-10 -9 -30.5 -22.5t-52 -26t-75.5 -21t-101 -8.5h-6q-68 0 -114.5 14.5t-76 38.5t-42.5 54t-13 61v20q0 28 9 52.5t32 44
t62 32.5t99 18l283 23q15 2 19.5 8t4.5 14v1q0 13 -14 23.5t-60 10.5h-2q-30 0 -46 -5t-24 -12t-10 -14.5t-2 -12.5h-338v12q0 18 3.5 38.5t16.5 40.5t38 38t68.5 31.5t107.5 21.5t156 8h57q95 0 163 -8t113.5 -22t72 -32t40 -37.5t17.5 -39.5t4 -37v-193q0 -40 1 -68.5
t3 -49t4.5 -34t6.5 -24.5v-6h-361q-4 6 -8.5 22.5t-4.5 45.5z" />
    <glyph glyph-name="agrave.alt2" horiz-adv-x="961" 
d="M570 279q0 15 -5.5 32t-16.5 31t-29 23.5t-43 9.5h-5q-24 0 -40.5 -9t-27.5 -23t-16 -31.5t-5 -34.5v-5q0 -18 5 -37t15.5 -34t27.5 -24.5t40 -9.5h5q25 0 43.5 9.5t29.5 24.5t16.5 33.5t5.5 36.5v8zM934 538v-538h-364v71q-9 -8 -28 -21t-48.5 -25t-71.5 -20.5t-97 -8.5
h-22q-78 0 -132.5 23t-89.5 60t-51 84.5t-16 95.5v25q0 46 15.5 92.5t49.5 83t88 59.5t131 23h23q55 0 96.5 -7t72 -16.5t50 -20.5t30.5 -19v59h364zM317 569l-119 175h342l85 -175h-308z" />
    <glyph glyph-name="amacron.alt" horiz-adv-x="909" 
d="M519 251l-116 -31q-19 -5 -29 -13.5t-10 -24.5v-1q0 -14 12.5 -29t47.5 -15q47 0 71 23t24 55v36zM522 68q-10 -9 -30.5 -22.5t-52 -26t-75.5 -21t-101 -8.5h-6q-68 0 -114.5 14.5t-76 38.5t-42.5 54t-13 61v20q0 28 9 52.5t32 44t62 32.5t99 18l283 23q15 2 19.5 8
t4.5 14v1q0 13 -14 23.5t-60 10.5h-2q-30 0 -46 -5t-24 -12t-10 -14.5t-2 -12.5h-338v12q0 18 3.5 38.5t16.5 40.5t38 38t68.5 31.5t107.5 21.5t156 8h57q95 0 163 -8t113.5 -22t72 -32t40 -37.5t17.5 -39.5t4 -37v-193q0 -40 1 -68.5t3 -49t4.5 -34t6.5 -24.5v-6h-361
q-4 6 -8.5 22.5t-4.5 45.5zM194 724h509v-142h-509v142z" />
    <glyph glyph-name="amacron.alt2" horiz-adv-x="961" 
d="M570 279q0 15 -5.5 32t-16.5 31t-29 23.5t-43 9.5h-5q-24 0 -40.5 -9t-27.5 -23t-16 -31.5t-5 -34.5v-5q0 -18 5 -37t15.5 -34t27.5 -24.5t40 -9.5h5q25 0 43.5 9.5t29.5 24.5t16.5 33.5t5.5 36.5v8zM934 538v-538h-364v71q-9 -8 -28 -21t-48.5 -25t-71.5 -20.5t-97 -8.5
h-22q-78 0 -132.5 23t-89.5 60t-51 84.5t-16 95.5v25q0 46 15.5 92.5t49.5 83t88 59.5t131 23h23q55 0 96.5 -7t72 -16.5t50 -20.5t30.5 -19v59h364zM209 719h509v-142h-509v142z" />
    <glyph glyph-name="aogonek.alt" horiz-adv-x="909" 
d="M519 251l-116 -31q-19 -5 -29 -13.5t-10 -24.5v-1q0 -14 12.5 -29t47.5 -15q47 0 71 23t24 55v36zM522 68q-10 -9 -30.5 -22.5t-52 -26t-75.5 -21t-101 -8.5h-6q-68 0 -114.5 14.5t-76 38.5t-42.5 54t-13 61v20q0 28 9 52.5t32 44t62 32.5t99 18l283 23q15 2 19.5 8
t4.5 14v1q0 13 -14 23.5t-60 10.5h-2q-30 0 -46 -5t-24 -12t-10 -14.5t-2 -12.5h-338v12q0 18 3.5 38.5t16.5 40.5t38 38t68.5 31.5t107.5 21.5t156 8h57q95 0 163 -8t113.5 -22t72 -32t40 -37.5t17.5 -39.5t4 -37v-193q0 -40 1 -68.5t3 -49t4.5 -34t6.5 -24.5v-6h-361
q-4 6 -8.5 22.5t-4.5 45.5zM510 -109q0 42 60 66t178 43h148q-26 -14 -44.5 -28t-18.5 -28v-1q0 -17 25 -17h38v-114h-207q-50 0 -84.5 5t-55.5 14.5t-30 23t-9 31.5v5z" />
    <glyph glyph-name="aogonek.alt2" horiz-adv-x="961" 
d="M548 -109q0 42 60 66t178 43h148q-26 -14 -44.5 -28t-18.5 -28v-1q0 -17 25 -17h38v-114h-207q-50 0 -84.5 5t-55.5 14.5t-30 23t-9 31.5v5zM570 279q0 15 -5.5 32t-16.5 31t-29 23.5t-43 9.5h-5q-24 0 -40.5 -9t-27.5 -23t-16 -31.5t-5 -34.5v-5q0 -18 5 -37t15.5 -34
t27.5 -24.5t40 -9.5h5q25 0 43.5 9.5t29.5 24.5t16.5 33.5t5.5 36.5v8zM934 538v-538h-364v71q-9 -8 -28 -21t-48.5 -25t-71.5 -20.5t-97 -8.5h-22q-78 0 -132.5 23t-89.5 60t-51 84.5t-16 95.5v25q0 46 15.5 92.5t49.5 83t88 59.5t131 23h23q55 0 96.5 -7t72 -16.5
t50 -20.5t30.5 -19v59h364z" />
    </font>
</defs>
</svg>
